<svg xmlns="http://www.w3.org/2000/svg" width="77.854" height="77.854" viewBox="0 0 77.854 77.854"><defs><style>.a{fill:#dedede;}</style></defs><g transform="translate(-149 -263)"><g transform="translate(149 263)"><rect class="a" width="106.024" height="4.078" rx="2.039" transform="translate(0 74.97) rotate(-45)"/></g><g transform="translate(157.007 268.699)"><path class="a" d="M-5442.881,7318.716a2.119,2.119,0,0,1-1.231-.53c-1.14-.944-2.292-1.871-3.435-2.81a1.625,1.625,0,0,1-.455-2.238,1.909,1.909,0,0,1,.117-.159,1.646,1.646,0,0,1,2.317-.2c.037.037.074.063.108.1.647.508,1.3,1.017,1.908,1.576.421.4.687.315,1.054-.089,2.026-2.19,4.078-4.338,6.115-6.541a1.817,1.817,0,0,1,1.74-.684,1.583,1.583,0,0,1,1.267,1.834,1.574,1.574,0,0,1-.433.829c-.831,1-1.753,1.933-2.647,2.9q-2.467,2.643-4.948,5.291A2.048,2.048,0,0,1-5442.881,7318.716Z" transform="translate(5480.357 -7274.833)"/><path class="a" d="M-5628.469,7182.712a6.127,6.127,0,0,0,1.326.091h57.159c4.7-.021,4.832-5.809,4.687-8.07-.029-.3-.06-.6-.079-.906-.186-2.559-.456-5.126-.684-7.669q-.425-4.762-.839-9.519-.395-4.573-.794-9.152-.488-5.613-.994-11.215c-.112-1.28-.25-2.553-.321-3.835a6.836,6.836,0,0,0-6.9-6.648c-1.038-.021-2.075,0-3.122,0s-1.067,0-1.252-1.047a3.945,3.945,0,0,0-2.514-3.155,5.263,5.263,0,0,0-5.339.859,3.862,3.862,0,0,0-.961,2.65c.1,1.558.2,3.114.438,4.644a3.988,3.988,0,0,0,2.857,3.3,5.78,5.78,0,0,0,3.226.053,3.576,3.576,0,0,0,2.7-3.632c0-.609.169-.84.8-.82,1.1.042,2.218,0,3.336,0a3.815,3.815,0,0,1,3.828,3.514c.241,2.408.424,4.821.677,7.227.071.65-.292.621-.711.621h-45.379a3.569,3.569,0,0,0-1.181.107,1.358,1.358,0,0,0-1.027,1.379,1.4,1.4,0,0,0,1.184,1.344,5.688,5.688,0,0,0,1.039.045h45.246c1.374,0,1.128,0,1.228,1.148.356,4.205.758,8.407,1.13,12.623.326,3.69.619,7.383.928,11.074.248,2.928.5,5.851.791,8.778a2.933,2.933,0,0,1-2.273,3.48,2.728,2.728,0,0,1-.88.049h-43.843a3.943,3.943,0,0,1-4.209-3.008,11.538,11.538,0,0,1-.186-1.473c-.261-3.048-.506-6.1-.79-9.147-.324-3.712-.665-7.428-.994-11.141-.268-3.05-.523-6.1-.793-9.149-.275-3.156-.574-6.315-.847-9.443-.144-1.623-.293-3.246-.361-4.873a2.82,2.82,0,0,1,2.471-3.129,2.815,2.815,0,0,1,.566-.01h4.456c.505,0,.737.118.785.688a4.135,4.135,0,0,0,4.251,3.9,6.29,6.29,0,0,0,1.916-.146,3.49,3.49,0,0,0,2.632-3.514c0-.789.249-.949.977-.94,4.081.036,8.158,0,12.231,0,1.326,0,2.049-.5,2.021-1.42s-.738-1.45-2.038-1.454h-12.463c-.68,0-.98-.135-1.091-.888a4.019,4.019,0,0,0-4.321-3.621,6.291,6.291,0,0,0-1.775.09,3.589,3.589,0,0,0-2.707,3.7c.027.615-.2.713-.708.709h-5.924a6.914,6.914,0,0,0-7.265,6.545,3.273,3.273,0,0,0-.017.348c-.2,3.1-.554,6.2-.822,9.3s-.518,6.247-.79,9.377-.563,6.2-.834,9.295c-.222,2.458-.421,4.916-.636,7.382-.236,2.63-.415,5.263-.713,7.891A5.852,5.852,0,0,0-5628.469,7182.712Zm16.31-58.374a2.186,2.186,0,0,1,1.973-.134,1.209,1.209,0,0,1,.879,1.183c.086,1.155.2,2.309.3,3.463.114,1.354-.056,1.536-1.362,1.533-1.231,0-1.646-.317-1.786-1.483-.153-1.247-.23-2.507-.343-3.761a.788.788,0,0,1,.34-.8Zm29.1,5.866a1.919,1.919,0,0,1-2.634-.655,2.111,2.111,0,0,1-.2-.444c-.168-1.319-.243-2.647-.342-3.977a.827.827,0,0,1,.227-.757,2.182,2.182,0,0,1,1.914-.219,1.218,1.218,0,0,1,1.016,1.138c.134,1.185.227,2.4.332,3.552-.024.5.142,1.027-.311,1.361Z" transform="translate(5633.071 -7121.21)"/></g></g></svg>