<svg xmlns="http://www.w3.org/2000/svg" width="43.303" height="48" viewBox="0 0 43.303 48"><defs><style>.a{fill:#7a35ff;}.b{fill:#fff;}</style></defs><path class="a" d="M148.53,164.139v17.537a6.46,6.46,0,0,0,3.232,5.6l15.189,8.769a6.461,6.461,0,0,0,6.462,0l15.189-8.769a6.464,6.464,0,0,0,3.232-5.6V164.139a6.46,6.46,0,0,0-3.232-5.6l-15.189-8.769a6.461,6.461,0,0,0-6.462,0l-15.189,8.769A6.458,6.458,0,0,0,148.53,164.139Z" transform="translate(-148.53 -148.907)"/><g transform="translate(9.078 11.543)"><path class="b" d="M221.572,236.621a1.243,1.243,0,0,1,1.6-.281l3,1.736a1.225,1.225,0,0,1,.376,1.829,12.466,12.466,0,0,1-9.854,4.6,12.456,12.456,0,1,1,0-24.912,12.466,12.466,0,0,1,9.854,4.6,1.286,1.286,0,0,1-.376,1.878l-3,1.689a1.24,1.24,0,0,1-1.6-.281,6.218,6.218,0,0,0-4.879-2.16c-3.989,0-6.475,3.05-6.475,6.757,0,3.658,2.485,6.754,6.475,6.754A6.1,6.1,0,0,0,221.572,236.621Z" transform="translate(-204.12 -219.59)"/><path class="b" d="M261.72,279.523a3.166,3.166,0,1,1,3.144,3.189A3.186,3.186,0,0,1,261.72,279.523Z" transform="translate(-252.314 -267.064)"/></g></svg>