<svg xmlns="http://www.w3.org/2000/svg" width="19.93" height="23.642" viewBox="0 0 19.93 23.642"><defs><style>.a{fill:#7a25ff;}.b{fill:#1fdad8;}</style></defs><g transform="translate(-689.54 -605.911)"><path class="a" d="M148.53,154.243v6.143a2.263,2.263,0,0,0,1.132,1.96l5.32,3.072a2.263,2.263,0,0,0,2.263,0l5.32-3.072a2.264,2.264,0,0,0,1.132-1.96v-6.143a2.263,2.263,0,0,0-1.132-1.96l-5.32-3.072a2.263,2.263,0,0,0-2.263,0l-5.32,3.072A2.262,2.262,0,0,0,148.53,154.243Z" transform="translate(541.01 463.832)"/><path class="b" d="M148.53,151.893v3.438a1.266,1.266,0,0,0,.634,1.1l2.977,1.719a1.266,1.266,0,0,0,1.267,0l2.977-1.719a1.267,1.267,0,0,0,.634-1.1v-3.438a1.266,1.266,0,0,0-.634-1.1l-2.977-1.719a1.266,1.266,0,0,0-1.267,0l-2.977,1.719A1.266,1.266,0,0,0,148.53,151.893Z" transform="translate(552.451 457.004)"/></g></svg>