<svg xmlns="http://www.w3.org/2000/svg" width="38.263" height="40.972" viewBox="0 0 38.263 40.972"><defs><style>.a{fill:#7a23ff;}</style></defs><g transform="translate(-6068.235 4905.957)"><path class="a" d="M6148.77-4864.987h-14.188a2.053,2.053,0,0,1-2.18-2.174c0-.4,0-.8,0-1.2a.686.686,0,0,1,.675-.726.685.685,0,0,1,.689.713c0,.4,0,.811,0,1.216a.7.7,0,0,0,.794.8h28.42c.576,0,.828-.253.828-.832q0-13.8,0-27.609c0-.2-.055-.24-.244-.239q-3.595.01-7.19,0a2.049,2.049,0,0,1-2.129-2.12q0-3.606,0-7.212c0-.185-.041-.231-.23-.231q-9.708.009-19.416,0c-.6,0-.842.246-.842.839q0,6,0,11.991a1.44,1.44,0,0,1-.014.276.685.685,0,0,1-.734.546.684.684,0,0,1-.616-.677c-.005-.832,0-1.665,0-2.5q0-4.833,0-9.665a2.052,2.052,0,0,1,2.175-2.179q10.113,0,20.226,0a.942.942,0,0,1,.718.3q4.581,4.592,9.171,9.174c.09.09.187.174.279.263a.681.681,0,0,1,.219.615,2.17,2.17,0,0,0-.016.276q0,14.007,0,28.014a2.465,2.465,0,0,1-.177,1.1,2,2,0,0,1-1.913,1.224c-2.34.007-4.68,0-7.019,0Zm14-31.4-7.154-7.156v6.371a.7.7,0,0,0,.789.785h6.365Z" transform="translate(-58.701 0)"/><path class="a" d="M6083.949-4710.305a.717.717,0,0,1-1.052-.008,7.933,7.933,0,0,0-4.428-1.749,7.989,7.989,0,0,0-6.686,2.606,7.742,7.742,0,0,0-2.1,4.477,8,8,0,0,0,2.456,6.985,7.744,7.744,0,0,0,4.4,2.179,7.987,7.987,0,0,0,6.65-1.937,8.005,8.005,0,0,0,2.709-4.917,7.982,7.982,0,0,0-.09-2.984.7.7,0,0,1,.449-.914.7.7,0,0,1,.883.606,9.411,9.411,0,0,1-2.894,9.091,9.034,9.034,0,0,1-5.263,2.44,9.561,9.561,0,0,1-10.306-6.619,9.572,9.572,0,0,1,2.844-10.058,9.355,9.355,0,0,1,5.262-2.3,9.427,9.427,0,0,1,7.061,2.1A.69.69,0,0,1,6083.949-4710.305Z" transform="translate(0 -176.102)"/><path class="a" d="M6144.366-4663.882c-.477.458-.9.965-1.351,1.45-.86.928-1.709,1.866-2.564,2.8q-1.678,1.832-3.359,3.661a.691.691,0,0,1-1.161-.022q-1.652-1.981-3.3-3.966a.682.682,0,0,1,.041-1.019.687.687,0,0,1,1.012.152q1.313,1.57,2.619,3.146c.235.284.234.29.474.028l6.5-7.088.332-.36c.512-.248.963-.084,1.081.395a.665.665,0,0,1-.152.612C6144.479-4664.025,6144.422-4663.953,6144.366-4663.882Z" transform="translate(-58.722 -220.237)"/><path class="a" d="M6268.159-4744.2q-3.382,0-6.764,0a.686.686,0,0,1-.687-.937.7.7,0,0,1,.7-.427h13.527a.687.687,0,0,1,.7.927.7.7,0,0,1-.712.437h-6.763Z" transform="translate(-176.035 -146.727)"/><path class="a" d="M6268.158-4712.136q-3.381,0-6.763,0a.686.686,0,0,1-.687-.937.7.7,0,0,1,.7-.428h13.527a.687.687,0,0,1,.7.928.7.7,0,0,1-.712.438h-6.764Z" transform="translate(-176.035 -176.065)"/><path class="a" d="M6211.721-4825.743q3.223,0,6.443,0a.682.682,0,0,1,.7.509.676.676,0,0,1-.289.743.771.771,0,0,1-.446.114q-4.3,0-8.6,0-2.1,0-4.2,0a.836.836,0,0,1-.432-.092.685.685,0,0,1-.329-.747.682.682,0,0,1,.688-.527c1.1,0,2.2,0,3.307,0Z" transform="translate(-124.706 -73.383)"/><path class="a" d="M6298.906-4680.065h-5.372a.7.7,0,0,1-.769-.675.686.686,0,0,1,.753-.69h10.788a.686.686,0,0,1,.717.487.669.669,0,0,1-.26.752.754.754,0,0,1-.462.127Q6301.6-4680.066,6298.906-4680.065Z" transform="translate(-205.409 -205.405)"/><path class="a" d="M6280.145-4505.054h2.645a.694.694,0,0,1,.768.677.69.69,0,0,1-.758.687q-2.667,0-5.333,0a.689.689,0,0,1-.735-.689.682.682,0,0,1,.725-.675C6278.352-4505.056,6279.248-4505.054,6280.145-4505.054Z" transform="translate(-190.74 -366.76)"/><path class="a" d="M6393.658-4556.253v-1.406a1.071,1.071,0,0,0-.561-.988q-1.236-.717-2.475-1.429a1.034,1.034,0,0,0-1.078,0q-1.255.716-2.5,1.446a1.016,1.016,0,0,0-.53.936c0,.954,0,1.907,0,2.861a1.027,1.027,0,0,0,.534.95q1.246.73,2.5,1.444a1.039,1.039,0,0,0,1.091-.011q1.23-.709,2.46-1.421a1.061,1.061,0,0,0,.559-.972C6393.661-4555.315,6393.658-4555.784,6393.658-4556.253Z" transform="translate(-291.17 -316.285)"/></g></svg>