<svg xmlns="http://www.w3.org/2000/svg" width="40.161" height="38.712" viewBox="0 0 40.161 38.712"><defs><style>.a{fill:#7a25ff;}</style></defs><g transform="translate(-7378.534 5545.445)"><path class="a" d="M7429.014-5492.435a8.9,8.9,0,0,0,.335-1.381c.421-1.926.829-3.855,1.266-5.778a.779.779,0,0,0-.3-.924c-.781-.6-1.524-1.251-2.286-1.878-.086-.071-.166-.213-.3-.136-.1.057-.047.192-.055.293-.041.52-.294.782-.739.762-.42-.02-.646-.287-.657-.8-.007-.358,0-.718-.007-1.076a2.078,2.078,0,0,0-1.276-1.993,2.429,2.429,0,0,0-2.547.244,1.847,1.847,0,0,0-.835,1.422,17.082,17.082,0,0,0,.024,3.133,2.27,2.27,0,0,0,2.506,1.858c.339-.048.671-.146,1.009-.208a.7.7,0,0,1,.845.488.649.649,0,0,1-.411.841,3.78,3.78,0,0,1-5.322-2.575,12.126,12.126,0,0,1,0-4.018,3.3,3.3,0,0,1,2.926-2.771,3.665,3.665,0,0,1,3.891,1.538.561.561,0,0,0,.732.259,11.114,11.114,0,0,0,8.41-9.757,13.316,13.316,0,0,0,.114-2.057c-.015-.517.213-.785.631-.815.441-.033.729.21.764.737a13.058,13.058,0,0,1-.673,4.94,12.2,12.2,0,0,1-7.994,8.053c-.147.051-.382.037-.411.212s.2.24.316.341c.792.659,1.6,1.3,2.383,1.971a.86.86,0,0,0,.858.185q4.77-1.157,9.546-2.286c.646-.154.907-.008,1.119.617a12.52,12.52,0,0,0,1.085,2.456,1.148,1.148,0,0,1,.069,1.1q-1.294,3.369-2.556,6.75c-.343.924-.63,1.869-.951,2.8a4.747,4.747,0,0,1-.272.614,1.383,1.383,0,0,1-1.564.855c-2.189-.185-4.363-.486-6.527-.846-.383-.063-.607.014-.734.427-.265.856-.568,1.7-.882,2.541-.22.584-.758.751-1.163.389a.775.775,0,0,1-.161-.909c.25-.736.507-1.469.759-2.2.191-.558.189-.556-.4-.671-.5-.1-1-.186-1.491-.307a.7.7,0,0,1-.4-1.218c.194-.21.107-.328,0-.495q-1.163-1.757-2.322-3.517a3.682,3.682,0,0,1-.237-.381.687.687,0,0,1,.241-.941.657.657,0,0,1,.919.17,8.469,8.469,0,0,1,.508.738c.629.946,1.255,1.894,1.887,2.837C7428.757-5492.67,7428.806-5492.5,7429.014-5492.435Zm9.552,2.574c.4.008.463-.02.652-.614.971-3.066,2.151-6.055,3.312-9.051a.832.832,0,0,0-.047-.727,13.382,13.382,0,0,1-.631-1.386c-.133-.371-.3-.466-.692-.37q-4.244,1.044-8.5,2.039a.774.774,0,0,0-.673.692q-.812,3.883-1.671,7.756c-.089.4.037.538.416.592,1.063.155,2.123.345,3.187.5C7435.455-5490.205,7436.995-5490,7438.566-5489.861Z" transform="translate(-31.555 -21.02)"/><path class="a" d="M7379.948-5528.728a17.491,17.491,0,0,0,4.024,10.717,19.507,19.507,0,0,0,2.895,2.992.911.911,0,0,1,.3,1.149c-.711,1.888-1.4,3.785-2.1,5.675-.206.551-.554.768-.966.623-.439-.156-.575-.562-.372-1.115.6-1.641,1.195-3.286,1.82-4.919a.669.669,0,0,0-.209-.854,20.539,20.539,0,0,1-5.675-8.277,16.583,16.583,0,0,1,2.892-16.886,14.935,14.935,0,0,1,10.213-5.657,19.515,19.515,0,0,1,14.824,3.872,15.6,15.6,0,0,1,5.484,8.47c.151.561-.015.911-.464,1.042-.415.12-.774-.138-.921-.687a14.571,14.571,0,0,0-4.1-6.932,16.007,16.007,0,0,0-7.928-4.031,18.2,18.2,0,0,0-8.788.1,14.514,14.514,0,0,0-8.705,6.828,14.762,14.762,0,0,0-2.132,6.913C7380.016-5529.382,7379.978-5529.055,7379.948-5528.728Z" transform="translate(0 0)"/><path class="a" d="M7500.11-5502.054a9.2,9.2,0,0,1-.343,2.074,9.679,9.679,0,0,0-.472,2.636.727.727,0,0,1-.7.778.758.758,0,0,1-.73-.717,6.376,6.376,0,0,1,.209-1.862,22.031,22.031,0,0,0,.569-2.531,5.941,5.941,0,0,0-1.222-4.028c-.208-.291-.442-.565-.65-.857a.689.689,0,0,1,.1-1,.705.705,0,0,1,.974.093A8.187,8.187,0,0,1,7500.11-5502.054Z" transform="translate(-89.654 -28.652)"/><path class="a" d="M7539.887-5438.528a.842.842,0,0,1-.864.784.78.78,0,0,1-.767-.814.831.831,0,0,1,.824-.815A.845.845,0,0,1,7539.887-5438.528Z" transform="translate(-121.281 -80.542)"/><path class="a" d="M7539.09-5414.664a.816.816,0,0,1-.822-.781.84.84,0,0,1,.806-.852.844.844,0,0,1,.828.831A.847.847,0,0,1,7539.09-5414.664Z" transform="translate(-121.291 -98.065)"/><path class="a" d="M7524.985-5427.131a.871.871,0,0,1-.837.83.831.831,0,0,1-.8-.813.78.78,0,0,1,.822-.81A.834.834,0,0,1,7524.985-5427.131Z" transform="translate(-109.964 -89.237)"/><path class="a" d="M7540.257-5427.124a.874.874,0,0,1-.844.824.83.83,0,0,1-.788-.82.774.774,0,0,1,.826-.8A.835.835,0,0,1,7540.257-5427.124Z" transform="translate(-121.562 -89.238)"/></g></svg>