<svg xmlns="http://www.w3.org/2000/svg" width="14" height="14" viewBox="0 0 14 14"><defs><style>.a{fill:#3b9b3f;}.b{fill:#fff;}</style></defs><g transform="translate(-302 -395)"><circle class="a" cx="7" cy="7" r="7" transform="translate(302 395)"/><path class="b" d="M18.392,12.955l-.654-.7a.138.138,0,0,0-.1-.047h0a.132.132,0,0,0-.1.047L13,17.023,11.348,15.3a.139.139,0,0,0-.208,0l-.661.691a.16.16,0,0,0,0,.221l2.08,2.173a.647.647,0,0,0,.435.221.679.679,0,0,0,.431-.213h0L18.4,13.177A.171.171,0,0,0,18.392,12.955Z" transform="translate(294.566 386.794)"/></g></svg>