<svg xmlns="http://www.w3.org/2000/svg" width="20" height="20" viewBox="0 0 20 20"><defs><style>.a{fill:#5bf;}.b{fill:#fff;fill-rule:evenodd;}</style></defs><g transform="translate(-254 -502)"><rect class="a" width="20" height="20" rx="4" transform="translate(254 502)"/><g transform="translate(255.752 503.752)"><path class="b" d="M6.964,17.3a.429.429,0,0,0-.429-.429H2.679a.429.429,0,0,0,0,.857H6.535A.429.429,0,0,0,6.964,17.3Z" transform="translate(-0.002 -9.056)"/><path class="b" d="M4.694,12.5a.429.429,0,0,0-.607,0L2.373,14.213a.429.429,0,0,0,0,.607l1.714,1.714a.429.429,0,0,0,.607-.607L3.283,14.517l1.412-1.411a.429.429,0,0,0,0-.607Zm4.839,2.017a.429.429,0,0,1,.429-.429h3.857a.429.429,0,0,1,0,.857H9.962A.429.429,0,0,1,9.533,14.517Z" transform="translate(0 -6.269)"/><path class="b" d="M20.857,12.5a.429.429,0,0,1,.607,0l1.714,1.714a.429.429,0,0,1,0,.607l-1.714,1.714a.429.429,0,0,1-.607-.607l1.411-1.411-1.412-1.411a.429.429,0,0,1,0-.607ZM17.3,15.8a.429.429,0,0,0-.429.429v3.857a.429.429,0,1,0,.857,0V16.231A.429.429,0,0,0,17.3,15.8Z" transform="translate(-9.056 -6.269)"/><path class="b" d="M12.5,11.8a.429.429,0,0,0,0,.607l1.714,1.714a.429.429,0,0,0,.607,0l1.714-1.714a.429.429,0,0,0-.607-.607l-1.411,1.411L13.106,11.8a.429.429,0,0,0-.607,0Zm2.017-4.839a.429.429,0,0,1-.429-.429V2.679a.429.429,0,1,1,.857,0V6.535A.429.429,0,0,1,14.517,6.964Z" transform="translate(-6.269 -0.002)"/><path class="b" d="M12.5,4.694a.429.429,0,0,1,0-.607l1.714-1.714a.429.429,0,0,1,.607,0l1.714,1.714a.429.429,0,0,1-.607.607L14.517,3.283,13.106,4.694a.429.429,0,0,1-.607,0Z" transform="translate(-6.269)"/></g></g></svg>