<svg xmlns="http://www.w3.org/2000/svg" width="40.245" height="40.245" viewBox="0 0 40.245 40.245"><defs><style>.a{fill:#55bbff;}</style></defs><path class="a" d="M22.693,5.574,39.558,39.186H5.829L22.693,5.574Zm0-3.646A2.909,2.909,0,0,0,20.3,3.683L3.123,37.919c-1.316,2.34-.2,4.254,2.488,4.254H39.776c2.684,0,3.8-1.914,2.488-4.254h0L25.086,3.683A2.909,2.909,0,0,0,22.693,1.928Zm2.515,32.7a2.515,2.515,0,1,1-2.515-2.515A2.515,2.515,0,0,1,25.208,34.627ZM22.693,29.6a2.515,2.515,0,0,1-2.515-2.515V19.535a2.515,2.515,0,1,1,5.031,0v7.546A2.515,2.515,0,0,1,22.693,29.6Z" transform="translate(-2.571 -1.928)"/></svg>
