<svg xmlns="http://www.w3.org/2000/svg" width="14" height="14" viewBox="0 0 14 14"><defs><style>.a{fill:#55BBFF;}</style></defs><g transform="translate(-4 -4)"><path class="a" d="M11,4a7,7,0,1,0,7,7A7,7,0,0,0,11,4Zm0,12.727A5.727,5.727,0,1,1,16.727,11,5.727,5.727,0,0,1,11,16.727Z"/><path class="a" d="M45.273,24.191V20.636a.636.636,0,1,0-1.273,0v3.818s0,0,0,0a.623.623,0,0,0,.012.12c0,.02.011.037.017.056a.637.637,0,0,0,.019.063.655.655,0,0,0,.033.063c.009.016.015.032.025.047a.62.62,0,0,0,.08.1l1.8,1.8a.636.636,0,0,0,.9-.9Z" transform="translate(-33.636 -13.455)"/></g></svg>