<svg xmlns="http://www.w3.org/2000/svg" width="12.215" height="9.999" viewBox="0 0 12.215 9.999"><defs><style>.a{fill:#fff;}</style></defs><g transform="translate(-11.395 -14.002)"><path class="a" d="M15.244,11.192,11.46,7.412A.715.715,0,0,1,12.473,6.4l4.287,4.284a.713.713,0,0,1,.021.985l-4.3,4.313a.715.715,0,1,1-1.012-1.009Z" transform="translate(28.362 30.195) rotate(180)"/><path class="a" d="M15.244,11.192,11.46,7.412A.715.715,0,0,1,12.473,6.4l4.287,4.284a.713.713,0,0,1,.021.985l-4.3,4.313a.715.715,0,1,1-1.012-1.009Z" transform="translate(34.86 30.195) rotate(180)"/></g></svg>