<svg xmlns="http://www.w3.org/2000/svg" width="5" height="14" viewBox="0 0 5 14"><defs><style>.a{fill:#2f4983;}</style></defs><path class="a" d="M.521,11.6h.521V7.65H.521A.534.534,0,0,1,0,7.1V5.8A.534.534,0,0,1,.521,5.25H3.438a.534.534,0,0,1,.521.547v5.8h.521A.534.534,0,0,1,5,12.147v1.306A.534.534,0,0,1,4.479,14H.521A.534.534,0,0,1,0,13.453V12.147A.534.534,0,0,1,.521,11.6ZM2.5,0A1.924,1.924,0,0,0,.625,1.969,1.924,1.924,0,0,0,2.5,3.938,1.924,1.924,0,0,0,4.375,1.969,1.924,1.924,0,0,0,2.5,0Z"/></svg>