<svg xmlns="http://www.w3.org/2000/svg" width="27.315" height="20.722" viewBox="0 0 27.315 20.722"><defs><style>.a{fill:#fff;}</style></defs><g transform="translate(-189.914 -324)"><g transform="translate(3909.703 -4734.453)"><g transform="translate(-3719.789 5058.453)"><path class="a" d="M-3719.789,5060.071a3.922,3.922,0,0,1,.313-.675,2.025,2.025,0,0,1,1.726-.942q11.6,0,23.21,0a2.049,2.049,0,0,1,2.064,2.066q0,8.287,0,16.575a2.051,2.051,0,0,1-2.083,2.077q-11.592,0-23.183,0a2.062,2.062,0,0,1-1.962-1.416l-.085-.252Zm13.206,8.741q0-4.557,0-9.115c0-.359,0-.36-.345-.36-1.679,0-3.358,0-5.038-.006-.263,0-.352.065-.351.341q.011,9.143,0,18.285c0,.279.091.34.352.338,1.661-.01,3.323,0,4.984,0,.4,0,.4,0,.4-.388Q-3706.583,5073.357-3706.583,5068.812Zm3.723-5.4c.862,0,1.723-.006,2.584,0,.226,0,.313-.054.31-.3q-.016-1.745,0-3.491c0-.243-.088-.3-.312-.3q-2.558.01-5.116,0c-.226,0-.312.058-.31.3q.016,1.745,0,3.491c0,.245.089.3.312.295C-3704.548,5063.4-3703.7,5063.411-3702.861,5063.411Zm-13.2,4.96c.853,0,1.706-.007,2.558,0,.228,0,.31-.058.308-.3q-.017-1.732,0-3.464c0-.239-.059-.325-.312-.323q-2.558.015-5.116,0c-.227,0-.313.059-.31.3q.016,1.732,0,3.464c0,.238.062.326.314.322C-3717.763,5068.362-3716.91,5068.371-3716.057,5068.371Zm13.222,0c.844,0,1.688-.008,2.531,0,.248,0,.342-.059.338-.324-.013-1.146-.011-2.292,0-3.437,0-.237-.059-.326-.312-.324q-2.558.015-5.116,0c-.226,0-.312.057-.31.3q.016,1.745,0,3.49c0,.244.087.3.312.3C-3704.54,5068.364-3703.687,5068.371-3702.834,5068.371Zm6.636-4.076c-.853,0-1.705.008-2.558,0-.25,0-.339.064-.336.327.013,1.146.011,2.292,0,3.437,0,.238.059.323.312.322q2.558-.015,5.116,0c.226,0,.313-.057.311-.3q-.016-1.745,0-3.491c0-.244-.092-.3-.314-.295C-3694.51,5064.3-3695.354,5064.3-3696.2,5064.295Zm-19.875,9.035c.862,0,1.723,0,2.584,0,.212,0,.3-.052.3-.282q-.014-1.759,0-3.517c0-.229-.083-.284-.3-.283q-2.572.01-5.143,0c-.24,0-.3.083-.3.31.009,1.154.011,2.309,0,3.464,0,.255.092.313.326.311C-3717.76,5073.323-3716.917,5073.33-3716.073,5073.33Zm13.227,0c.862,0,1.723-.005,2.584,0,.215,0,.3-.059.295-.285q-.014-1.745,0-3.491c0-.228-.061-.31-.3-.308q-2.572.013-5.143,0c-.215,0-.3.06-.294.286.009,1.164.012,2.327,0,3.491,0,.26.1.31.327.307C-3704.534,5073.324-3703.69,5073.33-3702.846,5073.33Zm6.636-4.075c-.853,0-1.706.007-2.558,0-.236,0-.327.054-.324.31.013,1.154.01,2.31,0,3.464,0,.225.053.312.3.31q2.572-.014,5.143,0c.24,0,.3-.083.3-.31-.009-1.154-.011-2.309,0-3.464,0-.255-.092-.313-.327-.311C-3694.522,5069.261-3695.366,5069.254-3696.21,5069.255Zm-6.637,9.034c.853,0,1.705-.007,2.558,0,.236,0,.327-.057.324-.312-.012-1.154-.01-2.309,0-3.463,0-.227-.058-.31-.3-.308q-2.571.013-5.142,0c-.243,0-.3.085-.3.31.01,1.155.012,2.309,0,3.464,0,.257.093.313.326.31C-3704.535,5078.283-3703.691,5078.289-3702.847,5078.289Zm-13.206-14.877c.852,0,1.7-.007,2.556,0,.23,0,.309-.061.306-.3q-.016-1.744,0-3.488c0-.243-.087-.3-.311-.3-1.4.008-2.8,0-4.207.006a1.176,1.176,0,0,0-1.214,1.208c-.006.861,0,1.722-.006,2.583,0,.224.077.289.293.287C-3717.775,5063.406-3716.914,5063.411-3716.053,5063.411Zm19.83,0c.861,0,1.722,0,2.583,0,.2,0,.29-.044.287-.265-.01-.878,0-1.757-.007-2.636a1.172,1.172,0,0,0-1.193-1.176c-1.42-.007-2.84,0-4.26-.006-.207,0-.278.064-.277.275.008,1.172.01,2.343,0,3.515,0,.245.089.3.312.294C-3697.927,5063.4-3697.075,5063.411-3696.223,5063.411Zm-19.405,14.878c.729,0,1.457,0,2.186,0,.182,0,.251-.059.25-.246q-.009-1.785,0-3.571c0-.2-.065-.263-.262-.262q-2.6.008-5.2,0c-.21,0-.279.068-.277.276.009.853,0,1.706,0,2.559a1.192,1.192,0,0,0,1.242,1.241C-3717,5078.292-3716.313,5078.289-3715.629,5078.289Zm19.417-4.074c-.862,0-1.724.005-2.585,0-.215,0-.3.059-.293.285q.014,1.746,0,3.492c0,.231.064.309.3.307,1.395-.009,2.79,0,4.185-.006a1.192,1.192,0,0,0,1.246-1.237c0-.844-.006-1.688.006-2.532,0-.229-.061-.312-.3-.309C-3694.506,5074.223-3695.359,5074.215-3696.212,5074.215Z" transform="translate(3719.789 -5058.452)"/></g></g><rect class="a" width="7" height="20" transform="translate(196.914 324)"/></g></svg>