<svg xmlns="http://www.w3.org/2000/svg" width="80.356" height="89.073" viewBox="0 0 80.356 89.073"><defs><style>.a{fill:#5bf;}.b{fill:#fff;}</style></defs><g transform="translate(-195.399 -263.314)"><g transform="translate(78.902 141.197)"><path class="a" d="M148.53,177.173v32.543a11.988,11.988,0,0,0,6,10.385l28.186,16.273a11.989,11.989,0,0,0,11.991,0L222.889,220.1a12,12,0,0,0,6-10.385V177.173a11.988,11.988,0,0,0-6-10.385L194.7,150.514a11.989,11.989,0,0,0-11.991,0l-28.186,16.273A11.985,11.985,0,0,0,148.53,177.173Z" transform="translate(-32.033 -26.791)"/></g><g transform="translate(-3166.416 2158.91)"><g transform="translate(3374.836 -1875.911)"><path class="b" d="M3374.836-1854.615a1.533,1.533,0,0,1,.682-.752q5.157-3.181,10.309-6.372c.215-.133.429-.268.647-.4.112-.066.135-.113.033-.226a1.09,1.09,0,0,1,.255-1.793q3.92-2.393,7.846-4.776a1.121,1.121,0,0,1,1.242-.014.7.7,0,0,1,.129.078c.346.333.64.255,1.03,0,3.508-2.28,7.035-4.529,10.55-6.8a1.266,1.266,0,0,1,1.5,0q7.643,4.79,15.3,9.565c.586.366,1.176.728,1.757,1.1a1.093,1.093,0,0,1,0,1.93q-4.425,2.8-8.857,5.592c-.742.468-1.481.939-2.227,1.4a.383.383,0,0,0-.212.365c.008.776,0,1.552,0,2.328,0,.267.016.276.245.13q2.649-1.681,5.3-3.366,2.263-1.44,4.526-2.879a1.112,1.112,0,0,1,1.671.355,1.086,1.086,0,0,1-.421,1.455c-1.068.692-2.145,1.373-3.22,2.057q-3.948,2.513-7.9,5.021a.386.386,0,0,0-.2.373c.006.75,0,1.5,0,2.252,0,.073-.034.174.033.214.083.05.154-.043.221-.085q3.278-2.084,6.552-4.172,1.654-1.054,3.31-2.1a1.1,1.1,0,0,1,1.576.312,1.091,1.091,0,0,1-.385,1.538q-3.623,2.317-7.255,4.623-1.942,1.237-3.885,2.471a.31.31,0,0,0-.168.286q0,1.177,0,2.354c0,.254.109.183.243.1q3-1.91,6-3.817,1.942-1.236,3.886-2.471a1.1,1.1,0,0,1,1.558.3,1.087,1.087,0,0,1-.357,1.544q-3.612,2.312-7.233,4.611-1.953,1.244-3.908,2.483a.353.353,0,0,0-.186.354,1.358,1.358,0,0,1-.718,1.316c-2.787,1.794-5.562,3.608-8.341,5.414a1.089,1.089,0,0,1-1.492-.122c-.123-.115-.209-.092-.33-.014q-2.485,1.586-4.973,3.166-2.52,1.6-5.039,3.2a1.153,1.153,0,0,1-1.534-.048q-4.816-3.312-9.635-6.619-3.628-2.494-7.257-4.987a1.833,1.833,0,0,1-.669-.74v-.607a1.386,1.386,0,0,1,.4-.576,1.159,1.159,0,0,1,1.51.091q3.01,2.074,6.023,4.145,5.077,3.489,10.151,6.983a.46.46,0,0,0,.6.014q5.117-3.269,10.245-6.521a.4.4,0,0,0,.216-.387c-.008-.75,0-1.5,0-2.252,0-.072.039-.168-.039-.21s-.138.043-.2.082q-1.518.96-3.033,1.925l-6.766,4.306a1.17,1.17,0,0,1-1.5-.01q-2.218-1.529-4.438-3.056-6.254-4.3-12.512-8.6a1.647,1.647,0,0,1-.654-.747v-.607a1.179,1.179,0,0,1,.916-.783,1.439,1.439,0,0,1,1.085.382q8.087,5.562,16.177,11.123a.322.322,0,0,0,.411.011q5.183-3.306,10.372-6.6a.363.363,0,0,0,.184-.353c-.006-.725,0-1.451,0-2.176,0-.072.038-.168-.038-.21s-.138.042-.2.08q-1.909,1.194-3.815,2.392-3.032,1.9-6.064,3.806a1.134,1.134,0,0,1-1.348-.015q-1.711-1.174-3.42-2.349-6.8-4.674-13.594-9.344a1.614,1.614,0,0,1-.663-.77v-.608a1.189,1.189,0,0,1,1.963-.425c.8.595,1.636,1.134,2.456,1.7q6.881,4.73,13.759,9.465a.324.324,0,0,0,.425.011c.594-.386,1.2-.758,1.8-1.135q4.277-2.682,8.554-5.362a.34.34,0,0,0,.189-.323q-.009-1.215,0-2.429c0-.188-.046-.229-.213-.121-.481.312-.967.617-1.451.925q-4.2,2.669-8.387,5.341a1.23,1.23,0,0,1-1.46.006c-.964-.62-1.943-1.219-2.916-1.827q-7.017-4.385-14.035-8.767a1.558,1.558,0,0,1-.682-.752Zm37.759,6.795v-1.265c0-2.159,0-4.318,0-6.477a.469.469,0,0,0-.259-.469c-.294-.165-.575-.352-.862-.53q-5.2-3.233-10.4-6.469c-1.874-1.17-3.736-2.36-5.6-3.543a.375.375,0,0,0-.458-.033q-2.727,1.674-5.465,3.331c-.255.155-.255.158-.014.321l7.514,5.057q4.272,2.874,8.545,5.745a1.2,1.2,0,0,1,.577,1.058q0,2.859,0,5.718,0,4.731,0,9.463c0,.073-.03.168.036.215s.139-.031.2-.069q2.971-1.928,5.942-3.856a.457.457,0,0,0,.244-.428Q3412.589-1843.937,3412.595-1847.82Zm10.843-16.206c-.031-.09-.116-.119-.185-.163q-1.619-1.014-3.239-2.025-5.728-3.581-11.454-7.165a.377.377,0,0,0-.473,0q-3.709,2.4-7.427,4.775-.947.608-1.9,1.216c-.226.146-.224.149.011.3.277.177.562.344.829.535a.4.4,0,0,0,.522,0c1.879-1.177,3.771-2.336,5.645-3.523a.6.6,0,0,1,.788.018,2.22,2.22,0,0,0,1.4.443,2.1,2.1,0,0,0,1.275-.552.35.35,0,0,1,.472-.016c1.083.7,2.176,1.387,3.266,2.078l5.083,3.228c.233.148.231.153,0,.318-.386.272-.771.546-1.159.814-.156.108-.206.179.006.29.44.23.871.481,1.305.723.239.133.242.159.009.307q-1.315.833-2.631,1.662-1.53.966-3.059,1.932c-.247.156-.245.164.011.323s.543.312.791.5a.506.506,0,0,0,.673-.01c1.712-1.1,3.434-2.175,5.153-3.259q2.054-1.3,4.109-2.591C3423.325-1863.9,3423.414-1863.93,3423.438-1864.026Zm-30.25,19.2c.105-.062.208-.119.307-.182l5.956-3.787,3.372-2.146c.316-.2.315-.2.013-.406-.272-.184-.549-.363-.814-.557a.333.333,0,0,0-.432-.01c-1.955,1.233-3.92,2.447-5.863,3.7a.714.714,0,0,1-1.008-.02,1.635,1.635,0,0,0-1.547-.32,3.078,3.078,0,0,0-.969.426.521.521,0,0,1-.661-.011c-.929-.614-1.875-1.2-2.815-1.8q-2.691-1.708-5.382-3.417c-.256-.163-.255-.184,0-.354l1.114-.746c.249-.167.249-.174,0-.354-.371-.263-.738-.534-1.117-.786-.185-.123-.186-.192,0-.311.815-.509,1.623-1.03,2.435-1.545,1.3-.822,2.59-1.647,3.891-2.461.21-.132.162-.2-.01-.308a8.624,8.624,0,0,1-.754-.51.367.367,0,0,0-.493-.014q-5.008,3.108-10.023,6.2c-.383.236-.379.237.01.481l8.387,5.242,6.178,3.861C3393.031-1844.914,3393.106-1844.876,3393.188-1844.83Zm-1.274-13.854a.338.338,0,0,0-.2.078q-2.381,1.511-4.763,3.019a.221.221,0,0,0-.107.311,1.791,1.791,0,0,1,.02,1.239c-.074.205-.009.3.158.4q2.375,1.5,4.741,3.008a.474.474,0,0,0,.451.053,4.028,4.028,0,0,1,2.821-.007.359.359,0,0,0,.353-.042q2.1-1.321,4.2-2.633c.179-.112.181-.172,0-.29q-3.761-2.519-7.517-5.047C3392.018-1858.629,3391.958-1858.659,3391.914-1858.684Zm14.339-9.029a.806.806,0,0,0-.159.056c-.224.134-.446.272-.668.41-1.089.676-2.175,1.354-3.267,2.025-.174.107-.17.17,0,.269.256.148.5.31.753.466q3.521,2.19,7.042,4.382a.354.354,0,0,0,.436.023q2-1.28,4.019-2.54a.247.247,0,0,0,.116-.349,1.764,1.764,0,0,1,.021-1.214c.079-.2.02-.295-.152-.4q-2.375-1.495-4.74-3.008a.43.43,0,0,0-.422-.042,4.074,4.074,0,0,1-1.968.185A5.821,5.821,0,0,1,3406.252-1867.713Z" transform="translate(-3374.836 1875.911)"/><path class="b" d="M3433.617-1805.011c0-.294,0-.589,0-.883,0-.148.063-.217.21-.217q.884,0,1.768,0c.16,0,.224.071.222.231q-.007.884,0,1.767c0,.161-.064.231-.223.23-.589,0-1.178,0-1.767,0-.148,0-.212-.07-.21-.218C3433.619-1804.405,3433.617-1804.708,3433.617-1805.011Z" transform="translate(-3416.364 1826.597)"/><path class="b" d="M3487.358-1838.1c0,.286-.005.573,0,.858,0,.174-.071.242-.241.241-.572,0-1.145-.005-1.717,0-.188,0-.247-.082-.245-.261q.01-.858,0-1.717c0-.187.073-.256.253-.254.563,0,1.127.006,1.691,0,.2,0,.266.084.259.275C3487.351-1838.673,3487.358-1838.387,3487.358-1838.1Z" transform="translate(-3452.778 1849.998)"/></g></g></g></svg>