<svg xmlns="http://www.w3.org/2000/svg" width="27.706" height="25.565" viewBox="0 0 27.706 25.565"><defs><style>.a{fill:#fd7777;}</style></defs><g transform="translate(-807 -660.001)"><path class="a" d="M18.456,8.6l-1.1-1.1-4.375,4.375L8.6,7.5,7.5,8.6l4.375,4.375L7.5,17.353l1.1,1.1,4.375-4.375,4.375,4.375,1.1-1.1-4.375-4.375Z" transform="translate(806.958 659.804)"/><g transform="translate(807 660.001)"><path class="a" d="M1994.574-967.572c.308-.45.58-.877.882-1.282a.753.753,0,0,1,1.257-.016.684.684,0,0,1,0,.827c-.709,1.056-1.416,2.113-2.14,3.159a.72.72,0,0,1-1.034.185q-1.57-1.046-3.121-2.124a.744.744,0,0,1-.209-1.06.717.717,0,0,1,1.027-.187c.488.3.953.646,1.433.963.1.068.207.231.342.134.1-.072.034-.227.013-.343a10.852,10.852,0,0,0-1.781-4.351,10.95,10.95,0,0,0-8.069-4.85,11.1,11.1,0,0,0-11.022,5.6,11.12,11.12,0,0,0,.916,12.557,10.889,10.889,0,0,0,8.411,4.291,4.144,4.144,0,0,1,.519.045.728.728,0,0,1,.667.766.734.734,0,0,1-.763.722,9.675,9.675,0,0,1-2.037-.168,12.729,12.729,0,0,1-10.57-10.677,12.735,12.735,0,0,1,10.773-14.568,12.432,12.432,0,0,1,10.9,3.61,12.336,12.336,0,0,1,3.476,6.446c.014.065.026.131.044.2A.861.861,0,0,0,1994.574-967.572Z" transform="translate(-1969.146 978.099)"/><path class="a" d="M2081.521-853.028a.74.74,0,0,1-.691-.455.685.685,0,0,1,.179-.839q.646-.566,1.332-1.085a.711.711,0,0,1,1.009.089.7.7,0,0,1-.026,1.009,7.946,7.946,0,0,1-1.385,1.143A.887.887,0,0,1,2081.521-853.028Z" transform="translate(-2061.802 876.387)"/><path class="a" d="M2053.466-838.107a.761.761,0,0,1-.817-.589.718.718,0,0,1,.466-.838c.588-.179,1.186-.329,1.787-.457a.722.722,0,0,1,.8.532.7.7,0,0,1-.356.851A7.254,7.254,0,0,1,2053.466-838.107Z" transform="translate(-2038.454 863.46)"/><path class="a" d="M2102.177-877.713a.752.752,0,0,1-.73-1.024c.225-.528.486-1.043.755-1.551a.706.706,0,0,1,.953-.346.721.721,0,0,1,.4.936,8.459,8.459,0,0,1-.764,1.589A.775.775,0,0,1,2102.177-877.713Z" transform="translate(-2078.928 897.247)"/></g></g></svg>