<svg xmlns="http://www.w3.org/2000/svg" width="29.706" height="29.694" viewBox="0 0 29.706 29.694"><defs><style>.a{fill:#0bd561;}</style></defs><g transform="translate(-4309.294 -2907.305)"><g transform="translate(4309.294 2907.305)"><path class="a" d="M4324.478,2907.3c.974.15,1.96.161,2.925.393a14.727,14.727,0,0,1,9.673,7.221,14.128,14.128,0,0,1,1.924,7.252,14.829,14.829,0,0,1-12.706,14.667,14.514,14.514,0,0,1-10.31-2.307,1.309,1.309,0,0,1-.616-.653.958.958,0,0,1,.286-1.121.928.928,0,0,1,1.2-.053,14.805,14.805,0,0,0,2.751,1.461,12.819,12.819,0,1,0-3.789-21.686,12.569,12.569,0,0,0-4.437,10.624,11.611,11.611,0,0,0,1.693,5.448,1.722,1.722,0,0,1,.216,1.429c-.475,1.8-.914,3.617-1.375,5.426a2.574,2.574,0,0,1-.243.651.948.948,0,0,1-1.177.382.967.967,0,0,1-.619-1.124c.2-.857.428-1.705.644-2.558q.347-1.384.7-2.767a.92.92,0,0,0-.051-.722,14.19,14.19,0,0,1-1.778-5.986,2.192,2.192,0,0,0-.084-.364v-1.508a2.977,2.977,0,0,0,.117-.955,14.907,14.907,0,0,1,12.771-12.981,6.518,6.518,0,0,0,1.434-.171Z" transform="translate(-4309.294 -2907.305)"/><path class="a" d="M4397.77,3009.722c-4.29-.629-7.557-2.524-9.364-6.5a18.234,18.234,0,0,1-.8-2.112,2.211,2.211,0,0,1,.714-2.058.927.927,0,0,1,1.368.264c.571.932,1.1,1.892,1.6,2.86a.893.893,0,0,1-.19,1.135c-.213.194-.163.358-.021.556a8.55,8.55,0,0,0,2.847,2.576c.252.141.438.167.631-.116a.976.976,0,0,1,1.232-.37c1.052.36,2.105.713,3.159,1.068a1.1,1.1,0,0,1,.884.966,1.083,1.083,0,0,1-.7,1.056C4398.659,3009.3,4398.248,3009.722,4397.77,3009.722Z" transform="translate(-4379.099 -2988.961)"/></g></g></svg>