<svg xmlns="http://www.w3.org/2000/svg" width="17" height="17" viewBox="0 0 17 17"><defs><style>.a{fill:#fd7777;}</style></defs><g transform="translate(0)"><path class="a" d="M58.77,65a8.5,8.5,0,1,1,8.5-8.5A8.509,8.509,0,0,1,58.77,65Zm0-15.766A7.266,7.266,0,1,0,66.037,56.5,7.275,7.275,0,0,0,58.77,49.233Z" transform="translate(-50.27 -48)"/><path class="a" d="M163.758,164.454a.617.617,0,0,1-.436-.18l-7.065-7.066a.617.617,0,1,1,.872-.872l7.066,7.066a.617.617,0,0,1-.436,1.053Z" transform="translate(-151.725 -151.708)"/><path class="a" d="M156.7,164.453a.617.617,0,0,1-.436-1.053l7.065-7.066a.617.617,0,1,1,.872.872l-7.066,7.066A.617.617,0,0,1,156.7,164.453Z" transform="translate(-151.732 -151.707)"/></g></svg>