<svg xmlns="http://www.w3.org/2000/svg" width="82.016" height="82.016" viewBox="0 0 82.016 82.016"><defs><style>.a{fill:#5bf;}</style></defs><g transform="translate(-2085.399 -2947.321)"><path class="a" d="M53.38,29.234C53.042,18.6,48.133,11.007,38.416,6.581c-.755-.344-1.588-.575-2.023-1.388a2.314,2.314,0,0,1-.029-2.508,2.173,2.173,0,0,1,2.286-1,5.151,5.151,0,0,1,1.334.373c9.9,4.4,16.154,11.876,17.856,22.575,2.516,15.831-7.789,30.05-23.527,33.074A29.106,29.106,0,1,1,25.185.233,20.847,20.847,0,0,1,29.07.016a2.229,2.229,0,0,1,2.339,2.252,2.262,2.262,0,0,1-2.228,2.369A25.638,25.638,0,0,0,15.11,9.311,23.572,23.572,0,0,0,4.891,26.9C3.547,41.68,14.969,51.985,26.545,53.348c10.918,1.286,24.7-6.333,26.679-20.916C53.367,31.379,53.332,30.3,53.38,29.234Z" transform="translate(2129.994 2947.321) rotate(50)"/><path class="a" d="M2185.2,3040.2c0-2.3-.012-4.594,0-6.891.01-1.378.728-2.182,1.891-2.178s1.872.813,1.876,2.2q.02,6.947,0,13.893a1.878,1.878,0,0,1-1.964,2.1c-1.119-.017-1.792-.787-1.8-2.13C2185.192,3044.869,2185.2,3042.534,2185.2,3040.2Z" transform="translate(-60.673 -47.158)"/><path class="a" d="M2189,3001.144a1.882,1.882,0,0,1-3.764-.043,1.882,1.882,0,1,1,3.764.043Z" transform="translate(-60.703 -26.342)"/></g></svg>