<svg xmlns="http://www.w3.org/2000/svg" width="32.341" height="32.33" viewBox="0 0 32.341 32.33"><defs><style>.a{fill:#fff;}</style></defs><g transform="translate(-5412.892 -9303.674)"><g transform="translate(5421.347 9312.123)"><path class="a" d="M5463.07,9376.066c0-1.437,0-2.873,0-4.309a2,2,0,0,1,2.035-2.045q4.342,0,8.683,0a2,2,0,0,1,2.034,2.045q0,4.321,0,8.641a2,2,0,0,1-2.056,2.065q-4.331,0-8.661,0a2,2,0,0,1-2.034-2.025C5463.066,9378.982,5463.07,9377.524,5463.07,9376.066Zm1.369.023q0,2.07,0,4.142c0,.628.234.865.856.865h8.283c.643,0,.876-.231.876-.867v-8.263c0-.657-.226-.886-.877-.886h-8.3c-.583,0-.833.247-.833.825Q5464.437,9374,5464.438,9376.09Z" transform="translate(-5463.068 -9367.033)"/><path class="a" d="M5498.333,9360.111q0,2.218,0,4.436a.664.664,0,0,1-.481.66.692.692,0,0,1-.774-.276.751.751,0,0,1-.113-.457c0-2.755-.011-5.51.008-8.264.006-.8-.273-1.033-1.021-1.028-2.762.016-5.523.008-8.284.006a.679.679,0,0,1-.745-.755.667.667,0,0,1,.59-.609c.063-.006.125,0,.188,0q4.289,0,8.577,0a2,2,0,0,1,2.029,1.67,2.137,2.137,0,0,1,.026.4q0,2.112,0,4.226Z" transform="translate(-5482.9 -9353.818)"/></g><path class="a" d="M5444.985,9316.977a16.167,16.167,0,0,0-13.411-13.111,15.7,15.7,0,0,0-4.093-.1l-.116.012-.037,0c-.229.023-.46.05-.69.084a16.138,16.138,0,0,0-13.458,13.356c-.025.167-.04.338-.054.508-.033.242-.064.485-.09.729-.012.108.028.242-.124.292v.4c-.008.021-.013.041-.02.061.006.3.013.6.02.9v.759a.149.149,0,0,0,.016.011c0,.109.006.22.008.328a2.717,2.717,0,0,1,.146.424c.055.466.127.93.217,1.387,0,.026.01.052.015.075s.011.058.016.085h0c.008.039.015.077.023.116a16.167,16.167,0,0,0,2.519,5.689c.517.73,1.106.926,1.662.529.529-.379.572-1.014.086-1.7a13.967,13.967,0,0,1-2.281-5.414h0a14.466,14.466,0,0,1,.034-5.319,13.994,13.994,0,0,1,15.561-11.156c.165.024.331.048.5.079a14,14,0,0,1,.709,27.471,14.473,14.473,0,0,1-5.317.149l0,.014a13.938,13.938,0,0,1-5.468-2.164c-.7-.47-1.334-.414-1.7.125-.385.563-.177,1.148.565,1.648a16.122,16.122,0,0,0,5.744,2.395,5.642,5.642,0,0,0,.56.084q.514.081,1.035.133a2.677,2.677,0,0,1,.5.155h.347l0,0,.252,0h1.393c.03-.013.063-.022.094-.033l.374-.008c.046-.154.181-.117.289-.132q.293-.037.585-.082c.214-.02.428-.041.639-.076a16.14,16.14,0,0,0,13.059-13.746c0-.024,0-.048.008-.072A15.7,15.7,0,0,0,5444.985,9316.977Z" transform="translate(0)"/></g></svg>