<svg xmlns="http://www.w3.org/2000/svg" width="24.656" height="22.941" viewBox="0 0 24.656 22.941"><defs><style>.a{fill:#fff;stroke:#7a35ff;stroke-width:1.4px;}.b{fill:#7a35ff;}.c{fill:#7a25ff;}.d{stroke:none;}.e{fill:none;}</style></defs><g transform="translate(-36 -3575.698)"><g transform="translate(48.406 3586.658)"><g class="a" transform="translate(0 0)"><circle class="d" cx="5.991" cy="5.991" r="5.991"/><circle class="e" cx="5.991" cy="5.991" r="5.291"/></g><path class="b" d="M12.495,8l-.5-.5L10,9.494,8,7.5,7.5,8,9.494,10,7.5,11.992l.5.5L10,10.5l1.994,1.994.5-.5L10.5,10Z" transform="translate(-3.736 -3.561)"/></g><g transform="translate(36 3575.698)"><path class="c" d="M6818.839-5339.553h11.045c.263,0,.264,0,.264-.267,0-.6-.018-1.2,0-1.8a1.041,1.041,0,0,0-1.081-1.073c-.464.021-.928.006-1.393,0a.544.544,0,0,1-.551-.294.483.483,0,0,1,.381-.7,11.545,11.545,0,0,1,1.94.022,2,2,0,0,1,1.707,1.966c.005,2.316,0,4.632,0,6.948a.512.512,0,0,1-.479.55.506.506,0,0,1-.52-.491c-.018-.187-.011-.377-.011-.566q0-1.547,0-3.093c0-.213,0-.214-.218-.214h-22.187c-.229,0-.229,0-.229.233q0,6.6,0,13.2a1.041,1.041,0,0,0,1.133,1.127h6.2a.5.5,0,0,1,.567.489.494.494,0,0,1-.385.5,1.193,1.193,0,0,1-.257.025q-3.061,0-6.121,0a2.048,2.048,0,0,1-2.11-1.706,3.093,3.093,0,0,1-.04-.516q0-8.073,0-16.146a2.465,2.465,0,0,1,.229-1.211,1.974,1.974,0,0,1,1.785-1.12c.847-.019,1.694,0,2.542,0,.238,0,.238,0,.238-.245,0-.389,0-.777,0-1.166a.545.545,0,0,1,.3-.548.5.5,0,0,1,.707.473c0,.636,0,1.274,0,1.911,0,.48,0,.961,0,1.441a.515.515,0,0,1-.481.562.513.513,0,0,1-.523-.524c-.013-.237-.009-.475,0-.712,0-.131-.044-.181-.178-.181-.87,0-1.738,0-2.608.005a1,1,0,0,0-1,.99c-.011.663,0,1.327-.006,1.991,0,.165.1.147.2.147h11.125Z" transform="translate(-6806.503 5345.705)"/><path class="c" d="M6913.394-5343.691h5.764c.212,0,.215,0,.215-.218,0-.366,0-.733,0-1.1,0-.059,0-.119.006-.178a.51.51,0,0,1,.536-.509.5.5,0,0,1,.468.556q0,1.667,0,3.335a.512.512,0,0,1-.468.542.5.5,0,0,1-.529-.479c-.021-.235-.01-.474-.012-.712,0-.22-.005-.225-.229-.225h-11.429c-.342,0-.529-.105-.617-.343a.5.5,0,0,1,.484-.666c.577-.006,1.154,0,1.732,0Z" transform="translate(-6900.521 5345.698)"/><path class="c" d="M6851.585-5211.372c.588,0,1.177,0,1.766,0a.488.488,0,0,1,.489.352.492.492,0,0,1-.179.548.668.668,0,0,1-.415.109h-2.72c-.224,0-.224,0-.224.226,0,.939,0,1.878,0,2.817a.5.5,0,0,1-.434.506.5.5,0,0,1-.529-.314.785.785,0,0,1-.046-.286c0-1.118,0-2.235,0-3.353,0-.416.2-.606.625-.606h1.667Z" transform="translate(-6846.505 5220.117)"/><path class="c" d="M6941.152-5211.376c.588,0,1.177,0,1.765,0a.487.487,0,0,1,.488.353.49.49,0,0,1-.18.547.668.668,0,0,1-.415.109h-2.721c-.223,0-.224,0-.224.226v2.8a.492.492,0,0,1-.3.479.474.474,0,0,1-.541-.089.53.53,0,0,1-.171-.423c0-1.145-.006-2.288,0-3.434a.521.521,0,0,1,.592-.572h1.7Z" transform="translate(-6930.241 5220.121)"/><path class="c" d="M6851.6-5116.829c.587,0,1.176,0,1.765,0a.488.488,0,0,1,.486.355.493.493,0,0,1-.183.547.684.684,0,0,1-.416.106h-2.688c-.251,0-.252,0-.252.245q0,1.393,0,2.785a.489.489,0,0,1-.314.483.476.476,0,0,1-.537-.11.537.537,0,0,1-.156-.412c0-1.145-.006-2.289,0-3.434a.517.517,0,0,1,.594-.568C6850.461-5116.831,6851.028-5116.83,6851.6-5116.829Z" transform="translate(-6846.51 5131.729)"/></g></g></svg>