<svg xmlns="http://www.w3.org/2000/svg" width="48.397" height="86.788" viewBox="0 0 48.397 86.788"><defs><style>.a{fill:#cfcfcf;stroke:#cfcfcf;stroke-miterlimit:10;}</style></defs><g transform="translate(-4108.379 -995.746)"><g transform="translate(4108.882 996.249)"><path class="a" d="M4108.932,1040.525c0-3.625.159-7.259-.042-10.873a6.059,6.059,0,0,1,8.448-5.746c.9.373,1.293.376,1.812-.61a7,7,0,0,1,9.258-2.764c.637.329.871.26,1.18-.374,1.037-2.135,2.125-4.247,3.225-6.351a2.2,2.2,0,0,0,.151-1.793c-.857-2.774-1.715-5.55-2.5-8.346a5.645,5.645,0,0,1,1.9-6.227,5.722,5.722,0,0,1,7.857.832c.422.472.691.524,1.229.182a5.591,5.591,0,0,1,6.728.234,5.841,5.841,0,0,1,1.8,6.281c-.709,2.3-1.44,4.591-2.252,6.854a3.154,3.154,0,0,0,.154,2.583c2.272,4.971,4.5,9.962,6.737,14.952a19.3,19.3,0,0,1,1.643,7.923q.015,6.516.021,13.031a17.419,17.419,0,0,1-4.2,12.012,8.547,8.547,0,0,0-2.237,6.273c.086,1.807-.014,3.62-.092,5.432-.183,4.3-2.528,6.986-6.8,7.637a29.672,29.672,0,0,1-4.477.361c-4.125,0-8.25.028-12.375-.02a18.72,18.72,0,0,1-5.277-.677,7.009,7.009,0,0,1-5.341-6.588,52.155,52.155,0,0,1-.14-6.273,8.666,8.666,0,0,0-1.929-5.73,22.2,22.2,0,0,1-2.965-4.431,17.113,17.113,0,0,1-1.5-7c-.04-3.593-.011-7.187-.011-10.781Zm2.527-4.034-.164,0c0,4.435.03,8.871-.009,13.305a15.912,15.912,0,0,0,3.91,11.309,9.262,9.262,0,0,1,2.353,4.926c.129.929.507,1.127,1.382,1.124,8.091-.033,16.184-.02,24.274-.021,1.125,0,2.25-.012,3.374,0,.5.008.868-.12.938-.675a12.133,12.133,0,0,1,3.077-6.205,12.987,12.987,0,0,0,2.9-6.01,23.815,23.815,0,0,0,.285-4.573c-.049-3.122-.133-6.245-.1-9.366.01-.81-.164-1.019-.946-1.016q-9.044.036-18.089,0a3.348,3.348,0,0,0-3.257,2.089,4.281,4.281,0,0,0,3.206,6.244c2.219.376,4.475.355,6.711.559,1.367.125,2.74.179,4.106.308.768.072,1.349.468,1.263,1.321-.082.822-.65,1.16-1.464,1.089-.28-.024-.562-.038-.842-.058-1.463-.1-2.927-.188-4.387-.316a1.9,1.9,0,0,0-1.583.622,8.081,8.081,0,0,0-2.351,5.561,27.642,27.642,0,0,0,.146,5.33c.137,1.032-.243,1.618-.988,1.737s-1.311-.414-1.455-1.465c-.09-.648-.123-1.3-.168-1.958-.229-3.292-.009-6.5,1.825-9.391.409-.644.2-.74-.449-.816-3.721-.438-5.435-1.957-6.322-5.582a.676.676,0,0,0-.673-.613,6.343,6.343,0,0,1-2.816-.95c-.492-.329-.719-.2-1.032.25a6.833,6.833,0,0,1-4.633,2.9,5.194,5.194,0,0,1-5.908-3.475Q4112.51,1039.593,4111.459,1036.491Zm22.874-19.852-.234,0q-1.485,2.913-2.977,5.824a1.139,1.139,0,0,0,.065.982c1.4,4.172,2.819,8.34,4.168,12.529a1.135,1.135,0,0,0,1.292.973q8.011-.047,16.021,0c.888.006,1.143-.28,1.087-1.129a19.407,19.407,0,0,0-1.891-6.722q-5.654-12.553-11.339-25.094a22.2,22.2,0,0,0-1.9-3.861,3.355,3.355,0,0,0-3.979-1.239,3.056,3.056,0,0,0-1.981,3.354,6.917,6.917,0,0,0,.307,1.46q2.525,8.383,5.064,16.761c.841,2.779,1.672,5.56,2.52,8.336a1.267,1.267,0,0,1-.313,1.454,1.088,1.088,0,0,1-1.127.261,1.55,1.55,0,0,1-.941-1.195q-1.126-3.72-2.251-7.438Q4135.13,1019.27,4134.333,1016.639Zm-1.758,52.992c-4.562,0-9.123.014-13.684-.013-.812,0-1.127.261-1.084,1.083.059,1.153-.008,2.313.054,3.466.15,2.867,1.479,4.406,4.278,5.005a14.428,14.428,0,0,0,2.97.343c3.781.01,7.562.023,11.341.013a45.7,45.7,0,0,0,5.8-.2c3.084-.4,4.477-1.7,5-4.76.211-1.244.035-2.5.135-3.739.078-.958-.275-1.233-1.218-1.224C4141.635,1069.651,4137.106,1069.628,4132.576,1069.631Zm-7.231-47.4c-3.015,0-5.194,2.422-4.382,5.01,1.242,3.961,2.6,7.887,3.923,11.822a3.475,3.475,0,0,0,2.6,2.341c.729.184,1.283.109,1.607-.775a5.326,5.326,0,0,1,3.165-3.265c.808-.3.823-.683.578-1.4-1.254-3.663-2.456-7.343-3.684-11.014A3.712,3.712,0,0,0,4125.344,1022.227Zm-6.742,21.518c2.834,0,4.511-2.187,3.654-4.845-1.118-3.478-2.28-6.941-3.444-10.4a4.034,4.034,0,0,0-3.854-2.6c-2.754.1-3.932,1.772-3.062,4.335q1.96,5.767,3.918,11.533A2.511,2.511,0,0,0,4118.6,1043.745Zm27.094-34.208.259.016c.59-1.861,1.275-3.7,1.742-5.588a3.1,3.1,0,0,0-1.458-3.629,3.33,3.33,0,0,0-3.685.277c-.365.292-.629.595-.395,1.11Q4143.937,1005.627,4145.7,1009.538Z" transform="translate(-4108.882 -996.249)"/></g></g></svg>