<svg xmlns="http://www.w3.org/2000/svg" width="18.947" height="20" viewBox="0 0 18.947 20"><defs><style>.a{fill:none;}.b{fill:#5bf;}</style></defs><g transform="translate(-4.5 -3)"><path class="a" d="M19.816,9.158A3.158,3.158,0,1,1,16.658,6a3.158,3.158,0,0,1,3.158,3.158Z" transform="translate(-2.684 -0.895)"/><path class="b" d="M13.974,3a5.263,5.263,0,1,0,5.263,5.263A5.269,5.269,0,0,0,13.974,3Zm0,8.421a3.158,3.158,0,1,1,3.158-3.158A3.162,3.162,0,0,1,13.974,11.421ZM23.447,23V21.947a7.378,7.378,0,0,0-7.368-7.368H11.868A7.377,7.377,0,0,0,4.5,21.947V23H6.605V21.947a5.269,5.269,0,0,1,5.263-5.263h4.211a5.269,5.269,0,0,1,5.263,5.263V23Z"/></g></svg>