<svg id="Layer_1" data-name="Layer 1" xmlns="http://www.w3.org/2000/svg" viewBox="0 0 100 100"><defs><style>.cls-1{fill:#55BBFF;}.cls-2{fill:#fdfdfd;}</style></defs><path class="cls-1" d="M93.16,50.09c0-5.67,0-11.34,0-17a13,13,0,0,0-6.78-11.95c-10-5.78-19.94-11.57-29.95-17.28a12.49,12.49,0,0,0-13,0Q28.21,12.48,13.12,21.31A12.28,12.28,0,0,0,6.71,32.62c0,11.54,0,23.07,0,34.61a12.41,12.41,0,0,0,6.45,11.49q15.08,8.84,30.28,17.47a12.53,12.53,0,0,0,13.2-.14q14.9-8.56,29.77-17.19a12.84,12.84,0,0,0,6.75-11.75C93.2,61.44,93.16,55.76,93.16,50.09Z"/><path class="cls-2" d="M73.13,33.73H26.74a4,4,0,0,0-3.1,1.55,6.07,6.07,0,0,0-1.13,2.39v9.76a2,2,0,0,1,.08.22c.71,2.48,2.18,3.71,4.47,3.71h9.76l2,4.21c1.34,2.82,2.68,5.65,4.05,8.46a3.66,3.66,0,0,0,3.36,2.23q12.24,0,24.48,0a2.34,2.34,0,0,0,2.24-3c-.18-.6,0-.65.52-.66a2.31,2.31,0,0,0,2.27-2.33,3.38,3.38,0,0,0-.43-1.56l-3.53-7.4h1.37a4.57,4.57,0,0,0,4.18-4.74q0-4.06,0-8.11C77.33,35.88,75.43,33.73,73.13,33.73Zm-17.28,2a16.94,16.94,0,0,1,2,1.17,6.21,6.21,0,0,1,1.75,1.75,1.68,1.68,0,0,1-.48,2.55,7.19,7.19,0,0,1-3.3,1.24A19.42,19.42,0,0,1,43,39.91a6.74,6.74,0,0,1-2.34-2.1,1.68,1.68,0,0,1-.13-2.08H55.85Zm5,6.47c.39-.37.43,0,.53.21,1.07,2.23,2.13,4.45,3.19,6.68l1.31,2.76c.13.27.17.46-.13.66a4.69,4.69,0,0,0-2.27,4.06c0,.47-.19.61-.64.6q-3.62,0-7.23,0a.89.89,0,0,1-.8-.41,12.14,12.14,0,0,0-7.24-4.88.62.62,0,0,1-.49-.32l-4.5-9.43.1-.1a23.49,23.49,0,0,0,2.51,1.13,21.28,21.28,0,0,0,11.55,1A7.92,7.92,0,0,0,60.89,42.2Zm-28.1,7.13H30.63c-1.18,0-2.35,0-3.53,0-1.78,0-2.83-1.2-2.84-3.22,0-2.39,0-4.79,0-7.18,0-2,1.06-3.16,2.76-3.19.55,0,1.11,0,1.66,0h.7L30,37c.11.21.21.43.31.64h0l.06.14c.11.23.22.46.34.69a1.65,1.65,0,0,1,.09.21l1.27,2.67a.83.83,0,0,1,.09.16c.4.92.86,1.81,1.29,2.71.8,1.7,1.61,3.39,2.42,5.09ZM70.12,64.4c-.73,0-1.47,0-2.2,0H58.36c-3.77,0-7.54,0-11.31,0a2.66,2.66,0,0,1-2.72-1.75c-2-4.36-4.12-8.68-6.19-13L31.51,35.73h.42a1.87,1.87,0,0,1,.63,0h.91l4.86,10.18Q41.71,53,45.08,60.1a4.13,4.13,0,0,0,4.07,2.57c6.94,0,13.88,0,20.81,0a.83.83,0,0,1,.94.59C71.15,63.94,70.89,64.38,70.12,64.4Zm3.43-4.92c.39.85.1,1.3-.83,1.3H60.9c-3.85,0-7.69,0-11.54,0a2.6,2.6,0,0,1-2.63-1.63Q41.18,47.45,35.59,35.73h1.87q4,8.35,7.92,16.7a2.18,2.18,0,0,0,1.76,1.34A9.72,9.72,0,0,1,53.5,58.2a1.64,1.64,0,0,0,1.52.85c3.24,0,6.48,0,9.72,0,1,0,1.15-.18.88-1.13a3.89,3.89,0,0,1,0-2.29,2.79,2.79,0,0,1,2.2-1.89c.82-.19.93-.42.57-1.18l-8-16.82h1.87q5.2,11,10.42,21.92C73,58.26,73.26,58.86,73.55,59.48Zm-1-10.15c-.59,0-1.18,0-1.77,0L67.8,43l-2.1-4.39,0,0-1.34-2.82h8.33c1.88,0,2.9,1.18,2.91,3.34V46C75.57,48.19,74.57,49.33,72.6,49.33Z"/></svg>