<svg xmlns="http://www.w3.org/2000/svg" width="30" height="30" viewBox="0 0 30 30"><defs><style>.a{fill:#fd7777;}</style></defs><path class="a" d="M65.27,78a15,15,0,1,1,15-15A15.017,15.017,0,0,1,65.27,78Zm0-27.823A12.823,12.823,0,1,0,78.093,63,12.838,12.838,0,0,0,65.27,50.177Z" transform="translate(-50.27 -48)"/><path class="a" d="M169.632,170.8a1.088,1.088,0,0,1-.77-.319l-12.468-12.469a1.088,1.088,0,1,1,1.539-1.539L170.4,168.943a1.088,1.088,0,0,1-.77,1.857Z" transform="translate(-148.398 -148.308)"/><path class="a" d="M157.17,170.8a1.088,1.088,0,0,1-.769-1.858l12.468-12.469a1.088,1.088,0,1,1,1.54,1.539L157.94,170.481A1.088,1.088,0,0,1,157.17,170.8Z" transform="translate(-148.405 -148.306)"/></svg>