<svg xmlns="http://www.w3.org/2000/svg" width="73.162" height="51.932" viewBox="0 0 73.162 51.932"><defs><style>.a{fill:#cfcfcf;}</style></defs><g transform="translate(-6226.552 663.079)"><path class="a" d="M6251.366-647.15a.636.636,0,0,0-.239-.331q-5.273-5.268-10.551-10.532a2.558,2.558,0,0,1-.743-2.81,2.524,2.524,0,0,1,2.292-1.789,2.553,2.553,0,0,1,2.123.816q4.9,4.9,9.794,9.795,18.14,18.139,36.285,36.272a3.011,3.011,0,0,1,1.141,2.362,2.507,2.507,0,0,1-1.673,2.335,2.441,2.441,0,0,1-2.747-.524q-2.392-2.345-4.738-4.737a.8.8,0,0,0-.85-.254,22.974,22.974,0,0,1-21.205-5.479,22.239,22.239,0,0,1-6.121-9.016.609.609,0,0,0-.682-.459q-9.464.018-18.929.006a7.613,7.613,0,0,1-7-4.088,7.85,7.85,0,0,1,5.654-11.486,9.229,9.229,0,0,1,1.294-.081h16.892ZM6277-621.263l-19.129-19.129C6257.245-628.3,6267.731-620.323,6277-621.263Zm-33.609-20.63q-4.305,0-8.61,0a4.769,4.769,0,0,0-.888.083,2.526,2.526,0,0,0-1.992,2.827,2.551,2.551,0,0,0,2.707,2.232q8.813.01,17.627.009c.359,0,.482-.1.447-.465a22.7,22.7,0,0,1-.012-4.134c.047-.547.027-.55-.546-.55Z" transform="translate(0 -0.322)"/><path class="a" d="M6352.52-663.078a23.011,23.011,0,0,1,15.059,5.351,22.534,22.534,0,0,1,8.153,13.968,23.009,23.009,0,0,1-5.985,20.173,3.854,3.854,0,0,1-1.763,1.316,2.641,2.641,0,0,1-2.945-1.1,2.606,2.606,0,0,1,.271-3.227c.548-.6,1.105-1.189,1.6-1.833a17.631,17.631,0,0,0,3.64-8.613,17.938,17.938,0,0,0-4.328-14.633,17.522,17.522,0,0,0-11.232-6.111,17.994,17.994,0,0,0-15.265,4.9,7.186,7.186,0,0,0-.557.643,2.639,2.639,0,0,1-3.836.215,2.6,2.6,0,0,1,.02-3.832c1-.863,1.953-1.792,3.026-2.579a23.529,23.529,0,0,1,11.22-4.478A22.669,22.669,0,0,1,6352.52-663.078Z" transform="translate(-76.394 0)"/></g></svg>