<svg xmlns="http://www.w3.org/2000/svg" width="12.487" height="12.487" viewBox="0 0 12.487 12.487"><defs><style>.a{fill:none;stroke:#7a35ff;stroke-linecap:round;stroke-linejoin:round;}</style></defs><g transform="translate(0.5 0.5)"><path class="a" d="M14.649,13.5h5.169a1.149,1.149,0,0,1,1.149,1.149v5.169a1.149,1.149,0,0,1-1.149,1.149H14.649A1.149,1.149,0,0,1,13.5,19.818V14.649A1.149,1.149,0,0,1,14.649,13.5Z" transform="translate(-9.48 -9.48)"/><path class="a" d="M4.723,10.466H4.149A1.149,1.149,0,0,1,3,9.318V4.149A1.149,1.149,0,0,1,4.149,3H9.318a1.149,1.149,0,0,1,1.149,1.149v.574" transform="translate(-3 -3)"/></g></svg>