<svg xmlns="http://www.w3.org/2000/svg" width="51.719" height="51.719" viewBox="0 0 51.719 51.719"><defs><style>.a{fill:#5bf;}</style></defs><g transform="translate(-2.862 17.138)"><g transform="translate(2.862 -17.138)"><path class="a" d="M27.859,2A25.859,25.859,0,1,0,53.719,27.859,25.88,25.88,0,0,0,27.859,2Zm0,47.409A21.549,21.549,0,1,1,49.409,27.859,21.557,21.557,0,0,1,27.859,49.409Z" transform="translate(-2 -2)"/><path class="a" d="M9.655,6.85A2.134,2.134,0,0,0,7.5,9V23.659a2.155,2.155,0,0,0,4.31,0V9A2.161,2.161,0,0,0,9.655,6.85Z" transform="translate(16.204 14.053)"/><path class="a" d="M9.7,4.8A2.3,2.3,0,0,0,7.5,7.045v.345A2.079,2.079,0,0,0,9.612,9.458h.043A2.251,2.251,0,0,0,11.81,7.3V6.829A1.969,1.969,0,0,0,9.7,4.8Z" transform="translate(16.204 7.264)"/></g></g></svg>