<svg xmlns="http://www.w3.org/2000/svg" width="38.329" height="41.054" viewBox="0 0 38.329 41.054"><defs><style>.a{fill:#7a23ff;}</style></defs><g transform="translate(-995 -2924.175)"><g transform="translate(-4894.854 8118.157)"><path class="a" d="M5970.092-5152.929h-14.11a2.071,2.071,0,0,1-2.288-2.27c0-.371-.009-.741,0-1.112a.68.68,0,0,1,.683-.72.678.678,0,0,1,.679.725c.012.37,0,.741,0,1.111,0,.67.223.9.9.9q6.52,0,13.041,0h15.179c.783,0,.985-.2.985-.984q0-13.661.009-27.322c0-.363-.1-.439-.446-.437-2.309.017-4.618.009-6.927.009a2.064,2.064,0,0,1-2.213-2.216c0-2.323-.008-4.646.007-6.969,0-.314-.068-.4-.395-.4q-9.642.015-19.284.007c-.613,0-.853.24-.854.854q0,3.228,0,6.456a.953.953,0,0,1-.111.577.642.642,0,0,1-.74.295.647.647,0,0,1-.513-.655c-.009-.584,0-1.168,0-1.752q0-2.459,0-4.917a2.057,2.057,0,0,1,2.2-2.225q10.134,0,20.267-.005a.9.9,0,0,1,.684.275q4.729,4.734,9.466,9.46a.753.753,0,0,1,.234.57q-.012,14.2-.016,28.392a2.091,2.091,0,0,1-2.372,2.354Zm6.856-38.607c0,2.094,0,4.173,0,6.251,0,.664.229.888.9.888q2.949,0,5.9,0c.115,0,.253.062.317-.019Z" transform="translate(-58.365 0)"/><path class="a" d="M5889.855-5050.378q0-2.031,0-4.061c0-.673.225-.92.895-.888.4.019.488-.106.482-.49-.023-1.438-.013-2.878-.008-4.317a6.183,6.183,0,0,1,5.714-6.141,6.157,6.157,0,0,1,6.526,5.263,28.35,28.35,0,0,1,.071,3.415c.016.641.013,1.283,0,1.924-.006.246.037.344.319.345.914,0,1.053.158,1.053,1.074q0,3.783,0,7.566a4.8,4.8,0,0,1-5.053,5.035q-2.544.005-5.087,0a4.789,4.789,0,0,1-4.91-4.876C5889.85-5047.813,5889.855-5049.1,5889.855-5050.378Zm7.752-3.6-4,.022c-.683,0-1.365.006-2.047-.019-.291-.011-.347.092-.346.359.009,2.4-.015,4.807.013,7.21a3.289,3.289,0,0,0,1.777,2.958,3.956,3.956,0,0,0,2.313.412c1.665,0,3.33.04,4.993-.008a3.373,3.373,0,0,0,3.21-3.312c.02-2.418,0-4.837.011-7.256,0-.284-.089-.357-.364-.355-1.095.009-2.19,0-3.285-.01-.316-.211-.553-.47-.417-.882s.464-.492.855-.481c.512.014,1.026-.008,1.538.008.242.009.313-.062.312-.308-.011-1.509.01-3.021-.01-4.531a4.789,4.789,0,0,0-4.784-4.742,4.788,4.788,0,0,0-4.785,4.742c-.02,1.5,0,2.993-.012,4.489,0,.282.079.353.355.351,1.411-.014,2.822,0,4.232-.01.389,0,.719.073.854.483S5897.925-5054.187,5897.607-5053.978Z" transform="translate(0 -116.747)"/><path class="a" d="M6088.979-5017h-6.62c-.58,0-.894-.237-.9-.675s.308-.692.881-.692h13.155c.114,0,.229-.006.342,0a.686.686,0,0,1,.668.692.689.689,0,0,1-.69.672c-.085.006-.17,0-.256,0Z" transform="translate(-175.18 -160.554)"/><path class="a" d="M6088.979-4986.459q3.31,0,6.62,0a1.045,1.045,0,0,1,.5.063.645.645,0,0,1,.392.732.672.672,0,0,1-.737.571h-13.282c-.114,0-.229.005-.341,0a.68.68,0,0,1-.671-.687.669.669,0,0,1,.686-.671c.74-.016,1.48-.006,2.22-.007Z" transform="translate(-175.183 -189.732)"/><path class="a" d="M6032.724-5114.164c2.107,0,4.213,0,6.32,0a.754.754,0,0,1,.822.47c.176.468-.182.9-.756.9-1.68,0-3.359,0-5.039,0q-3.823,0-7.644,0a.838.838,0,0,1-.7-.229.638.638,0,0,1-.123-.714.7.7,0,0,1,.719-.427q2.071,0,4.143,0Z" transform="translate(-124.056 -72.973)"/><path class="a" d="M6085.894-4953.132c-1.194,0-2.39,0-3.584,0-.538,0-.848-.256-.847-.685s.311-.681.85-.682q3.606,0,7.211,0c.509,0,.813.25.825.663s-.3.7-.828.7C6088.313-4953.129,6087.1-4953.132,6085.894-4953.132Z" transform="translate(-175.185 -218.954)"/><path class="a" d="M6085.593-4842.772q1.6,0,3.2,0c.537,0,.849.251.855.678s-.3.689-.841.689q-3.244,0-6.487,0c-.564,0-.887-.262-.877-.7s.322-.669.863-.669C6083.4-4842.774,6084.5-4842.772,6085.593-4842.772Z" transform="translate(-175.167 -321.103)"/><path class="a" d="M6085.564-4809.467c-1.094,0-2.19,0-3.285,0-.51,0-.81-.253-.819-.669s.3-.7.792-.7q3.329-.005,6.656,0a.687.687,0,0,1,.707.443.637.637,0,0,1-.143.708.776.776,0,0,1-.623.218C6087.755-4809.469,6086.66-4809.467,6085.564-4809.467Z" transform="translate(-175.183 -350.304)"/><path class="a" d="M5962.174-4879.265a1.383,1.383,0,0,0-.41-1.255,1.286,1.286,0,0,1,.208-1.829,1.355,1.355,0,0,1,1.823.056,1.285,1.285,0,0,1,.1,1.837,1.183,1.183,0,0,0-.362,1.017,8.048,8.048,0,0,1,0,.9.671.671,0,0,1-.7.657.67.67,0,0,1-.658-.652C5962.161-4878.78,5962.174-4879.023,5962.174-4879.265Z" transform="translate(-65.476 -284.623)"/><path class="a" d="M5955.073-5030.871c0,.854,0,1.71,0,2.565,0,.5-.266.8-.685.8s-.682-.3-.683-.806q-.005-2.585,0-5.173c0-.5.27-.808.685-.807s.68.308.682.812C5955.078-5032.61,5955.073-5031.74,5955.073-5030.871Z" transform="translate(-58.376 -146.003)"/><path class="a" d="M6209.193-4857.106q0-.708,0-1.416a1.078,1.078,0,0,0-.564-.994q-1.244-.722-2.491-1.438a1.042,1.042,0,0,0-1.086,0q-1.263.721-2.519,1.455a1.023,1.023,0,0,0-.534.941c0,.96,0,1.919,0,2.88a1.035,1.035,0,0,0,.537.956q1.255.734,2.52,1.454a1.044,1.044,0,0,0,1.1-.012q1.24-.713,2.478-1.43a1.07,1.07,0,0,0,.562-.979C6209.2-4856.163,6209.193-4856.635,6209.193-4857.106Z" transform="translate(-285.388 -304.34)"/></g></g></svg>