<svg xmlns="http://www.w3.org/2000/svg" width="20.438" height="20.396" viewBox="0 0 20.438 20.396"><defs><style>.a{fill:#5bf;stroke:#5bf;stroke-width:0.4px;}</style></defs><g transform="translate(4815.147 208.446)"><path class="a" d="M-4795.289-184.19a10.412,10.412,0,0,1-5.771,6.413c-.312.134-.626.263-.939.394a10.3,10.3,0,0,1-7.148-.57,10.122,10.122,0,0,1-5.657-10.7c.029-.2.023-.407.035-.61a11.913,11.913,0,0,1,1.929-4.177c.39-.461.679-1.462,1.433-.921.8.578-.18,1.018-.48,1.425a9.25,9.25,0,0,0-1.971,5.653,2.325,2.325,0,0,0,.056,1.029,5.684,5.684,0,0,0,.456,2.076l.2.555a5.045,5.045,0,0,0,.98,1.726,1.127,1.127,0,0,0,.418.558,4.158,4.158,0,0,0,1.23,1.222,2.062,2.062,0,0,0,.738.556,4.9,4.9,0,0,0,1.732.878l.711.255a6.283,6.283,0,0,0,2.244.339,8.963,8.963,0,0,0,9.118-9.246,6.047,6.047,0,0,0-.338-2.279l-.226-.732a5.722,5.722,0,0,0-.865-1.751l-.388-.518c-.182-.554-.817-.789-.942-1.383.386-.9.817-.469,1.2-.019a10.2,10.2,0,0,1,2.388,9.059C-4795.194-184.7-4795.24-184.446-4795.289-184.19Z" transform="translate(0 -11.243)"/><path class="a" d="M-4770.007-206.285l.74.745c.186.327.335.661-.074.928-.37.24-.613-.03-.842-.262-.47-.478-.93-.967-1.534-1.6v5.525a.714.714,0,0,1-.564.561.528.528,0,0,1-.537-.607c0-.341-.02-.683-.03-1.024v-4.432c-.582.6-1.05,1.078-1.51,1.563-.26.273-.531.475-.928.288a.617.617,0,0,1,.049-.937q1.233-1.218,2.45-2.453c.379-.385.709-.31,1.063.045C-4771.163-207.381-4770.581-206.837-4770.007-206.285Z" transform="translate(-32.637 0)"/><circle class="a" cx="0.525" cy="0.525" r="0.525" transform="translate(-4805.451 -198.908)"/></g></svg>