<svg xmlns="http://www.w3.org/2000/svg" width="181.832" height="63.438" viewBox="0 0 181.832 63.438"><defs><style>.a{fill:#52b8a9;}.b{fill:#9e9ea2;}</style></defs><g transform="translate(-7414.123 5342.069)"><path class="a" d="M7462.332-5297.008a8.011,8.011,0,0,1-7.041-2.912c-2.231-2.4-4.642-4.647-6.979-6.953-3.055-3.017-5.158-3.072-8.186-.15-2.625,2.534-5.188,5.132-7.8,7.676a7.354,7.354,0,0,1-10.809.041c-1.617-1.608-3.293-3.165-4.827-4.847a8.9,8.9,0,0,1,.068-12.562c1.427-1.537,2.968-2.968,4.458-4.445,3.635-3.6,7.734-3.646,11.452-.054,2.559,2.474,5.049,5.017,7.586,7.512,2.936,2.892,4.927,2.864,7.917-.09,2.6-2.566,5.154-5.171,7.783-7.7a8.221,8.221,0,0,1,11.648.044c1.551,1.548,3.162,3.042,4.614,4.673,3.366,3.783,3.521,8.6.247,12.432-2.008,2.35-4.344,4.424-6.5,6.65C7464.889-5296.59,7463.545-5297.162,7462.332-5297.008Z" transform="translate(0 1.858)"/><path class="a" d="M7425.4-5295.908c6.744-.292,9.474-5.224,13.181-8.7,3.992-3.739,3.9-5.029,8.724-.033,1.452,1.508,3.05,2.884,4.436,4.451,2.347,2.658,5.149,4.3,8.756,4.264.3,1.044-.528,1.369-.982,1.828-2.883,2.913-5.921,5.684-8.689,8.7a10.12,10.12,0,0,1-15-.106C7432.756-5288.954,7429.292-5292.053,7425.4-5295.908Z" transform="translate(1.153 3.493)"/><path class="a" d="M7460.145-5325c-3.467-.076-6.255,1.786-8.71,4.438-2.041,2.206-4.316,4.2-6.354,6.41-1.641,1.775-2.959,1.641-4.547-.065-2.175-2.337-4.552-4.48-6.758-6.787a11.387,11.387,0,0,0-5.933-3.706c-1.689-.347-1.709-1.053-.6-2.145,3.312-3.269,6.509-6.661,9.952-9.783,3.324-3.017,8.328-3.333,11.538-.371C7452.8-5333.252,7456.387-5329,7460.145-5325Z" transform="translate(1.264 0.307)"/><path class="b" d="M7482.588-5303.121c0,5.556.019,11.111-.021,16.665-.006,1,.474,2.59-1.064,2.666-1.676.083-1.146-1.553-1.15-2.516-.035-11.292-.065-22.586-.007-33.879.038-7.5,5.606-13.036,13.18-13.168q6.038-.107,12.079.032a13.039,13.039,0,0,1,12.733,12.822c.051,3.095.021,6.192.008,9.289-.029,7.776-5.452,13.6-13.228,13.886-5.484.2-10.98.061-16.473.049-.895,0-2.089.091-2.136-1.139-.054-1.448,1.231-1.324,2.217-1.328,4.943-.017,9.885,0,14.828-.012,7.205-.01,11.424-3.405,12.344-10.438a35.572,35.572,0,0,0-.212-11.955,10.835,10.835,0,0,0-10.9-8.917c-3.751-.049-7.5-.073-11.255-.006a10.914,10.914,0,0,0-10.926,11.008C7482.545-5314.414,7482.588-5308.768,7482.588-5303.121Z" transform="translate(6.763 0.886)"/><path class="b" d="M7536.9-5333.572a12.188,12.188,0,0,1,10.191,4.074c2.742,2.931,5.706,5.657,8.583,8.462,2.835,2.764,3.539,2.773,6.3.075,3.136-3.063,6.291-6.106,9.379-9.217,3.046-3.067,6.835-3.607,10.885-3.366.768.044,1.489.232,1.569,1.181a1.077,1.077,0,0,1-1.355,1.272c-7.021-1.317-10.514,3.961-14.765,7.788-1.763,1.587-3.364,3.352-5.1,4.975-2.423,2.273-5.076,2.259-7.506-.039-3.248-3.074-6.569-6.083-9.652-9.315a9.822,9.822,0,0,0-8.548-3.4,19.493,19.493,0,0,1-2.471,0c-.8-.021-1.519-.3-1.561-1.191-.044-.908.671-1.24,1.459-1.287C7535.221-5333.613,7536.14-5333.572,7536.9-5333.572Z" transform="translate(12.139 0.865)"/><path class="b" d="M7580.564-5299.095a12.3,12.3,0,0,1-9.673-3.768c-3.073-3.116-6.224-6.158-9.374-9.194-2.189-2.11-3.106-2.121-5.294-.021q-5.032,4.83-9.977,9.754c-3.393,3.4-7.635,3.5-11.992,3.18-.723-.053-1.521-.319-1.382-1.316.1-.754.724-.982,1.407-1.042a2.015,2.015,0,0,1,.546-.017c6.052,1.128,9.968-2.3,13.7-6.258,2.063-2.186,4.257-4.254,6.445-6.321,2.751-2.6,5.11-2.559,7.888.084,2.905,2.766,5.931,5.425,8.649,8.362,2.732,2.954,5.833,4.587,9.915,4.111a5.652,5.652,0,0,1,.823,0c.765.024,1.521.1,1.57,1.1.06,1.16-.808,1.278-1.656,1.334C7581.52-5299.061,7580.879-5299.095,7580.564-5299.095Z" transform="translate(12.14 2.663)"/><path class="b" d="M7527.8-5313.312c0,4.546.01,9.093-.007,13.639,0,.962.263,2.338-1.127,2.371-1.553.042-1.377-1.435-1.381-2.47-.03-8.637-.01-17.275-.02-25.913,0-4.487-.913-5.272-5.5-5.422-1.356-.046-3.842,1.02-3.873-1.075-.038-2.356,2.548-1.321,3.961-1.35,5.52-.115,7.942,2.4,7.945,7.943Q7527.8-5319.451,7527.8-5313.312Z" transform="translate(10.406 0.853)"/><path class="a" d="M7525.939-5335.156c-.9.072-3.542-2.432-3.593-3.4-.045-.9,2.563-3.724,3.433-3.5a4.944,4.944,0,0,1,3.37,3.231C7529.479-5337.947,7526.967-5335.237,7525.939-5335.156Z" transform="translate(11.067)"/></g></svg>