<svg xmlns="http://www.w3.org/2000/svg" width="14" height="22.4" viewBox="0 0 14 22.4"><defs><style>.a{fill:#7a35ff;fill-rule:evenodd;}</style></defs><g transform="translate(-6.75)"><path class="a" d="M17.95,1.4H9.55a1.4,1.4,0,0,0-1.4,1.4V19.6A1.4,1.4,0,0,0,9.55,21h8.4a1.4,1.4,0,0,0,1.4-1.4V2.8A1.4,1.4,0,0,0,17.95,1.4ZM9.55,0a2.8,2.8,0,0,0-2.8,2.8V19.6a2.8,2.8,0,0,0,2.8,2.8h8.4a2.8,2.8,0,0,0,2.8-2.8V2.8A2.8,2.8,0,0,0,17.95,0Z"/><path class="a" d="M17.15,29.8a1.4,1.4,0,1,0-1.4-1.4A1.4,1.4,0,0,0,17.15,29.8Z" transform="translate(-3.4 -10.2)"/></g></svg>