<svg xmlns="http://www.w3.org/2000/svg" width="16.571" height="20" viewBox="0 0 16.571 20"><defs><style>.a{fill:#5bf;fill-rule:evenodd;}</style></defs><g transform="translate(-4.5 -1.5)"><path class="a" d="M19.773,13.091a3.683,3.683,0,1,1-3.683-3.683,3.683,3.683,0,0,1,3.683,3.683Zm-1.841,0a1.841,1.841,0,1,1-1.841-1.841,1.841,1.841,0,0,1,1.841,1.841Z" transform="translate(-3.054 -3.054)"/><path class="a" d="M7.072,15.786A8.286,8.286,0,1,1,18.786,15.5l-5.713,6Zm10.381-1.557L13.01,18.9,8.342,14.453a6.444,6.444,0,1,1,9.112-.223Z" transform="translate(0 0)"/></g></svg>