<svg xmlns="http://www.w3.org/2000/svg" width="18" height="18" viewBox="0 0 18 18"><defs><style>.a{fill:#7a35ff;}</style></defs><g transform="translate(-1998.684 -1294.97)"><path class="a" d="M2007.66,1312.969a20.071,20.071,0,0,1-6.129-.857,5.753,5.753,0,0,1-2.2-1.161,1.683,1.683,0,0,1,.162-2.769,7.345,7.345,0,0,1,2.342-1.117,16.284,16.284,0,0,1,2.778-.575c.281-.035.295-.062.152-.279-.633-.958-1.375-1.857-1.915-2.863a5.475,5.475,0,0,1-.158-5.617,5.371,5.371,0,0,1,4.206-2.71,5.577,5.577,0,0,1,6.315,4.08,5.754,5.754,0,0,1-.468,3.8,15.019,15.019,0,0,1-1.406,2.217c-1.038,1.524-2.089,3.041-3.135,4.56a1.429,1.429,0,0,1-.213.259.444.444,0,0,1-.646-.019,4.824,4.824,0,0,1-.628-.9.388.388,0,0,1,.171-.512.453.453,0,0,1,.592.071c.224.212.224.212.4-.036,1.177-1.71,2.359-3.418,3.529-5.132a5.622,5.622,0,0,0,1.007-3.241,4.53,4.53,0,0,0-4.189-4.31,4.69,4.69,0,0,0-5.21,3.625,5.3,5.3,0,0,0,.92,3.9c.66,1,1.355,1.975,2.034,2.961.4.585.278.843-.465.923a18.238,18.238,0,0,0-3.285.6,6.6,6.6,0,0,0-2.05.933,1.745,1.745,0,0,0-.272.242.8.8,0,0,0,.058,1.268,4.882,4.882,0,0,0,1.892,1,16.809,16.809,0,0,0,3.9.725,22.463,22.463,0,0,0,3.374.038,15.474,15.474,0,0,0,5.188-1.07,3.605,3.605,0,0,0,1.083-.676.826.826,0,0,0-.014-1.372,4.436,4.436,0,0,0-1.411-.8,11.754,11.754,0,0,0-1.556-.476c-.347-.084-.506-.327-.4-.586a.442.442,0,0,1,.52-.276,8.337,8.337,0,0,1,3.353,1.394,1.676,1.676,0,0,1,.136,2.77,4.781,4.781,0,0,1-1.405.857,14.059,14.059,0,0,1-3.411.9A22.538,22.538,0,0,1,2007.66,1312.969Z" transform="translate(0 0)"/><path class="a" d="M2130.536,1363.144a2.21,2.21,0,1,1,2.247,2.214A2.223,2.223,0,0,1,2130.536,1363.144Zm2.2,1.312a1.283,1.283,0,0,0,1.328-1.3,1.326,1.326,0,1,0-2.652,0A1.29,1.29,0,0,0,2132.74,1364.456Z" transform="translate(-125.06 -62.889)"/></g></svg>