<svg xmlns="http://www.w3.org/2000/svg" width="29.547" height="30.224" viewBox="0 0 29.547 30.224"><defs><style>.a{fill:#7a35ff;}</style></defs><g transform="translate(-1253.655 484)"><g transform="translate(1253.655 -484)"><path class="a" d="M1275.9-484a2.289,2.289,0,0,1,1.655,2.371c.053.946.032,1.9.058,2.844.009.323-.106.462-.438.432a4.792,4.792,0,0,0-.72,0c-.271.016-.362-.1-.36-.364.005-.869.006-1.738-.008-2.606-.019-1.142-.307-1.381-1.432-1.17-1.574.295-3.1.784-4.642,1.2q-5.34,1.452-10.667,2.95a9.539,9.539,0,0,0-2.755,1.283,1.288,1.288,0,0,0-.376.328c.115.056.2-.021.282-.05a4.141,4.141,0,0,1,1.41-.246q10.493.005,20.987,0a4.361,4.361,0,0,1,4.264,3.567,3.447,3.447,0,0,1,.038.614q0,7.527,0,15.054a3.936,3.936,0,0,1-3.277,3.95,4.385,4.385,0,0,1-.854.047c-7.1,0-14.2-.02-21.3.015a4.059,4.059,0,0,1-4.071-3.311,4.47,4.47,0,0,1-.046-.716q0-8.025.009-16.049a8.3,8.3,0,0,1,.168-1.6,4.345,4.345,0,0,1,2-2.876,13.87,13.87,0,0,1,4.022-1.7c4.453-1.208,8.9-2.443,13.35-3.663.439-.12.888-.207,1.333-.309Zm-7.512,28.73q5.349,0,10.7,0a2.461,2.461,0,0,0,2.632-2.606q.005-7.441,0-14.881a2.58,2.58,0,0,0-.049-.613,2.92,2.92,0,0,0-2.823-2.174q-10.441,0-20.882,0a2.9,2.9,0,0,0-2.827,2.82c-.006,4.938.014,9.875-.024,14.813a2.606,2.606,0,0,0,2.679,2.657C1261.328-455.3,1264.86-455.27,1268.392-455.27Z" transform="translate(-1253.655 484)"/><path class="a" d="M1584.554-237.356a1.8,1.8,0,0,1-1.79,1.786,1.821,1.821,0,0,1-1.8-1.787,1.83,1.83,0,0,1,1.818-1.808A1.812,1.812,0,0,1,1584.554-237.356Z" transform="translate(-1558.512 255.959)"/></g></g></svg>