<svg width="40" height="40" viewBox="0 0 40 40" fill="none" xmlns="http://www.w3.org/2000/svg">
<g clip-path="url(#clip0_102_2)">
<path d="M38.106 26.899L28.867 39.824V25.124L38.106 26.899Z" fill="#ED753E"/>
<path d="M8 0H32C36.4183 0 40 3.58172 40 8V22C40 26.4183 36.4183 30 32 30H8C3.58172 30 0 26.4183 0 22V8C0 3.58172 3.58172 0 8 0Z" fill="#FDA077"/>
<path d="M27.5685 8.9333C27.561 9.11273 27.515 9.28809 27.4332 9.44795C27.3514 9.6078 27.2356 9.74813 27.0943 9.85908C24.9077 11.9451 22.7236 14.0329 20.5416 16.1223C18.7256 17.8556 16.9091 19.5916 15.0924 21.3303C14.9704 21.4699 14.8184 21.58 14.6476 21.652C14.4767 21.7241 14.2917 21.7564 14.1066 21.7463C13.8961 21.7369 13.6936 21.6641 13.525 21.5378C13.3564 21.4115 13.2299 21.2376 13.1617 21.0383C13.0763 20.8331 13.0564 20.6062 13.1051 20.3894C13.1538 20.1725 13.2687 19.9763 13.4337 19.8273C14.265 19.022 15.1002 18.2216 15.9396 17.427C19.1396 14.3743 22.3397 11.3213 25.5397 8.26728C25.6933 8.07727 25.9019 7.93906 26.1368 7.87178C26.3718 7.8045 26.6217 7.81145 26.8526 7.89131C27.0639 7.97137 27.2457 8.11378 27.3736 8.3C27.5016 8.48622 27.5695 8.70736 27.5685 8.9333Z" fill="#FDFDFD"/>
<path d="M15.5847 13.9249C15.1077 13.9242 14.6356 13.8284 14.1961 13.6432C13.7565 13.4579 13.3583 13.1868 13.0247 12.8458C12.6911 12.5049 12.4288 12.1008 12.2532 11.6573C12.0775 11.2138 11.992 10.7397 12.0017 10.2628C12.0071 9.78902 12.1061 9.32088 12.2927 8.88537C12.4794 8.44985 12.7497 8.05537 13.0891 7.72472C13.4285 7.39407 13.83 7.13383 14.2703 6.95861C14.7105 6.78339 15.1808 6.69672 15.6546 6.70373C16.6161 6.71978 17.5322 7.1166 18.2019 7.80675C18.8716 8.49691 19.2406 9.42425 19.2278 10.3859C19.2068 11.3359 18.8127 12.2398 18.1311 12.902C17.4495 13.5641 16.535 13.9315 15.5847 13.9249ZM15.6047 8.92492C15.2377 8.93716 14.8893 9.09004 14.6316 9.35168C14.3739 9.61331 14.2262 9.96349 14.2195 10.3307C14.2331 10.6919 14.3832 11.0348 14.6389 11.2902C14.8947 11.5455 15.2377 11.695 15.5989 11.7081C15.9657 11.7003 16.3154 11.5519 16.5759 11.2936C16.8365 11.0353 16.9878 10.6867 16.9988 10.3199C16.9892 9.95333 16.8395 9.60435 16.5803 9.34484C16.3212 9.08533 15.9723 8.93503 15.6057 8.92492H15.6047Z" fill="#FDFDFD"/>
<path d="M28.6756 19.2022C28.6757 19.6777 28.5821 20.1486 28.4002 20.5879C28.2183 21.0272 27.9513 21.426 27.6151 21.7622C27.2788 22.0984 26.8796 22.3651 26.4402 22.5469C26.0009 22.7287 25.53 22.8221 25.0545 22.8218C24.579 22.8209 24.1086 22.7264 23.6697 22.5435C23.2309 22.3606 22.8323 22.0929 22.4969 21.7559C22.1615 21.4189 21.8959 21.0189 21.7151 20.5791C21.5344 20.1394 21.4422 19.6684 21.4437 19.1929C21.4502 18.2401 21.8315 17.3285 22.5052 16.6548C23.1789 15.9811 24.091 15.5994 25.0438 15.5928C25.5192 15.5912 25.9901 15.6833 26.43 15.8638C26.8699 16.0443 27.27 16.3099 27.6072 16.645C27.9445 16.9802 28.2125 17.3787 28.3958 17.8174C28.5791 18.2561 28.6742 18.7267 28.6756 19.2022ZM25.0535 17.8199C24.6859 17.8254 24.335 17.9754 24.077 18.2373C23.8189 18.4993 23.6746 18.8521 23.6746 19.2198C23.6823 19.5814 23.8296 19.9263 24.0858 20.1817C24.3419 20.4371 24.687 20.5832 25.0486 20.5899C25.4173 20.5915 25.7716 20.447 26.034 20.188C26.2964 19.929 26.4454 19.5767 26.4485 19.208C26.4443 18.8404 26.2955 18.489 26.0345 18.23C25.7735 17.9711 25.4212 17.825 25.0535 17.8238V17.8199Z" fill="#FDFDFD"/>
</g>
<defs>
<clipPath id="clip0_102_2">
<rect width="40" height="39.826" fill="white" transform="matrix(-1 0 0 1 40 0)"/>
</clipPath>
</defs>
</svg>
