<svg xmlns="http://www.w3.org/2000/svg" width="24.001" height="25.797" viewBox="0 0 24.001 25.797"><defs><style>.a{fill:#1fdad8;}.b{fill:#7a35ff;}.c{fill:#fff;}</style></defs><g transform="translate(-3416.882 9972.968)"><path class="a" d="M3416.882-9959.551v8.111a2.992,2.992,0,0,0,1.495,2.59l7.025,4.055a2.984,2.984,0,0,0,2.99,0l7.025-4.055a2.992,2.992,0,0,0,1.495-2.59v-8.111a2.992,2.992,0,0,0-1.495-2.59l-7.025-4.056a2.989,2.989,0,0,0-2.99,0l-7.025,4.056A2.992,2.992,0,0,0,3416.882-9959.551Z" transform="translate(0 -2.778)"/><g transform="translate(3418.01 -9972.968)"><path class="b" d="M3418.882-9964.922v9.266a3.41,3.41,0,0,0,1.707,2.955l8.022,4.633a3.416,3.416,0,0,0,3.414,0l8.022-4.633a3.411,3.411,0,0,0,1.708-2.955v-9.266a3.415,3.415,0,0,0-1.708-2.957l-8.022-4.632a3.411,3.411,0,0,0-3.414,0l-8.022,4.632A3.414,3.414,0,0,0,3418.882-9964.922Z" transform="translate(-3418.882 9972.969)"/><g transform="translate(5.138 6.204)"><path class="c" d="M3437.148-9952.973a.657.657,0,0,1,.843-.148l1.586.917a.648.648,0,0,1,.256.88.721.721,0,0,1-.057.086,6.58,6.58,0,0,1-5.2,2.429,6.58,6.58,0,0,1-6.579-6.579,6.58,6.58,0,0,1,6.579-6.58,6.588,6.588,0,0,1,5.2,2.426.676.676,0,0,1-.132.947.529.529,0,0,1-.066.045l-1.586.892a.654.654,0,0,1-.843-.148,3.286,3.286,0,0,0-2.578-1.142,3.372,3.372,0,0,0-3.42,3.57,3.384,3.384,0,0,0,3.2,3.563c.075,0,.15.006.225,0A3.218,3.218,0,0,0,3437.148-9952.973Z" transform="translate(-3427.991 9961.97)"/><path class="c" d="M3436.691-9951.584a1.672,1.672,0,0,1,1.685-1.659,1.672,1.672,0,0,1,1.66,1.685,1.671,1.671,0,0,1-1.684,1.659A1.683,1.683,0,0,1,3436.691-9951.584Z" transform="translate(-3431.784 9958.165)"/></g></g></g></svg>