<svg xmlns="http://www.w3.org/2000/svg" width="142.087" height="44.958" viewBox="0 0 142.087 44.958">
  <defs>
    <style>.a{fill:#fff;}.b{isolation:isolate;}</style>
  </defs>
  <g transform="translate(-3418.882 9903.188)">
    <path class="a" d="M3456.408-9894.164l-14.224-8.213a6.047,6.047,0,0,0-6.052,0l-14.224,8.213a6.05,6.05,0,0,0-3.026,5.241v16.428a6.053,6.053,0,0,0,3.026,5.241l14.224,8.212a6.047,6.047,0,0,0,6.052,0l14.224-8.212a6.052,6.052,0,0,0,3.027-5.241v-16.428A6.049,6.049,0,0,0,3456.408-9894.164Zm-7.422,20.847a1.089,1.089,0,0,1-.1.154,11.671,11.671,0,0,1-9.228,4.3,11.665,11.665,0,0,1-11.665-11.665,11.666,11.666,0,0,1,11.665-11.665,11.673,11.673,0,0,1,9.228,4.3,1.2,1.2,0,0,1-.234,1.681,1.332,1.332,0,0,1-.118.078l-2.812,1.581a1.161,1.161,0,0,1-1.494-.263,5.824,5.824,0,0,0-4.57-2.023c-3.736,0-6.064,2.857-6.064,6.328a6,6,0,0,0,5.666,6.316c.133.008.265.011.4.009a5.707,5.707,0,0,0,4.57-2.059,1.165,1.165,0,0,1,1.494-.263l2.812,1.626A1.148,1.148,0,0,1,3448.986-9873.317Zm-6.365-7.159a2.966,2.966,0,0,1-2.986,2.942,2.984,2.984,0,0,1-2.944-2.987,2.966,2.966,0,0,1,2.987-2.942A2.965,2.965,0,0,1,3442.621-9880.477Z"/>
    <g class="b">
      <path class="a" d="M3477.924-9877.309a.527.527,0,0,1,.68-.119l1.28.738a.522.522,0,0,1,.16.78,5.313,5.313,0,0,1-4.2,1.961,5.261,5.261,0,0,1-5.361-5.3,5.264,5.264,0,0,1,5.361-5.32,5.316,5.316,0,0,1,4.2,1.96.547.547,0,0,1-.16.8l-1.28.72a.528.528,0,0,1-.68-.12,2.651,2.651,0,0,0-2.08-.92,2.722,2.722,0,0,0-2.762,2.88,2.733,2.733,0,0,0,2.762,2.881A2.6,2.6,0,0,0,3477.924-9877.309Z"/>
      <path class="a" d="M3482.622-9888.191h1.121a.713.713,0,0,1,.7.721v12.563a.713.713,0,0,1-.7.72h-1.121a.717.717,0,0,1-.719-.72v-12.562A.717.717,0,0,1,3482.622-9888.191Z"/>
      <path class="a" d="M3486.762-9887.171a1.358,1.358,0,0,1,1.34-1.36,1.362,1.362,0,0,1,1.361,1.36,1.362,1.362,0,0,1-1.361,1.361A1.358,1.358,0,0,1,3486.762-9887.171Zm.08,12.263v-8.7a.719.719,0,0,1,.721-.721h1.1a.718.718,0,0,1,.72.721v8.7a.717.717,0,0,1-.72.72h-1.1A.718.718,0,0,1,3486.842-9874.908Z"/>
      <path class="a" d="M3500.984-9880.349v5.44a.718.718,0,0,1-.72.72h-1.1a.716.716,0,0,1-.719-.72v-4.922c0-1.3-.541-2.28-1.981-2.28a2.085,2.085,0,0,0-2.161,2.28v4.922a.713.713,0,0,1-.7.72h-1.12a.713.713,0,0,1-.7-.72v-8.7a.714.714,0,0,1,.7-.721h1.12a.713.713,0,0,1,.7.721v.52a3.377,3.377,0,0,1,2.961-1.479C3499.824-9884.57,3500.984-9882.51,3500.984-9880.349Z"/>
      <path class="a" d="M3511.684-9884.331h1.1a.718.718,0,0,1,.72.721v8.7a.717.717,0,0,1-.72.72h-1.1a.718.718,0,0,1-.721-.72v-.479a3.825,3.825,0,0,1-3.24,1.439,5.039,5.039,0,0,1-4.941-5.3,5.044,5.044,0,0,1,4.941-5.32,3.825,3.825,0,0,1,3.24,1.439v-.479A.719.719,0,0,1,3511.684-9884.331Zm-.82,5.081a2.682,2.682,0,0,0-2.741-2.88,2.694,2.694,0,0,0-2.741,2.88,2.7,2.7,0,0,0,2.741,2.881A2.693,2.693,0,0,0,3510.864-9879.25Z"/>
    </g>
    <g class="b">
      <path class="a" d="M3518.542-9875.409a1.474,1.474,0,0,1-1.461,1.481,1.477,1.477,0,0,1-1.479-1.481,1.476,1.476,0,0,1,1.479-1.479A1.472,1.472,0,0,1,3518.542-9875.409Z"/>
      <path class="a" d="M3527.483-9877.309a.527.527,0,0,1,.68-.119l1.281.738a.523.523,0,0,1,.16.78,5.315,5.315,0,0,1-4.2,1.961,5.262,5.262,0,0,1-5.362-5.3,5.265,5.265,0,0,1,5.362-5.32,5.318,5.318,0,0,1,4.2,1.96.548.548,0,0,1-.16.8l-1.281.72a.528.528,0,0,1-.68-.12,2.651,2.651,0,0,0-2.08-.92,2.721,2.721,0,0,0-2.761,2.88,2.733,2.733,0,0,0,2.761,2.881A2.6,2.6,0,0,0,3527.483-9877.309Z"/>
      <path class="a" d="M3539.563-9884.331h1.1a.717.717,0,0,1,.72.721v8.7a.717.717,0,0,1-.72.72h-1.1a.717.717,0,0,1-.72-.72v-.479a3.826,3.826,0,0,1-3.241,1.439,5.038,5.038,0,0,1-4.94-5.3,5.043,5.043,0,0,1,4.94-5.32,3.826,3.826,0,0,1,3.241,1.439v-.479A.718.718,0,0,1,3539.563-9884.331Zm-.82,5.081a2.682,2.682,0,0,0-2.741-2.88,2.693,2.693,0,0,0-2.74,2.88,2.7,2.7,0,0,0,2.74,2.881A2.693,2.693,0,0,0,3538.743-9879.25Z"/>
      <path class="a" d="M3549.1-9884.53a.53.53,0,0,1,.6.54v1.6a.538.538,0,0,1-.54.54c-2.5-.079-2.841,1.72-2.841,3.48v3.461a.713.713,0,0,1-.7.72H3544.5a.717.717,0,0,1-.719-.72v-8.7a.718.718,0,0,1,.719-.721h1.121a.714.714,0,0,1,.7.721v.92A4.08,4.08,0,0,1,3549.1-9884.53Z"/>
      <path class="a" d="M3560.963-9878.969a.709.709,0,0,1-.7.7H3553.4a2.781,2.781,0,0,0,2.88,2.06,3.089,3.089,0,0,0,2-.719.512.512,0,0,1,.62-.062l1.139.682a.539.539,0,0,1,.1.84,5.452,5.452,0,0,1-3.861,1.52c-3.361,0-5.581-2.221-5.581-5.3a5.14,5.14,0,0,1,5.181-5.32C3558.762-9884.57,3561.1-9882.55,3560.963-9878.969Zm-2.52-1.26a2.379,2.379,0,0,0-2.521-2.081,2.521,2.521,0,0,0-2.52,2.081Z"/>
    </g>
  </g>
</svg>
