<svg width="37" height="40" viewBox="0 0 37 40" fill="none" xmlns="http://www.w3.org/2000/svg">
<path d="M21.9187 1.03648C22.0834 1.13922 22.2545 1.23065 22.4253 1.32329C22.6445 1.44314 22.863 1.56287 23.0759 1.69332C23.3212 1.84355 23.5741 1.9804 23.8266 2.11874C24.0479 2.24022 24.2668 2.36457 24.4837 2.49327C24.637 2.58392 24.7925 2.67025 24.9491 2.75525C25.1629 2.87127 25.3728 2.99255 25.5818 3.11652C25.9133 3.31293 26.2514 3.49698 26.5917 3.67829C26.7751 3.7765 26.9554 3.87646 27.131 3.98741C27.3511 4.12635 27.5796 4.2486 27.8095 4.37113C28.0949 4.52328 28.375 4.68051 28.6511 4.84821C28.8327 4.95657 29.0187 5.05677 29.2049 5.15717C29.5385 5.33824 29.869 5.52354 30.1973 5.7136C30.4487 5.8584 30.7019 6.0002 30.9548 6.14246C30.9887 6.16155 30.9887 6.16155 31.0233 6.18103C31.2199 6.29154 31.4168 6.40114 31.6155 6.50798C32.0975 6.76719 32.0975 6.76719 32.3211 6.90442C32.544 7.0407 32.7731 7.16512 33.0031 7.28978C33.3743 7.49133 33.741 7.69885 34.1034 7.91528C34.1845 7.96366 34.2659 8.01161 34.3473 8.05954C34.5999 8.20946 34.8321 8.35973 35.0468 8.55971C35.0931 8.59853 35.1394 8.6372 35.1859 8.67575C36.2836 9.61967 36.8906 10.9048 36.9913 12.3241C37.0002 12.5192 36.9997 12.7143 36.9988 12.9095C36.999 12.9735 36.9991 13.0375 36.9993 13.1014C36.9998 13.2749 36.9996 13.4484 36.9992 13.6218C36.999 13.8098 36.9994 13.9978 36.9997 14.1858C37.0001 14.5531 37 14.9205 36.9997 15.2878C36.9995 15.5866 36.9994 15.8854 36.9996 16.1842C36.9996 16.2268 36.9996 16.2695 36.9996 16.3134C36.9996 16.4001 36.9997 16.4868 36.9997 16.5735C37 17.3848 36.9997 18.1961 36.9991 19.0073C36.9986 19.7022 36.9987 20.397 36.9992 21.0918C36.9998 21.9003 37 22.7089 36.9997 23.5174C36.9996 23.6038 36.9996 23.6901 36.9996 23.7765C36.9995 23.819 36.9995 23.8614 36.9995 23.9052C36.9994 24.2033 36.9996 24.5015 36.9998 24.7996C37.0001 25.1633 37 25.5271 36.9995 25.8908C36.9992 26.0761 36.9991 26.2613 36.9994 26.4466C36.9998 26.6167 36.9996 26.7868 36.999 26.9569C36.9989 27.018 36.9989 27.079 36.9992 27.14C37.0041 28.3622 36.6931 29.6976 35.8365 30.6302C35.7825 30.6958 35.7287 30.7615 35.675 30.8273C35.4481 31.0965 35.2025 31.3472 34.9032 31.5411C34.8796 31.5411 34.8559 31.5411 34.8315 31.5411C34.8315 31.5642 34.8315 31.5873 34.8315 31.6111C34.7571 31.6666 34.6831 31.7169 34.6049 31.7666C34.5808 31.7821 34.5567 31.7976 34.5318 31.8135C34.2914 31.9659 34.0438 32.1053 33.7948 32.2439C33.5622 32.3735 33.3322 32.5075 33.1022 32.6414C32.9087 32.7536 32.7132 32.8609 32.5153 32.9654C32.4085 33.022 32.303 33.0804 32.1977 33.1394C32.1551 33.1633 32.1125 33.1872 32.0699 33.211C32.0469 33.2239 32.0239 33.2368 32.0003 33.2501C31.9147 33.2979 31.829 33.3455 31.7432 33.393C31.4652 33.5474 31.1875 33.7016 30.9144 33.8642C30.622 34.0382 30.3212 34.1979 30.0208 34.3584C29.7785 34.4885 29.5419 34.625 29.307 34.7676C29.1432 34.8658 28.9758 34.9574 28.8078 35.0487C28.4729 35.2321 28.1406 35.4194 27.8092 35.6087C27.6206 35.7164 27.4318 35.8235 27.2419 35.9289C27.0403 36.0408 26.8405 36.1554 26.6408 36.2706C26.4318 36.3909 26.2212 36.5082 26.0103 36.6252C25.7669 36.7602 25.5263 36.8977 25.2899 37.0442C25.1915 37.102 25.0923 37.156 24.9913 37.2094C24.7786 37.3218 24.5699 37.4404 24.3614 37.5601C24.1113 37.7032 23.8609 37.8452 23.6076 37.9827C23.4061 38.0923 23.2092 38.2076 23.0133 38.3266C22.8353 38.4341 22.6549 38.5378 22.4746 38.6417C22.4415 38.6609 22.4084 38.6801 22.3742 38.6998C22.1961 38.8024 22.0169 38.9024 21.8358 38.9998C21.7473 39.0481 21.6613 39.1 21.575 39.1519C21.1299 39.4054 20.6554 39.6004 20.1607 39.7397C20.047 39.7701 20.047 39.7701 19.9585 39.8086C19.4549 39.9947 18.8938 39.9981 18.3624 39.9993C18.3349 39.9995 18.3073 39.9997 18.2789 39.9999C17.6985 40.0028 17.1505 39.9493 16.6215 39.7015C16.5839 39.6846 16.5463 39.6676 16.5075 39.6502C16.4306 39.6155 16.3539 39.5804 16.2774 39.545C16.1712 39.4958 16.0645 39.4478 15.9576 39.4001C15.6541 39.2636 15.3624 39.1215 15.0811 38.9446C14.8534 38.804 14.6143 38.6809 14.3783 38.5541C14.1655 38.4391 13.9592 38.3181 13.7549 38.1894C13.5704 38.0763 13.3796 37.9741 13.1891 37.871C13.1293 37.8385 13.1293 37.8385 13.0684 37.8053C12.8426 37.682 12.8426 37.682 12.6125 37.5667C12.6125 37.5436 12.6125 37.5204 12.6125 37.4966C12.5693 37.4848 12.5693 37.4848 12.5251 37.4727C12.3629 37.4142 12.2209 37.3341 12.0718 37.2492C12.0396 37.2311 12.0074 37.2129 11.9742 37.1942C11.6647 37.0195 11.3567 36.8422 11.0486 36.6652C10.7541 36.4961 10.4585 36.3293 10.1583 36.1699C10.0163 36.0943 9.87865 36.014 9.74194 35.9297C9.61962 35.8548 9.49522 35.7835 9.37074 35.7121C9.34402 35.6968 9.31731 35.6815 9.28979 35.6657C9.1152 35.5659 8.9391 35.4696 8.76094 35.376C8.58501 35.2826 8.41181 35.1845 8.23814 35.0871C8.15163 35.0388 8.06496 34.9908 7.97826 34.9428C7.41858 34.6325 7.41858 34.6325 7.18339 34.4882C6.92613 34.3313 6.66038 34.1896 6.39529 34.0458C6.10426 33.8874 5.81682 33.7239 5.53058 33.5575C5.31392 33.4318 5.09584 33.309 4.87524 33.1899C4.75072 33.1225 4.62807 33.0526 4.50613 32.9808C4.3279 32.8759 4.14743 32.7753 3.96631 32.6753C3.59026 32.4665 3.21875 32.2508 2.84908 32.0315C2.81293 32.0101 2.81293 32.0101 2.77606 31.9882C2.64439 31.91 2.51286 31.8315 2.38244 31.7513C2.34274 31.7271 2.30304 31.7029 2.26214 31.6779C2.23077 31.6559 2.19939 31.6338 2.16707 31.6111C2.16707 31.588 2.16707 31.5649 2.16707 31.5411C2.14727 31.5325 2.12746 31.5239 2.10706 31.5151C1.46598 31.177 0.991284 30.5091 0.659485 29.8945C0.637738 29.8557 0.615991 29.8169 0.593585 29.7769C0.0991096 28.8622 0.00772428 27.864 0.00833559 26.8461C0.00824264 26.7834 0.00813336 26.7208 0.00801134 26.6582C0.00772397 26.4874 0.00765894 26.3166 0.00763232 26.1458C0.0075655 25.961 0.00729518 25.7763 0.00705394 25.5916C0.00656803 25.1883 0.00634905 24.785 0.00619074 24.3816C0.00609133 24.1295 0.00594024 23.8773 0.00577886 23.6252C0.00534147 22.9261 0.00497156 22.2271 0.00484994 21.528C0.00484206 21.4833 0.00483396 21.4387 0.00482584 21.3926C0.00481801 21.3479 0.00480981 21.3031 0.00480174 21.257C0.00478582 21.1662 0.00476968 21.0755 0.00475354 20.9848C0.0047456 20.9398 0.00473763 20.8948 0.00472944 20.8484C0.00458777 20.1195 0.00396164 19.3906 0.00312574 18.6617C0.00227311 17.9121 0.00182673 17.1625 0.00178494 16.4128C0.00175212 15.9925 0.001547 15.5721 0.000893261 15.1517C0.000338509 14.7937 0.000157563 14.4358 0.0004529 14.0778C0.000592429 13.8954 0.000563534 13.7131 5.63556e-05 13.5307C-0.00472109 11.7053 0.292321 10.1981 1.62865 8.83997C1.64772 8.82051 1.66679 8.80105 1.68644 8.781C1.83626 8.63104 1.99426 8.49836 2.16483 8.37141C2.19121 8.35173 2.2176 8.33206 2.24479 8.31179C2.48441 8.13689 2.73649 7.99629 2.99975 7.85875C3.09476 7.80775 3.18597 7.75142 3.27757 7.69484C3.5444 7.53228 3.81982 7.38508 4.09467 7.23594C4.32417 7.11113 4.55112 6.98352 4.77537 6.84998C4.97396 6.73233 5.17696 6.62291 5.38035 6.51341C5.62634 6.3809 5.86911 6.24355 6.11076 6.10365C6.42991 5.91891 6.7504 5.73758 7.07607 5.56397C7.2256 5.48387 7.37119 5.39969 7.51532 5.31067C7.6373 5.23597 7.76142 5.16484 7.88558 5.09367C7.9123 5.07835 7.93901 5.06302 7.96653 5.04723C8.14112 4.94747 8.31721 4.85115 8.49538 4.75758C8.67131 4.66415 8.84451 4.56602 9.01818 4.46866C9.10468 4.42034 9.19136 4.37232 9.27805 4.32432C9.68459 4.09948 9.68459 4.09948 10.0841 3.86315C10.3057 3.72799 10.5341 3.60674 10.7635 3.48492C10.9708 3.37441 11.1743 3.25929 11.376 3.13932C11.5365 3.0442 11.6992 2.95377 11.8632 2.86472C12.0315 2.77318 12.1976 2.67961 12.3612 2.58008C12.5876 2.44246 12.8174 2.31066 13.0477 2.1794C13.1017 2.1486 13.1017 2.1486 13.1567 2.11718C13.3316 2.0177 13.5073 1.92018 13.6854 1.82606C13.8169 1.75659 13.9448 1.68446 14.0707 1.60574C14.3456 1.43847 14.6288 1.28623 14.9122 1.13321C15.0965 1.03338 15.278 0.931538 15.456 0.821229C17.4712 -0.399386 19.9736 -0.202673 21.9187 1.03648ZM14.1796 10.8936C14.0913 10.9383 14.0026 10.9818 13.9135 11.025C13.5789 11.1896 13.2718 11.382 12.9676 11.5952C12.9026 11.6406 12.8369 11.6849 12.7709 11.7289C12.4468 11.947 12.1506 12.1907 11.8587 12.4483C11.8353 12.469 11.8119 12.4896 11.7878 12.5108C11.3799 12.8722 11.02 13.2558 10.6742 13.6745C10.6506 13.7021 10.627 13.7297 10.6027 13.7582C10.3905 14.0094 10.2081 14.2768 10.0281 14.5503C10.0122 14.5741 9.9963 14.598 9.97993 14.6225C9.58613 15.2166 9.28119 15.8519 9.023 16.5121C9.01203 16.538 9.00105 16.5638 8.98975 16.5904C8.62843 17.4444 8.45058 18.3962 8.37689 19.3147C8.37487 19.3393 8.37285 19.364 8.37076 19.3893C8.20836 21.4629 8.64323 23.7743 9.85419 25.5248C9.92319 25.6247 9.98817 25.7264 10.0529 25.8289C10.2745 26.1922 10.2745 26.1922 10.5306 26.5314C10.5543 26.5314 10.578 26.5314 10.6024 26.5314C10.6121 26.5519 10.6218 26.5723 10.6318 26.5933C10.7042 26.7271 10.8067 26.8378 10.9052 26.954C10.9276 26.9804 10.95 27.0069 10.9731 27.0341C11.1838 27.2801 11.403 27.522 11.6611 27.7218C11.758 27.7981 11.8426 27.8817 11.9305 27.9678C12.2921 28.3266 12.2921 28.3266 12.7202 28.5283C12.7202 28.5514 12.7202 28.5745 12.7202 28.5983C12.8131 28.6634 12.9059 28.7234 13.0029 28.7823C13.033 28.8006 13.0631 28.819 13.0941 28.8379C14.8122 29.8698 16.76 30.4859 18.7864 30.5251C18.8161 30.5259 18.8458 30.5266 18.8764 30.5273C20.8968 30.5703 22.8844 30.1147 24.6014 29.0538C24.6487 29.0248 24.6487 29.0248 24.697 28.9953C24.7978 28.9335 24.8982 28.8711 24.9985 28.8085C25.0463 28.7789 25.0463 28.7789 25.0951 28.7486C25.1244 28.7301 25.1536 28.7116 25.1837 28.6925C25.2099 28.676 25.2361 28.6595 25.2631 28.6425C25.2909 28.6207 25.2909 28.6207 25.3193 28.5983C25.3193 28.5752 25.3193 28.5521 25.3193 28.5283C25.3381 28.5204 25.3569 28.5125 25.3762 28.5043C25.4939 28.4417 25.5961 28.362 25.7007 28.2809C25.7229 28.2637 25.7452 28.2465 25.7681 28.2288C26.0427 28.015 26.2989 27.7859 26.5448 27.5411C26.6058 27.4828 26.6684 27.4309 26.7349 27.3788C26.9103 27.2352 27.0442 27.0561 27.1858 26.8817C27.2124 26.8511 27.239 26.8204 27.2665 26.7888C27.5072 26.509 27.6054 26.3018 27.5926 25.9318C27.5582 25.6399 27.3658 25.4341 27.1418 25.2481C26.9002 25.0661 26.6252 24.9262 26.3603 24.7798C26.299 24.7455 26.2377 24.7112 26.1764 24.6769C26.0525 24.6075 25.9284 24.5386 25.8042 24.4698C25.6641 24.392 25.525 24.3127 25.3863 24.2325C24.601 23.7294 24.601 23.7294 23.704 23.5887C23.3419 23.7008 23.0737 23.9715 22.8426 24.2543C22.7785 24.315 22.7112 24.3703 22.6432 24.4267C22.5787 24.4802 22.515 24.5348 22.4519 24.5898C21.3218 25.5678 19.9305 25.8229 18.4634 25.7607C18.2317 25.7435 18.0073 25.7074 17.7814 25.6556C17.7139 25.641 17.7139 25.641 17.6451 25.626C16.8416 25.4341 16.0306 25.1153 15.4123 24.5696C15.3451 24.5176 15.2778 24.4658 15.2104 24.4141C14.2434 23.6393 13.6296 22.3372 13.4897 21.1363C13.3354 19.3857 13.6638 17.6152 14.8405 16.2423C14.9491 16.1195 15.0687 16.0191 15.1969 15.9165C15.2412 15.8729 15.2412 15.8729 15.2864 15.8283C16.2446 14.9033 17.7909 14.5647 19.0938 14.5415C20.4301 14.5655 21.624 15.0129 22.6272 15.8815C22.6592 15.9086 22.6912 15.9356 22.7242 15.9635C22.9797 16.1826 22.9797 16.1826 23.0759 16.3063C23.2614 16.5145 23.5125 16.6832 23.7918 16.7402C24.4016 16.7793 25.026 16.2974 25.5317 16.0134C25.7616 15.885 25.9934 15.7597 26.2248 15.6339C26.3299 15.5766 26.4349 15.5189 26.5397 15.4611C26.5775 15.4405 26.6152 15.4199 26.6541 15.3987C26.8516 15.289 27.0291 15.1819 27.1948 15.0298C27.2276 15.0003 27.2603 14.9708 27.2941 14.9404C27.3735 14.874 27.3735 14.874 27.3653 14.7955C27.389 14.7955 27.4127 14.7955 27.4371 14.7955C27.5852 14.5341 27.6305 14.301 27.5595 14.0073C27.3254 13.3502 26.6332 12.7896 26.109 12.3432C26.091 12.3276 26.0731 12.312 26.0546 12.296C25.7633 12.0433 25.4552 11.8255 25.1314 11.6144C25.049 11.5599 24.9689 11.5027 24.8886 11.4455C24.4482 11.1455 23.9593 10.9223 23.4731 10.7033C23.4108 10.6751 23.3487 10.6466 23.2867 10.6178C23.0366 10.5031 22.7826 10.4131 22.5195 10.331C22.4545 10.3107 22.4545 10.3107 22.3882 10.29C21.9354 10.1519 21.4766 10.0521 21.0119 9.96101C20.9358 9.94546 20.8598 9.92987 20.7837 9.91416C20.1925 9.80309 19.6006 9.7724 18.9995 9.7749C18.9658 9.77499 18.9321 9.77507 18.8974 9.77516C17.2547 9.7817 15.6404 10.1537 14.1796 10.8936ZM17.0635 18.2988C17.0351 18.327 17.0067 18.3552 16.9775 18.3843C16.4675 18.9118 16.2084 19.5878 16.2276 20.3142C16.2899 21.0531 16.6174 21.594 17.1353 22.1173C17.1572 22.1397 17.1792 22.162 17.2019 22.1851C17.4109 22.3804 17.6642 22.4919 17.9249 22.6078C17.9869 22.6355 17.9869 22.6355 18.0502 22.6637C18.6276 22.8888 19.3444 22.8893 19.9216 22.6538C19.9744 22.6276 20.0267 22.6005 20.0786 22.5727C20.1169 22.5537 20.1552 22.5346 20.1946 22.515C20.8683 22.1698 21.3355 21.6361 21.5625 20.9272C21.7701 20.2392 21.6845 19.5448 21.3383 18.9173C21.2448 18.7546 21.1409 18.6118 21.0119 18.4739C20.9818 18.4405 20.9517 18.4071 20.9206 18.3727C20.4994 17.9228 19.9087 17.6037 19.277 17.5569C18.433 17.5359 17.6684 17.6796 17.0635 18.2988Z" fill="white"/>
</svg>
