<svg xmlns="http://www.w3.org/2000/svg" width="43.609" height="13.886" viewBox="0 0 43.609 13.886"><defs><style>.a{fill:#7a35ff;}</style></defs><path class="a" d="M-2376.621,1130.024c.19.494.442.964.673,1.442.838,1.734,1.683,3.464,2.516,5.2a3.363,3.363,0,0,0,2.386,1.967c.231.051.231.167.191.348q-.248,1.106-.482,2.214c-.113.534.055.738.605.743.324,0,.648,0,.971,0a.756.756,0,0,0,.665-.332c.673-.89,1.365-1.766,2.038-2.655a.552.552,0,0,1,.5-.243c.792.011,1.584.009,2.375,0,.224,0,.27.053.168.261-.194.4-.37.8-.549,1.2-.192.432,0,.735.469.745.351.008.7-.006,1.053.005a.784.784,0,0,0,.624-.256c.585-.6,1.184-1.183,1.771-1.78a.553.553,0,0,1,.428-.179q4.522.006,9.044,0a.536.536,0,0,1,.473.24c.671.88,1.359,1.748,2.026,2.63a.813.813,0,0,0,.734.362c.333-.013.666,0,1-.005.464-.011.639-.226.545-.678-.158-.757-.318-1.514-.5-2.266-.055-.233.017-.282.231-.281q2.241.008,4.482,0a.521.521,0,0,1,.4.172c.588.6,1.186,1.181,1.772,1.779a.784.784,0,0,0,.621.262c.36-.011.72,0,1.08-.006.458-.012.645-.31.458-.728q-.384-.864-.779-1.721c-.057-.123-.107-.215.071-.3a6.522,6.522,0,0,0,3.228-3.41c.628-1.365,1.307-2.706,1.975-4.052a2.033,2.033,0,0,0,.241-1.012c-.029-.4-.271-1.639-2.163-1.637h-1.419c-.032,0-.067,0-.1,0q-3.928-.019-7.857-.009a3.3,3.3,0,0,0-1.294.223,2.845,2.845,0,0,0-1.535,1.518c-.063.143-.1.307-.324.306l-1.261,0v0h-13.935c-.446-.8-1.177-1.943-1.906-2.032v-.009h-.477c-.2,0-.4,0-.6,0v0q-4.065-.009-8.13,0a10.757,10.757,0,0,0-1.321.034A1.419,1.419,0,0,0-2376.621,1130.024Zm12.652.083h-.86c-1.152-.009-2.3-.014-3.455,0a2.538,2.538,0,0,0-2.308,1.34c-.079.137-.136.286-.206.436a.548.548,0,0,1-.166-.257c-.4-.8-.793-1.614-1.207-2.412-.1-.192-.1-.238.127-.235.594.008,1.187,0,1.781,0q2.137,0,4.274,0v.011c.151,0,.3,0,.451,0a1.487,1.487,0,0,1,1.466.908Zm15.78,1.132c-.347.692-.681,1.389-1.022,2.083a1.655,1.655,0,0,1-1.6.989h-8.746v0q-4.387,0-8.773,0a1.645,1.645,0,0,1-1.562-1.044,1.657,1.657,0,0,1,1.583-2.266c.819-.007,1.638,0,2.457,0v0h12.871l0,0h1.1a.593.593,0,0,1,.064,0q1.741.007,3.482,0C-2348.124,1130.989-2348.094,1131.049-2348.189,1131.238Zm7.59,7.5c.026-.041.108-.056.168-.066.212-.036.429-.051.638-.1a.239.239,0,0,1,.315.164c.155.354.312.708.48,1.056.1.2.031.263-.169.236a.377.377,0,0,1-.339-.128c-.335-.34-.674-.674-1.009-1.013C-2340.557,1138.846-2340.641,1138.8-2340.6,1138.738Zm-5.495-.917a5.062,5.062,0,0,0,.951-1.255q1.484-2.984,2.954-5.975a1.7,1.7,0,0,0,.093-1.337c-.079-.232-.023-.278.2-.277,2.34.005,4.679,0,7.018.006a.815.815,0,0,1,.765,1.252c-.753,1.554-1.494,3.115-2.282,4.651a5.09,5.09,0,0,1-4.788,2.933c-.891.01-1.782,0-2.672,0Zm-3.584.932c.03-.057.1-.036.147-.037.467,0,.934,0,1.4-.007a.278.278,0,0,1,.329.263c.113.572.244,1.141.368,1.711.068.314.048.339-.3.339a.382.382,0,0,1-.373-.167c-.5-.657-1.01-1.308-1.515-1.962C-2349.655,1138.852-2349.708,1138.811-2349.678,1138.753Zm-13.758,1.079c.15-.316.29-.638.436-.957.034-.075.074-.153.169-.154.337,0,.674,0,1.051,0-.432.444-.828.855-1.229,1.26-.076.076-.187.044-.285.051C-2363.454,1140.043-2363.515,1140-2363.436,1139.832Zm-6.9.954q.208-.919.4-1.843a.251.251,0,0,1,.3-.232c.233.009.467,0,.7,0s.467,0,.7,0c.059,0,.139-.027.169.045s-.042.112-.079.159c-.471.612-.955,1.216-1.411,1.839a.6.6,0,0,1-.594.266C-2370.324,1141.01-2370.377,1140.955-2370.338,1140.786Zm-4.9-11.8c.324-.006.648.01.972,0a1.487,1.487,0,0,1,1.465.908c.608,1.235,1.225,2.466,1.817,3.709a2.6,2.6,0,0,0,2.528,1.6q8.775,0,17.551,0a2.6,2.6,0,0,0,2.539-1.58q.873-1.812,1.775-3.61a1.739,1.739,0,0,1,1.54-1.023c.458-.023.918,0,1.377,0a.73.73,0,0,1,.534.22.887.887,0,0,1,.107,1.1c-.93,1.889-1.856,3.78-2.8,5.664a3.131,3.131,0,0,1-2.991,1.85q-5.346.007-10.693,0v0q-5.36,0-10.719,0a2.455,2.455,0,0,1-2.366-1.489q-1.256-2.571-2.5-5.149c-.223-.462-.456-.92-.663-1.388A.54.54,0,0,1-2375.238,1128.982Z" transform="translate(2376.72 -1128.056)"/></svg>