<svg xmlns="http://www.w3.org/2000/svg" width="100" height="80" viewBox="0 0 100 80"><defs><style>.a{fill:#fff;stroke:#7a35ff;}.b{fill:#7a35ff;}.c{stroke:none;}.d{fill:none;}</style></defs><g class="a"><rect class="c" width="100" height="80" rx="4"/><rect class="d" x="0.5" y="0.5" width="99" height="79" rx="3.5"/></g><path class="b" d="M-2376.582,1130.8c.265.689.616,1.345.938,2.012,1.168,2.418,2.347,4.831,3.509,7.252a4.691,4.691,0,0,0,3.328,2.743c.323.072.323.233.266.486q-.345,1.542-.673,3.088c-.158.745.076,1.029.844,1.036.452,0,.9-.006,1.355,0a1.053,1.053,0,0,0,.927-.464c.938-1.242,1.9-2.462,2.843-3.7a.77.77,0,0,1,.7-.339c1.1.015,2.209.013,3.313,0,.313,0,.377.074.234.364-.271.552-.517,1.116-.766,1.678-.267.6,0,1.025.654,1.039.49.011.979-.009,1.469.007a1.092,1.092,0,0,0,.87-.356c.817-.834,1.651-1.65,2.47-2.482a.77.77,0,0,1,.6-.25q6.308.009,12.615,0a.747.747,0,0,1,.66.335c.936,1.228,1.9,2.437,2.826,3.669a1.134,1.134,0,0,0,1.023.5c.464-.018.929,0,1.393-.008.647-.016.892-.315.76-.946-.22-1.056-.444-2.111-.691-3.161-.077-.325.023-.393.323-.392q3.126.011,6.251,0a.728.728,0,0,1,.562.24c.82.83,1.654,1.648,2.471,2.482a1.1,1.1,0,0,0,.866.365c.5-.016,1,.006,1.506-.008.639-.017.9-.432.639-1.015q-.535-1.2-1.087-2.4c-.079-.172-.149-.3.1-.414a9.1,9.1,0,0,0,4.5-4.756c.876-1.9,1.823-3.774,2.755-5.651a2.837,2.837,0,0,0,.336-1.412c-.04-.555-.378-2.286-3.018-2.283h-1.979a1.418,1.418,0,0,1-.145.006q-5.479-.027-10.958-.012a4.6,4.6,0,0,0-1.805.31,3.967,3.967,0,0,0-2.14,2.117c-.089.2-.146.428-.452.426q-.88,0-1.76,0v0h-5.139v0h-14.3c-.622-1.122-1.641-2.709-2.659-2.834v-.013h-.665c-.279,0-.557,0-.835,0v0q-5.67-.012-11.34-.006a14.986,14.986,0,0,0-1.843.048A1.979,1.979,0,0,0-2376.582,1130.8Zm17.646.115h-1.2c-1.606-.012-3.212-.019-4.818,0a3.54,3.54,0,0,0-3.22,1.87c-.11.191-.189.4-.287.608a.765.765,0,0,1-.231-.359c-.561-1.122-1.106-2.251-1.684-3.364-.139-.267-.136-.333.177-.329.828.012,1.656,0,2.484,0q2.981,0,5.962,0v.016c.21,0,.419.005.629,0a2.073,2.073,0,0,1,2.044,1.266Q-2359.008,1130.77-2358.936,1130.916Zm22.01,1.579c-.484.965-.95,1.938-1.426,2.906a2.309,2.309,0,0,1-2.231,1.379h-12.2v0q-6.119,0-12.237,0a2.3,2.3,0,0,1-2.179-1.456,2.311,2.311,0,0,1,2.208-3.161c1.142-.01,2.284-.006,3.427-.006v0h17.952l0,.006h1.528a.871.871,0,0,1,.09,0q2.428.01,4.857,0C-2336.835,1132.147-2336.793,1132.231-2336.926,1132.495Zm10.586,10.461c.036-.057.151-.078.234-.092.3-.05.6-.071.89-.138a.333.333,0,0,1,.44.228c.216.494.435.987.669,1.473.136.283.044.367-.235.329a.526.526,0,0,1-.473-.179c-.467-.474-.94-.94-1.408-1.413C-2326.28,1143.106-2326.4,1143.047-2326.34,1142.956Zm-7.664-1.279a7.054,7.054,0,0,0,1.326-1.75q2.071-4.162,4.121-8.334a2.374,2.374,0,0,0,.129-1.866c-.11-.324-.033-.387.28-.387,3.263.007,6.526,0,9.789.008a1.137,1.137,0,0,1,1.067,1.747c-1.051,2.168-2.084,4.345-3.184,6.488a7.1,7.1,0,0,1-6.678,4.091c-1.242.013-2.485,0-3.727,0Zm-5,1.3c.042-.079.134-.051.2-.051.651,0,1.3.006,1.954-.01a.387.387,0,0,1,.458.366c.158.8.34,1.591.513,2.386.095.438.067.472-.421.473a.533.533,0,0,1-.521-.232c-.7-.916-1.408-1.825-2.112-2.737C-2338.97,1143.115-2339.045,1143.057-2339,1142.977Zm-19.189,1.5c.21-.441.405-.889.607-1.334.047-.1.1-.213.236-.214.47-.005.94,0,1.466,0-.6.62-1.155,1.192-1.715,1.758-.105.107-.261.062-.4.072C-2358.217,1144.776-2358.3,1144.712-2358.192,1144.481Zm-9.627,1.33q.29-1.282.554-2.571a.35.35,0,0,1,.415-.324c.325.013.652,0,.977,0s.652,0,.978,0c.082,0,.194-.038.236.063s-.059.156-.11.222c-.658.854-1.332,1.7-1.968,2.565a.835.835,0,0,1-.829.371C-2367.8,1146.125-2367.873,1146.048-2367.82,1145.812Zm-6.834-16.464c.452-.008.9.014,1.355,0a2.074,2.074,0,0,1,2.044,1.266c.848,1.723,1.709,3.44,2.534,5.174a3.623,3.623,0,0,0,3.526,2.234q12.24,0,24.479,0a3.624,3.624,0,0,0,3.541-2.2q1.217-2.527,2.475-5.035a2.426,2.426,0,0,1,2.147-1.427c.639-.032,1.281,0,1.92,0a1.018,1.018,0,0,1,.744.306,1.237,1.237,0,0,1,.149,1.53c-1.3,2.635-2.589,5.273-3.9,7.9a4.367,4.367,0,0,1-4.172,2.58q-7.456.01-14.914,0v0q-7.476,0-14.951,0a3.423,3.423,0,0,1-3.3-2.077q-1.752-3.586-3.484-7.182c-.312-.644-.636-1.282-.925-1.936A.754.754,0,0,1-2374.653,1129.348Z" transform="translate(2396.72 -1079.131)"/><g transform="translate(2533.92 -1091.214)"><g transform="translate(-2518.919 1105.394)"><path class="b" d="M-2507.614,1105.4c2.574,0,5.147-.02,7.72.008a3.549,3.549,0,0,1,3.172,1.825,7.077,7.077,0,0,1,.56,1.518q.857,2.68,1.7,5.366a.3.3,0,0,0,.334.242q5.077-.008,10.154-.008a3.493,3.493,0,0,1,1.166.127,2.013,2.013,0,0,1,1.233,2.608c-.043.115-.093.228-.147.338q-1.659,3.375-3.319,6.75a3.684,3.684,0,0,1-1.049,1.373c-.115.088-.1.185-.075.3q.388,1.826.769,3.654c.109.518-.04.7-.571.7-.434,0-.869-.011-1.3,0a.721.721,0,0,1-.647-.319c-.871-1.139-1.754-2.269-2.624-3.409a.506.506,0,0,0-.451-.229c-.868.009-1.738,0-2.606,0-.283,0-.3.017-.181.274.264.591.535,1.179.8,1.77.184.415.016.677-.435.681-.483,0-.967-.006-1.45,0a.7.7,0,0,1-.544-.228c-.76-.769-1.531-1.529-2.29-2.3a.616.616,0,0,0-.5-.205c-.344.012-.689.012-1.033,0a.52.52,0,0,0-.478.229c-.881,1.152-1.775,2.294-2.657,3.445a.642.642,0,0,1-.563.281c-.484-.009-.968,0-1.451,0-.4,0-.574-.218-.493-.6.217-1.025.434-2.051.664-3.073.049-.223-.022-.276-.227-.275-.984.005-1.967,0-2.95,0a1.063,1.063,0,0,1-.27,0,1.045,1.045,0,0,0-1.1.437c-.663.7-1.365,1.37-2.043,2.059a.717.717,0,0,1-.565.237c-.483-.012-.967,0-1.45-.005-.435,0-.61-.268-.429-.669.438-.971.886-1.937,1.33-2.9.151-.328.15-.325-.133-.53a7.038,7.038,0,0,1-2.213-2.56c-.833-1.663-1.647-3.335-2.473-5a2.065,2.065,0,0,1-.19-1.384.787.787,0,0,0-.048-.409c-.582-1.843-1.131-3.7-1.752-5.528a3.471,3.471,0,0,1,2.9-4.554,4.955,4.955,0,0,1,.661-.043h7.548Zm9.391,12.592h2.311c.516,0,1.032,0,1.549,0,.186,0,.234-.061.169-.236s-.113-.359-.17-.539q-1.308-4.122-2.62-8.243a6.215,6.215,0,0,0-.473-1.315,2.749,2.749,0,0,0-2.515-1.4q-7.633-.008-15.267,0a3.621,3.621,0,0,0-.611.051,2.573,2.573,0,0,0-2.118,3.2c.512,1.727,1.075,3.439,1.613,5.159.047.152.1.157.222.071a2.117,2.117,0,0,1,1.3-.38c2.892,0,5.785-.018,8.678,0a3.231,3.231,0,0,1,3.03,1.871c.258.5.51,1.009.749,1.522a.37.37,0,0,0,.394.245C-2500.731,1117.988-2499.477,1117.993-2498.223,1117.993Zm3.68,7.384v0c2.114,0,4.229-.005,6.343,0a2.4,2.4,0,0,0,2.308-1.42c.164-.321.315-.648.474-.972q1.491-3.033,2.983-6.065a1.129,1.129,0,0,0,.115-.762,1.177,1.177,0,0,0-1.036-.943,1.244,1.244,0,0,0-1.445.671q-1.275,2.605-2.552,5.21a2.942,2.942,0,0,1-1.507,1.578,3.923,3.923,0,0,1-1.5.18c-2.6.013-5.2.009-7.793,0a8.29,8.29,0,0,1-1.3-.062,2.894,2.894,0,0,1-2.221-1.68q-1.108-2.249-2.206-4.5a2.425,2.425,0,0,0-1.223-1.193,2.107,2.107,0,0,0-1.124-.2,1.219,1.219,0,0,0-.9,1.811c1.037,2.083,2.052,4.177,3.077,6.266a3.387,3.387,0,0,0,3.214,2.072C-2498.738,1125.384-2496.641,1125.377-2494.542,1125.377Zm-9-.044a.692.692,0,0,0-.076-.084,4.107,4.107,0,0,1-1.087-1.349c-.529-1.064-1.049-2.132-1.57-3.2-.572-1.171-1.151-2.337-1.7-3.516a1.881,1.881,0,0,1,.07-1.707c.133-.264.135-.264-.16-.264q-3.393,0-6.785,0a1.153,1.153,0,0,0-1.1,1.757c.815,1.672,1.6,3.363,2.479,5a6.134,6.134,0,0,0,5.487,3.4c1.408.048,2.819.012,4.228.011C-2503.692,1125.38-2503.615,1125.4-2503.539,1125.333Zm7.92-6.482h-5.923c-.3,0-.3,0-.163.273.27.552.528,1.11.81,1.655a2.052,2.052,0,0,0,1.931,1.206q4.472,0,8.945,0a2.067,2.067,0,0,0,1.331-.49,1.322,1.322,0,0,0,.462-1.41,1.539,1.539,0,0,0-1.545-1.227C-2491.72,1118.847-2493.67,1118.85-2495.619,1118.85Zm8.115.611c.064-.123.107-.2.146-.28.613-1.251,1.219-2.5,1.842-3.749.1-.2.062-.223-.138-.223q-4.1.007-8.209,0c-.2,0-.24.043-.175.237q.374,1.131.72,2.272a.332.332,0,0,0,.38.28c1.049-.011,2.1-.018,3.146,0a2.41,2.41,0,0,1,2.165,1.26C-2487.6,1119.312-2487.562,1119.366-2487.5,1119.462Zm-1.286,6.8c-.164,0-.327-.005-.491,0-.093,0-.221-.05-.269.053-.041.087.069.155.121.223.589.766,1.181,1.528,1.768,2.293.406.528.4.53,1.064.52.033,0,.066,0,.1,0,.147,0,.185-.075.158-.206q-.306-1.439-.611-2.879c-.024-.115-.058-.207-.209-.161A5.658,5.658,0,0,1-2488.791,1126.26Zm-14.608,3.091c.277.077.482-.083.677-.346.636-.852,1.3-1.687,1.946-2.53.038-.049.112-.094.082-.165s-.116-.045-.177-.045c-.72,0-1.44,0-2.161-.008-.2,0-.27.084-.308.265-.165.784-.341,1.566-.511,2.35C-2503.954,1129.351-2503.952,1129.352-2503.4,1129.351Zm-8.379-1.219c.182-.011.367.032.525-.13.583-.6,1.175-1.184,1.768-1.771.113-.111.109-.163-.052-.2a6,6,0,0,1-1.271-.441c-.166-.078-.237-.054-.312.115-.3.672-.61,1.339-.92,2.007C-2512.236,1128.135-2512.239,1128.134-2511.778,1128.133Zm15.155-1.873c.008.132.089.172.143.226.42.424.866.825,1.257,1.274a1.066,1.066,0,0,0,.993.378c.175-.016.219-.055.141-.219a6.232,6.232,0,0,1-.427-.962.855.855,0,0,0-1.087-.706A7.076,7.076,0,0,1-2496.623,1126.259Z" transform="translate(2518.919 -1105.394)"/><path class="b" d="M-2506.36,1114.265c-.729,0-1.458,0-2.186,0-.465,0-.651.235-.51.679.348,1.092.713,2.178,1.071,3.267a1.056,1.056,0,0,1,.079.357.394.394,0,0,1-.3.4.4.4,0,0,1-.467-.183.83.83,0,0,1-.087-.2c-.375-1.135-.752-2.269-1.12-3.406a1.3,1.3,0,0,1,1.272-1.767c1.515,0,3.03,0,4.545,0,.341,0,.523.146.528.411s-.19.433-.518.437c-.77.008-1.54,0-2.31,0Z" transform="translate(2512.542 -1111.098)"/><path class="b" d="M-2482.187,1113.414c.163,0,.327-.007.49,0a.4.4,0,0,1,.4.381.385.385,0,0,1-.32.431,3.4,3.4,0,0,1-1.191,0,.391.391,0,0,1-.309-.438.394.394,0,0,1,.388-.372C-2482.546,1113.406-2482.366,1113.415-2482.187,1113.414Z" transform="translate(2493.443 -1111.099)"/></g></g><g transform="translate(3709.08 1013.594)"><g transform="translate(-3646.012 -999.413)"><path class="b" d="M-3634.472-986.162h-8.646c-.373,0-.373,0-.373.359,0,2.787,0,5.575-.006,8.362,0,.261.07.333.333.333q7.91-.012,15.821,0c.252,0,.343-.056.34-.327-.015-1.153-.013-2.306,0-3.458,0-.251-.074-.318-.321-.318q-7.356.01-14.711,0a2.157,2.157,0,0,1-.309-.009.407.407,0,0,1-.353-.437.4.4,0,0,1,.358-.407,1.608,1.608,0,0,1,.283-.008h14.685c.361,0,.361,0,.362-.369q0-1.239,0-2.477a.413.413,0,0,1,.3-.434.414.414,0,0,1,.483.152.454.454,0,0,1,.082.292q0,4.091,0,8.181a.418.418,0,0,1-.431.472c-.386.026-.386.026-.394.417a1.229,1.229,0,0,1-.825,1.165,1.263,1.263,0,0,1-1.37-.337,1.216,1.216,0,0,1-.317-.951c.019-.222-.053-.3-.286-.3q-5.265.01-10.53.005c-.293,0-.293,0-.3.407a1.234,1.234,0,0,1-.94,1.208,1.261,1.261,0,0,1-1.39-.551,1.245,1.245,0,0,1-.182-.791c.02-.216-.065-.3-.278-.277a3.941,3.941,0,0,1-.413,0c-.419,0-.549-.135-.549-.562q0-2.426,0-4.852,0-2.039,0-4.078c0-.469.024-.414-.416-.419a1.224,1.224,0,0,1-1.194-.922,1.252,1.252,0,0,1,.529-1.4,1.192,1.192,0,0,1,.658-.195c.43,0,.861-.009,1.29,0,.211.006.3-.055.272-.278-.094-.715-.18-1.432-.267-2.148-.019-.158-.133-.223-.255-.3a2.007,2.007,0,0,1-1.027-1.739c-.009-.336.149-.489.485-.494.31,0,.62-.009.929,0,.182.006.243-.064.238-.241-.01-.309,0-.619,0-.929a.431.431,0,0,1,.271-.454c.137-.054.144-.148.144-.266,0-.576,0-1.153,0-1.729,0-.369.154-.521.521-.51a1.979,1.979,0,0,1,1.61.887c.111.156.2.2.373.1a1.538,1.538,0,0,1,.7-.168c.4-.006.552.134.552.533,0,.826.007,1.652-.007,2.478,0,.224.053.31.286.3.292-.018.585-.007.877,0,.349,0,.5.158.492.512a1.985,1.985,0,0,1-1.023,1.715.5.5,0,0,0-.273.425c-.069.64-.156,1.279-.24,1.918-.048.359-.031.385.329.385,1.8,0,3.6-.006,5.394.006.269,0,.331-.081.328-.337q-.019-1.729,0-3.458c0-.235-.062-.328-.3-.307a4.9,4.9,0,0,1-.67,0c-.185-.009-.25.069-.233.244a.97.97,0,0,1,0,.206.517.517,0,0,0,.3.579,1.219,1.219,0,0,1,.485,1.385,1.242,1.242,0,0,1-1.27.892,1.241,1.241,0,0,1-1.166-.929,1.289,1.289,0,0,1,.523-1.381c.1-.063.253-.076.26-.223a5.825,5.825,0,0,0-.011-.694c-.006-.082-.1-.075-.172-.075-.155,0-.31,0-.464,0-.507,0-.662-.2-.554-.7q.193-.908.388-1.815.387-1.8.773-3.6c.1-.45.188-.522.646-.522h5.472c.414,0,.534.092.621.5q.589,2.735,1.172,5.471c.1.477-.065.675-.56.676-.473,0-.947,0-1.42,0-.333,0-.517-.164-.511-.443s.186-.414.51-.418c.267,0,.534-.008.8,0,.158.005.22-.036.183-.2q-.274-1.247-.534-2.5c-.031-.152-.1-.2-.259-.22a4.416,4.416,0,0,0-2.507.425,5.833,5.833,0,0,1-2.384.593,3.968,3.968,0,0,1-.77-.06c-.192-.033-.261.028-.3.209q-.146.746-.321,1.487c-.047.2-.017.271.21.269,1.308-.01,2.615-.005,3.923,0,.558,0,.653.1.653.665,0,1.333,0,2.667,0,4,0,.226.063.3.292.294.573-.018.5.058.5-.491,0-.241,0-.482,0-.723a.405.405,0,0,1,.435-.438c.86-.006,1.721-.017,2.581,0a1.228,1.228,0,0,1,1.129,1.466.259.259,0,0,0,.154.322,1.248,1.248,0,0,1,.629,1.443,1.242,1.242,0,0,1-1.245.926Q-3630.137-986.161-3634.472-986.162Zm-.752-1.652h-9.291a1.37,1.37,0,0,0-.306.025.361.361,0,0,0-.3.367.365.365,0,0,0,.3.369,1.063,1.063,0,0,0,.255.026h18.633a1.056,1.056,0,0,0,.255-.025.365.365,0,0,0,.3-.368.356.356,0,0,0-.3-.367,1.72,1.72,0,0,0-.358-.027Q-3630.63-987.815-3635.224-987.814Zm3.689-10.737h-2.269c-.131,0-.26-.012-.3.167q-.179.87-.371,1.739c-.027.122.01.163.134.183a4.333,4.333,0,0,0,1.385-.034,6.793,6.793,0,0,0,1.575-.556,5.126,5.126,0,0,1,2.368-.4c.188.011.249-.044.2-.233a5.246,5.246,0,0,1-.136-.629c-.028-.2-.131-.246-.316-.245C-3630.022-998.546-3630.778-998.551-3631.535-998.55Zm-9.481,7.433c-.438,0-.876.008-1.314,0-.2-.005-.252.079-.228.264.085.646.17,1.292.237,1.94.02.188.087.246.271.243.661-.009,1.323-.015,1.984,0,.244.006.333-.081.357-.313.067-.64.142-1.279.232-1.915.027-.189-.039-.223-.2-.221C-3640.123-991.114-3640.569-991.117-3641.016-991.117Zm9.087.395c0,.516,0,1.032,0,1.548,0,.56-.075.482.49.5.244.009.305-.077.3-.31-.01-1.084,0-2.167-.006-3.251,0-.606.106-.526-.555-.54-.184,0-.238.068-.236.243C-3631.924-991.927-3631.928-991.325-3631.928-990.723Zm4.414,1.258h0c-.189,0-.378,0-.566,0-.618.016-.538-.138-.545.6,0,.147.066.194.2.193.584,0,1.167,0,1.751,0,.291,0,.481-.175.474-.4a.425.425,0,0,0-.468-.383C-3626.948-989.471-3627.231-989.464-3627.514-989.464Zm-12.3-5.437h0c0-.3,0-.6,0-.9,0-.145-.06-.165-.173-.1a1.157,1.157,0,0,0-.57.789,8.442,8.442,0,0,0-.044,1.438c-.009.386-.013.353.355.235a.589.589,0,0,0,.428-.641C-3639.806-994.352-3639.813-994.627-3639.813-994.9Zm.846,2.134c-.155,0-.31-.008-.465,0a1.184,1.184,0,0,0-.965.56c-.089.136-.123.235.107.228.292-.009.585.009.877-.006a1.243,1.243,0,0,0,1.048-.562c.1-.148.1-.234-.113-.224C-3638.64-992.763-3638.8-992.769-3638.967-992.768Zm-3.284-.889c0,.137-.006.275,0,.412a1.256,1.256,0,0,0,.573,1.066c.131.084.22.108.216-.1-.006-.3.01-.6-.006-.9a1.223,1.223,0,0,0-.551-1.025c-.056-.037-.115-.1-.184-.072s-.047.12-.048.184C-3642.255-993.949-3642.252-993.8-3642.251-993.657Zm.413-2.305c0,.232,0,.464,0,.7,0,.191.158.261.285.284.175.032.082-.148.1-.226a2.9,2.9,0,0,1,.238-.651.323.323,0,0,0,.028-.318,1.145,1.145,0,0,0-.472-.529c-.123-.071-.189-.067-.185.1C-3641.834-996.392-3641.839-996.177-3641.838-995.963Zm-.016,19.708c-.151.042-.417-.116-.4.245.013.322.156.534.4.535s.384-.211.4-.532S-3641.678-976.231-3641.854-976.254Zm13.621,0c-.163.028-.417-.1-.4.254.019.321.166.532.408.524s.367-.209.389-.517C-3627.807-976.34-3628.052-976.233-3628.233-976.253Zm-14.542-15.756a2.858,2.858,0,0,1-.218-.48c-.055-.227-.17-.318-.4-.282a1.193,1.193,0,0,1-.232,0c-.162-.006-.178.061-.1.185A1.154,1.154,0,0,0-3642.775-992.009Zm8.731,1.286a.4.4,0,0,0-.382-.382.4.4,0,0,0-.381.382.4.4,0,0,0,.382.381A.4.4,0,0,0-3634.043-990.723Z" transform="translate(3646.012 999.413)"/><path class="b" d="M-3567.288-854.591c-.68,0-1.359,0-2.039,0a1.227,1.227,0,0,1-1.268-1.271,1.229,1.229,0,0,1,1.271-1.241q2.064,0,4.129,0a1.233,1.233,0,0,1,1.234,1.064,1.263,1.263,0,0,1-.881,1.4,1.247,1.247,0,0,1-.382.045h-2.064Zm.014-.862h1.832c.4,0,.614-.137.615-.394s-.208-.395-.614-.395h-3.689a.784.784,0,0,0-.377.062.363.363,0,0,0-.208.333.362.362,0,0,0,.207.334.729.729,0,0,0,.352.062Q-3568.216-855.455-3567.274-855.453Z" transform="translate(3578.035 871.145)"/><path class="b" d="M-3567.352-804.361c-.662,0-1.324,0-1.986,0a1.229,1.229,0,0,1-1.259-1.253,1.226,1.226,0,0,1,1.252-1.259c1.35-.005,2.7,0,4.049,0,.336,0,.519.161.514.439s-.185.421-.506.421q-1.921,0-3.842,0c-.384,0-.589.138-.592.39s.206.4.584.4q1.922,0,3.842,0a.469.469,0,0,1,.461.219.428.428,0,0,1-.4.641C-3565.942-804.356-3566.647-804.361-3567.352-804.361Z" transform="translate(3578.036 825.87)"/></g></g></svg>