<svg xmlns="http://www.w3.org/2000/svg" width="100" height="80" viewBox="0 0 100 80"><defs><style>.a{fill:#f9f9f9;stroke:#dedede;}.b{fill:#dedede;}.c{stroke:none;}.d{fill:none;}</style></defs><g class="a"><rect class="c" width="100" height="80" rx="4"/><rect class="d" x="0.5" y="0.5" width="99" height="79" rx="3.5"/></g><g transform="translate(-366 -472)"><path class="b" d="M-1814.02,1414.394q0-.692,0-1.385.006-.237.012-.474-.076-1.981-.151-3.963.065-.805.13-1.61c-.017-.5-.047-1-.047-1.505q0-11.612.009-23.223c0-.845-.077-1.4-1.163-1.374-2.707.063-5.416.026-8.125.03l-.191-.192-.031-3.247-.024-.461c.02-4.45.014-8.9.079-13.349.015-1.046-.373-1.306-1.359-1.3-4.8.042-9.6.013-14.4.029a2.945,2.945,0,0,1-1.719-.483,5.3,5.3,0,0,0-6.163.433c-.575.5-.723.914-.107,1.515,2.049,2,4.072,4.027,6.09,6.058a.834.834,0,0,0,1.445-.064,4.89,4.89,0,0,0,1.019-4.987c-.446-1.207.017-1.188.947-1.18,3.909.033,7.819.047,11.727-.02,1.029-.018,1.282.265,1.272,1.282-.041,4.022.02,8.045.043,12.067a1.588,1.588,0,0,0,.02.936q-.064.216-.127.432a2.49,2.49,0,0,1,.013,1.205l.106.435c-.119.309.068.708-.277.951l-.435-.107a2.617,2.617,0,0,1-1.213.02,2.011,2.011,0,0,1-1.388-.068l-.635.049a12.018,12.018,0,0,1-3.524-.022l-.682.035-.963.043-.408.286q0,1.033,0,2.066c-.21.392.262.614.24.959-.486.462-.147,1.085-.313,1.609.012,1.585,0,3.172.05,4.756.025.746-.1.953-.885.639-1.86-.744-3.762-1.383-5.641-2.081a4.3,4.3,0,0,0-2.72-.13c-3.911,1.061-7.844,2.044-11.741,3.152-.939.267-1.45.238-1.757-.764a2.591,2.591,0,0,0-.728-.884c-1.5-1.509-3.017-3-4.511-4.514a3.182,3.182,0,0,0-2.789-1.118c-.514.071-.681-.219-.985-.555a40.657,40.657,0,0,0-3.5-3.532c-1.01-.874-2.415-.369-3.662,1.132-.939,1.129.312,1.5.794,1.994q5.73,5.831,11.576,11.547a2.939,2.939,0,0,1,.98,2.42c-.066,2.32.054,4.646-.046,6.963a3.88,3.88,0,0,0,1.807,3.925l0,.016a1.866,1.866,0,0,1,1.536.392,1.682,1.682,0,0,1,1.14.452l.684.311h.44l.291.248,1.979.6c1,.393,1.984.8,2.987,1.175,1.206.448.5,1.436.591,2.166.1.813-.631.424-1,.482-.993.155-2.032-.24-3,.244a1.221,1.221,0,0,0-1.143-.207l-3.467.014a11.882,11.882,0,0,0-2.571,0c-.288.752-.289,1.243.777,1.178a25.133,25.133,0,0,1,2.724.112,6.378,6.378,0,0,1,2.309-.162,5.674,5.674,0,0,0,2.817.034l1.145.16c.307-.021.614-.062.921-.062q13.35,0,26.7-.005c.381,0,.762-.05,1.144-.076a7.176,7.176,0,0,0,2.836,0,1.978,1.978,0,0,0,1.123.027l.255.131c.413-.013.826-.044,1.238-.034C-1814.541,1415.989-1813.868,1415.616-1814.02,1414.394Zm-26.077-46.34c-.19.4-.321.819-.858.269-1.674-1.712-3.378-3.393-5.14-5.156a3.932,3.932,0,0,1,5.019.22A4.074,4.074,0,0,1-1840.1,1368.054Zm-15.239,25.435c3.165-.84,6.378-1.545,9.475-2.588a9.8,9.8,0,0,1,7.246.358c3.961,1.621,8.027,2.983,12.042,4.472,1.3.481,1.733,1.554,1.041,2.517-.609.848-1.413.768-2.281.445-3.942-1.468-7.905-2.881-11.828-4.4a7.971,7.971,0,0,0-5.2-.259c-3.122.869-6.26,1.679-9.391,2.514l-.721.191a1.687,1.687,0,0,1-1.773-1.448C-1856.876,1394.3-1856.276,1393.739-1855.336,1393.489Zm21.066,8.68c0,1.2-.031,2.4.01,3.594.021.614-.1.81-.766.655-5.558-1.3-11.123-2.567-16.686-3.846-.318-.073-.728-.012-.77-.518-.046-.55.347-.592.732-.694,1.38-.363,2.742-.8,4.134-1.107a6.3,6.3,0,0,0,4.856-4.481c.267-.8.61-.957,1.324-.7q3.371,1.222,6.75,2.424c.506.18.413.587.414.961C-1834.267,1399.7-1834.27,1400.932-1834.27,1402.169Zm-23.3-5.524a3.094,3.094,0,0,0,3.588,1.174c3.272-.878,6.545-1.752,10.086-2.7-.625,1.826-1.521,3.143-3.2,3.642-3.436,1.024-6.87,2.079-10.551,1.711-.754-.075-1.012-.228-.957-.988.061-.845.007-1.7,0-2.549a.817.817,0,0,1,.527-.818C-1857.75,1396.008-1857.72,1396.447-1857.572,1396.645Zm-9.9-10.434c-.564.609-.792.021-1.077-.255q-1.454-1.4-2.86-2.855c-.185-.191-.629-.365-.387-.714a1.445,1.445,0,0,1,1.186-.723,2.269,2.269,0,0,1,.55.31c.936.914,1.856,1.846,2.778,2.774C-1866.718,1385.319-1867.036,1385.736-1867.476,1386.211Zm8.518,8.884c-.294.259-.488-.036-.672-.219q-3.494-3.482-6.983-6.968c-.194-.193-.361-.327-.148-.667a2.19,2.19,0,0,1,3.4-.519c1.682,1.6,3.3,3.263,4.943,4.9a2.228,2.228,0,0,1,.652,1.377A2.707,2.707,0,0,1-1858.958,1395.095Zm10.322,15.641a12.914,12.914,0,0,0-3.076-.947,6.96,6.96,0,0,0-2.512-1.036c-1.031-.412-2.053-.853-3.1-1.23a1.7,1.7,0,0,1-1.264-1.837c.008-.155-.009-.311,0-.464.088-1.144-.525-2.826.221-3.313,1.06-.691,2.688-.163,4.073-.214.448-.017.548.239.491.58-.179,1.069.5,1.275,1.328,1.457,2.974.655,5.94,1.352,9.135,2.085-1.528,1.718-2.95,3.309-4.361,4.91C-1848.023,1411.095-1848.319,1410.824-1848.637,1410.735Zm19.263,3.913c-2.825-.054-5.652-.021-8.479-.021-2.749,0-5.5-.022-8.247.013-.7.009-.982-.105-1.007-.919a3.7,3.7,0,0,1,1.1-2.989c1.23-1.229,2.352-2.568,3.47-3.9a1.326,1.326,0,0,1,1.5-.518q5.53,1.3,11.073,2.538c.637.143,1,.36,1.031,1.115a36.357,36.357,0,0,0,.413,3.689C-1828.414,1414.373-1828.544,1414.664-1829.374,1414.648Zm13.92-.552c-.025.987-.978.27-1.414.571-.41.017-.861-.247-1.21.18a6.541,6.541,0,0,0-2.972-.175c-1.7-.016-3.4-.075-5.1-.028-.779.021-1.088-.191-1.141-1-.106-1.58-.336-3.152-.475-4.731a1.024,1.024,0,0,0-.951-1.084c-1.214-.224-2.405-.572-3.617-.809-.479-.094-.637-.291-.634-.762.015-2.439.018-4.878,0-7.316-.005-.6.169-.75.741-.529q2.106.818,4.235,1.575a2.9,2.9,0,0,0,3.849-1.581,2.837,2.837,0,0,0-1.821-3.81c-2.057-.784-4.128-1.531-6.2-2.282-.454-.165-.825-.3-.81-.93.053-2.165.05-4.331.069-6.5a5.084,5.084,0,0,1,0-1.856c-.155-.581-.1-.93.669-.917,2.8.047,5.6.041,8.4.055h.473l7.653-.022.265.176q.025,9.256.047,18.512c0,1.888-.035,3.776-.055,5.664a4.247,4.247,0,0,1,0,1.624l.086.242h0c-.274.277.034.628-.117.92q0,.35-.007.7A22.412,22.412,0,0,1-1815.454,1414.1Z" transform="translate(2258.526 -876.102)"/><path class="b" d="M-1792.094,1389.263c-1.416.375-2.825.778-4.237,1.17-.443.123-.664.4-.538.857.118.426.448.483.834.386.485-.127.971-.248,1.454-.383q1.447-.405,2.89-.825c.406-.119.713-.334.553-.829S-1791.714,1389.162-1792.094,1389.263Z" transform="translate(2199.716 -897.672)"/><path class="b" d="M-1796.874,1367.04c1.484.41,2.979.782,4.679,1.221.251.082.579-.107.685-.542a.632.632,0,0,0-.542-.761c-1.489-.4-2.984-.767-4.475-1.152a.619.619,0,0,0-.817.441A.589.589,0,0,0-1796.874,1367.04Z" transform="translate(2200.084 -879.689)"/><path class="b" d="M-1782.357,1409.223c.356.389.74.27,1.089-.084,1.025-1.041,2.06-2.073,3.089-3.111a.79.79,0,0,0,.278-.61.612.612,0,0,0-.374-.532c-.361-.214-.591.01-.8.22-1.037,1.029-2.062,2.071-3.088,3.11C-1782.454,1408.507-1782.695,1408.854-1782.357,1409.223Z" transform="translate(2188.676 -909.641)"/><path class="b" d="M-1732.573,1414.274c-.1-.436-.368-.709-.83-.562s-.5.542-.39.954c.123.482.255.962.383,1.443a.163.163,0,0,1,.118.05l.194,1.18.608,1.5a.742.742,0,0,1,.194-.363.745.745,0,0,0-.194.363l.084.578.46.121c.588-.115.658-.547.635-1.036l-.212-.224.178-.113.021-.037c-.032-.095-.063-.189-.095-.279-.264-.557-.529-1.118-.793-1.679A4.322,4.322,0,0,0-1732.573,1414.274Z" transform="translate(2151.313 -916.452)"/><path class="b" d="M-1756,1418.914a.327.327,0,0,0,.115-.03,2.744,2.744,0,0,1,.345-1.368l.082-.27.279-1.605c.083-.212.176-.421.249-.637.147-.436.162-.872-.351-1.049-.623-.215-.778.268-.922.723-.079.252-.17.5-.255.749l-.008.7a3,3,0,0,0-.412,1.406l-.138.261-.292,1.669C-1756.618,1419.884-1756.115,1419.862-1756,1418.914Z" transform="translate(2169.323 -916.628)"/><path class="b" d="M-1674.123,1474.644c.313-.212.575-.418.4-.835-.185-.453-.6-.424-.985-.424q-4.354,0-8.708-.005c-.461,0-1.048-.054-1.08.577-.037.724.58.688,1.089.69,2.012.007,4.027.063,6.036-.008,1.02-.036,1.325.13,1.088,1.255a43.677,43.677,0,0,0-1.027,11.872c.112,1.723.247,3.453,1.449,4.856l.013.018c1.482-.186,1.891-.56,2.258-2.092a17.93,17.93,0,0,0,.423-3.45,48.634,48.634,0,0,0-1.049-11.3C-1674.284,1475.425-1674.611,1474.974-1674.123,1474.644Zm-1.1,16.413c-1.353-4.163-.855-8.342-.032-12.523C-1674.4,1482.707-1673.994,1486.881-1675.222,1491.057Z" transform="translate(2113.436 -962.279)"/><path class="b" d="M-1669.176,1464.208c1.858-.021,3.715-.011,5.573-.006.454,0,.933-.043.957-.592.029-.655-.516-.663-.994-.667q-2.263-.019-4.526-.031l-1.833.132C-1670.287,1463.829-1670.057,1464.218-1669.176,1464.208Z" transform="translate(2102.4 -954.245)"/></g></svg>