<svg xmlns="http://www.w3.org/2000/svg" width="29.212" height="26.939" viewBox="0 0 29.212 26.939"><defs><style>.a{fill:#7a35ff;}</style></defs><path class="a" d="M-1844.325,1387.254q0-.339,0-.679,0-.116.006-.233-.037-.972-.074-1.944.032-.4.064-.79c-.008-.246-.023-.493-.023-.739q0-5.7,0-11.4c0-.415-.038-.687-.571-.674-1.328.031-2.658.013-3.987.015l-.094-.094-.015-1.594q-.006-.113-.012-.226c.01-2.184.007-4.367.039-6.551.008-.513-.183-.641-.667-.637-2.355.021-4.711.006-7.066.014a1.444,1.444,0,0,1-.844-.237,2.6,2.6,0,0,0-3.024.213c-.282.247-.355.449-.053.744,1.006.981,2,1.976,2.988,2.973a.409.409,0,0,0,.709-.031,2.4,2.4,0,0,0,.5-2.447c-.219-.592.008-.583.465-.579,1.918.016,3.837.023,5.755-.01.505-.009.629.13.624.629-.02,1.974.01,3.948.021,5.922a.779.779,0,0,0,.01.459l-.062.212a1.221,1.221,0,0,1,.006.591l.052.213c-.058.152.033.347-.136.467l-.214-.053a1.284,1.284,0,0,1-.6.01.988.988,0,0,1-.681-.034l-.312.024a5.891,5.891,0,0,1-1.729-.011l-.335.017-.472.021-.2.141q0,.507,0,1.014c-.1.193.129.3.118.471-.239.227-.072.532-.154.79.006.778,0,1.557.024,2.334.012.366-.049.468-.434.314-.913-.365-1.846-.678-2.768-1.021a2.108,2.108,0,0,0-1.335-.064c-1.919.521-3.849,1-5.761,1.547-.461.131-.711.117-.862-.375a1.274,1.274,0,0,0-.357-.434c-.736-.74-1.481-1.472-2.214-2.215a1.562,1.562,0,0,0-1.369-.549c-.252.035-.334-.107-.483-.272a20.027,20.027,0,0,0-1.72-1.734c-.5-.429-1.185-.181-1.8.555-.461.554.153.738.389.979q2.812,2.861,5.681,5.666a1.443,1.443,0,0,1,.481,1.188c-.032,1.139.026,2.28-.023,3.417a1.9,1.9,0,0,0,.887,1.926l0,.008a.916.916,0,0,1,.754.192.826.826,0,0,1,.559.222l.335.153h.216l.143.122.971.294c.488.193.974.394,1.466.577.592.22.245.7.29,1.063.05.4-.309.208-.492.236-.487.076-1-.118-1.473.12a.6.6,0,0,0-.561-.1l-1.7.007a5.836,5.836,0,0,0-1.262,0c-.141.369-.142.61.381.578a12.365,12.365,0,0,1,1.337.055,3.134,3.134,0,0,1,1.133-.079,2.782,2.782,0,0,0,1.382.017l.562.079c.151-.011.3-.03.452-.03q6.551,0,13.1,0c.187,0,.374-.024.561-.037a3.523,3.523,0,0,0,1.392,0,.971.971,0,0,0,.551.013l.125.064c.2-.006.405-.021.607-.017C-1844.58,1388.036-1844.25,1387.854-1844.325,1387.254Zm-12.8-22.74c-.093.2-.158.4-.421.132-.821-.84-1.658-1.665-2.522-2.53a1.929,1.929,0,0,1,2.463.108A2,2,0,0,1-1857.121,1364.514ZM-1864.6,1377c1.553-.412,3.13-.758,4.65-1.27a4.811,4.811,0,0,1,3.556.176c1.944.8,3.939,1.464,5.909,2.194.637.236.85.763.511,1.235-.3.416-.694.377-1.119.219-1.934-.72-3.879-1.414-5.8-2.158a3.911,3.911,0,0,0-2.553-.127c-1.532.426-3.072.824-4.609,1.234l-.354.094a.828.828,0,0,1-.87-.71C-1865.356,1377.393-1865.061,1377.118-1864.6,1377Zm10.338,4.26c0,.588-.015,1.176,0,1.764.01.3-.051.4-.376.321-2.728-.637-5.458-1.259-8.188-1.887-.156-.036-.357-.006-.378-.254-.022-.27.171-.291.359-.34.677-.178,1.346-.392,2.029-.543a3.094,3.094,0,0,0,2.383-2.2c.131-.394.3-.469.65-.342q1.654.6,3.313,1.189c.248.088.2.288.2.471C-1854.261,1380.041-1854.262,1380.648-1854.262,1381.255Zm-11.435-2.711a1.518,1.518,0,0,0,1.761.576c1.606-.431,3.212-.86,4.949-1.325a2.457,2.457,0,0,1-1.57,1.787,13.351,13.351,0,0,1-5.178.839c-.37-.037-.5-.112-.47-.485.03-.415,0-.834,0-1.251a.4.4,0,0,1,.259-.4C-1865.784,1378.232-1865.77,1378.447-1865.7,1378.544Zm-4.86-5.12c-.277.3-.389.01-.528-.125q-.714-.688-1.4-1.4c-.091-.094-.308-.179-.19-.35a.709.709,0,0,1,.582-.355,1.111,1.111,0,0,1,.27.152c.459.449.911.906,1.363,1.361C-1870.185,1372.986-1870.341,1373.191-1870.557,1373.424Zm4.18,4.359c-.144.127-.24-.018-.329-.108q-1.715-1.708-3.427-3.419c-.1-.095-.177-.161-.073-.327a1.075,1.075,0,0,1,1.669-.255c.825.784,1.62,1.6,2.426,2.406a1.094,1.094,0,0,1,.32.676A1.328,1.328,0,0,1-1866.377,1377.783Zm5.065,7.675a6.342,6.342,0,0,0-1.509-.465,3.417,3.417,0,0,0-1.233-.509c-.506-.2-1.007-.419-1.52-.6a.832.832,0,0,1-.62-.9c0-.076,0-.152,0-.228.043-.562-.258-1.387.109-1.626.52-.339,1.319-.08,2-.105.22-.008.269.117.241.285-.088.525.246.625.651.715,1.46.321,2.915.663,4.483,1.023-.75.843-1.448,1.624-2.14,2.409C-1861.011,1385.635-1861.156,1385.5-1861.312,1385.458Zm9.453,1.92c-1.386-.026-2.774-.01-4.161-.01-1.349,0-2.7-.011-4.047.006-.345,0-.482-.052-.494-.451a1.816,1.816,0,0,1,.542-1.467c.6-.6,1.154-1.26,1.7-1.915a.651.651,0,0,1,.734-.254q2.714.637,5.434,1.245c.313.07.489.177.506.547a17.8,17.8,0,0,0,.2,1.81C-1851.388,1387.244-1851.452,1387.386-1851.86,1387.379Zm6.831-.271c-.012.484-.48.132-.694.28-.2.009-.423-.121-.594.089a3.209,3.209,0,0,0-1.458-.086c-.835-.008-1.67-.037-2.5-.014-.382.01-.534-.094-.56-.49-.052-.776-.165-1.547-.233-2.322a.5.5,0,0,0-.466-.532c-.6-.11-1.18-.28-1.775-.4-.235-.046-.313-.143-.311-.374.007-1.2.009-2.394,0-3.59,0-.3.083-.368.364-.259q1.034.4,2.078.773a1.422,1.422,0,0,0,1.889-.776,1.392,1.392,0,0,0-.894-1.87c-1.01-.385-2.026-.751-3.042-1.12-.223-.081-.4-.148-.4-.456.026-1.062.025-2.126.034-3.188a2.5,2.5,0,0,1,0-.911c-.076-.285-.048-.456.328-.45,1.374.023,2.749.02,4.123.027h.232l3.756-.011.13.086q.012,4.542.023,9.084c0,.927-.017,1.853-.027,2.78a2.087,2.087,0,0,1,0,.8l.042.119h0c-.134.136.017.308-.057.451q0,.172,0,.344A11.009,11.009,0,0,1-1845.029,1387.108Z" transform="translate(1873.526 -1361.102)"/><path class="a" d="M-1794.544,1389.233c-.695.184-1.386.382-2.079.574-.218.06-.326.2-.264.421s.22.237.409.189c.238-.063.477-.122.714-.188q.71-.2,1.418-.4c.2-.058.35-.164.272-.407S-1794.358,1389.184-1794.544,1389.233Z" transform="translate(1805.645 -1385.999)"/><path class="a" d="M-1797.134,1366.4c.729.2,1.462.384,2.3.6.123.04.284-.052.336-.266a.31.31,0,0,0-.266-.374c-.73-.194-1.464-.376-2.2-.566a.3.3,0,0,0-.4.216A.289.289,0,0,0-1797.134,1366.4Z" transform="translate(1806.07 -1365.242)"/><path class="a" d="M-1782.441,1406.97c.175.191.363.133.535-.041.5-.511,1.011-1.018,1.516-1.527a.387.387,0,0,0,.136-.3.3.3,0,0,0-.183-.261c-.177-.1-.29,0-.394.108-.509.505-1.012,1.016-1.516,1.526C-1782.488,1406.619-1782.606,1406.789-1782.441,1406.97Z" transform="translate(1792.903 -1399.814)"/><path class="a" d="M-1733.219,1413.968c-.047-.214-.18-.348-.407-.275s-.243.266-.192.468c.06.236.125.472.188.708a.08.08,0,0,1,.058.024l.1.579.3.734a.364.364,0,0,1,.095-.178.366.366,0,0,0-.095.178l.041.284.226.06c.288-.056.323-.268.312-.509l-.1-.11.087-.055.01-.018c-.015-.047-.031-.093-.046-.137l-.39-.824A2.115,2.115,0,0,0-1733.219,1413.968Z" transform="translate(1749.776 -1407.676)"/><path class="a" d="M-1756.664,1416.362a.166.166,0,0,0,.056-.015,1.344,1.344,0,0,1,.169-.671l.04-.132.137-.788c.041-.1.087-.207.122-.313.072-.214.08-.428-.172-.515-.306-.106-.382.131-.452.355-.039.123-.083.245-.125.368l0,.342a1.469,1.469,0,0,0-.2.69l-.068.128-.143.819C-1756.969,1416.838-1756.722,1416.827-1756.664,1416.362Z" transform="translate(1770.564 -1407.879)"/><path class="a" d="M-1679.4,1474c.154-.1.282-.2.2-.41-.091-.222-.292-.208-.484-.208q-2.137,0-4.273,0c-.226,0-.514-.027-.53.283-.018.355.285.338.534.339.988,0,1.976.031,2.962,0,.5-.018.65.064.534.616a21.436,21.436,0,0,0-.5,5.826,3.8,3.8,0,0,0,.711,2.383l.006.008c.727-.091.928-.275,1.108-1.026a8.814,8.814,0,0,0,.208-1.693,23.868,23.868,0,0,0-.515-5.543C-1679.484,1474.383-1679.644,1474.161-1679.4,1474Zm-.539,8.054a11.989,11.989,0,0,1-.015-6.145A12.524,12.524,0,0,1-1679.944,1482.054Z" transform="translate(1706.058 -1460.571)"/><path class="a" d="M-1669.655,1463.547c.912-.01,1.823-.005,2.735,0,.223,0,.458-.021.47-.291.014-.322-.253-.325-.488-.327q-1.11-.01-2.221-.015l-.9.065C-1670.2,1463.361-1670.088,1463.552-1669.655,1463.547Z" transform="translate(1693.32 -1451.297)"/></svg>