<svg xmlns="http://www.w3.org/2000/svg" width="100" height="80" viewBox="0 0 100 80"><defs><style>.a{fill:#fff;stroke:#7a35ff;}.b{fill:#7a35ff;}.c{stroke:none;}.d{fill:none;}</style></defs><g class="a"><rect class="c" width="100" height="80" rx="4"/><rect class="d" x="0.5" y="0.5" width="99" height="79" rx="3.5"/></g><g transform="translate(-366 -592)"><path class="b" d="M-2164.218,2234.041c.1-.747.185-1.485.339-2.213a13.13,13.13,0,0,1,3.827-7.054,12.444,12.444,0,0,1,6.617-3.25,4.913,4.913,0,0,1,2.173.253,12.4,12.4,0,0,1,8.814,8.391,15.866,15.866,0,0,1,.757,3.891c.078.016.088-.049.113-.085a8.92,8.92,0,0,0,1.594-4.146,6.5,6.5,0,0,0,0-1.227c-.024-.281.093-.47.322-.494s.393.129.429.41a7.145,7.145,0,0,1-.259,2.826,10.483,10.483,0,0,1-1.986,3.768.709.709,0,0,0-.173.464,20.054,20.054,0,0,1-.906,5.645,22.444,22.444,0,0,1-2.642,5.744,15.192,15.192,0,0,1-4.672,4.791,9.473,9.473,0,0,1-2.765,1.172,1.39,1.39,0,0,1-.7-.03,10.422,10.422,0,0,1-4.153-2.238,16.28,16.28,0,0,1-2.772-3.08.521.521,0,0,1-.134-.345.357.357,0,0,1,.255-.333.377.377,0,0,1,.446.167c.283.374.553.758.85,1.121a12.448,12.448,0,0,0,4.042,3.357,8.788,8.788,0,0,0,1.542.59,1.18,1.18,0,0,0,.657,0,9.477,9.477,0,0,0,3.6-1.959,16.9,16.9,0,0,0,3.894-4.906,22.279,22.279,0,0,0,2.385-6.611,17.825,17.825,0,0,0,.216-5.134,14.144,14.144,0,0,0-1.227-4.64,11.4,11.4,0,0,0-6.427-5.972,11.636,11.636,0,0,0-2.611-.668,3.187,3.187,0,0,0-1.1.137,11.681,11.681,0,0,0-6.027,3.247,12.13,12.13,0,0,0-3.148,5.895,17.716,17.716,0,0,0-.395,4.88,13.668,13.668,0,0,0,.2,1.75,2.13,2.13,0,0,1,.024.222.365.365,0,0,1-.317.433.37.37,0,0,1-.425-.336c-.068-.434-.135-.868-.179-1.3a13.556,13.556,0,0,1-.092-1.715.472.472,0,0,0-.139-.317,10.287,10.287,0,0,1-2.163-4.409,6.46,6.46,0,0,1-.115-2.2c.041-.3.2-.453.44-.423s.337.221.312.522a7.419,7.419,0,0,0,.55,3.386A8.63,8.63,0,0,0-2164.218,2234.041Z" transform="translate(2574.411 -1619.761)"/><path class="b" d="M-2269.767,2382.173a1,1,0,0,1-.969-.541c-.108-.2-.2-.191-.373-.088q-2.966,1.744-5.938,3.474l-5.149,3.008a2.015,2.015,0,0,1-.278.143.36.36,0,0,1-.46-.163.354.354,0,0,1,.086-.463,1.006,1.006,0,0,1,.186-.123l11.128-6.5c.058-.034.114-.073.173-.1.085-.043.1-.094.05-.178q-.478-.833-.949-1.67c-.091-.162-.183-.068-.274-.014l-3.569,2.083-7.68,4.478a.481.481,0,0,1-.443.082.359.359,0,0,1-.23-.306.374.374,0,0,1,.215-.385l1.832-1.071,8.142-4.75c.463-.27.924-.543,1.391-.807.137-.077.148-.144.071-.279a1.045,1.045,0,0,1,.4-1.528q.335-.2.679-.387a.973.973,0,0,1,.961-.037.224.224,0,0,0,.295-.04q2.155-1.9,4.316-3.784c.271-.237.447-.231.689.03a14.829,14.829,0,0,1,2.5,3.763,18.213,18.213,0,0,1,.807,2.009c.111.332.029.5-.307.617-1.742.613-3.482,1.227-5.227,1.831-.225.078-.367.171-.391.432a.864.864,0,0,1-.39.628,7.086,7.086,0,0,1-.96.569A.71.71,0,0,1-2269.767,2382.173Zm3.561-4.2a.358.358,0,0,1-.4-.256.345.345,0,0,1,.159-.425,1.253,1.253,0,0,1,.244-.108c.759-.288,1.516-.579,2.278-.857.183-.067.2-.141.114-.308-.268-.525-.556-1.036-.874-1.532-.095-.149-.158-.176-.3-.059-.435.35-.882.685-1.324,1.026-.618.478-1.235.958-1.857,1.432a.378.378,0,0,1-.609-.091c-.1-.184-.035-.365.185-.536q1.4-1.087,2.811-2.172c.531-.409.525-.4.114-.928-.128-.165-.209-.171-.363-.036q-1.977,1.742-3.965,3.472a.2.2,0,0,0-.058.3q.829,1.43,1.642,2.869a.161.161,0,0,0,.234.085c.188-.073.378-.137.567-.2,1.482-.52,2.963-1.043,4.448-1.555.175-.061.2-.134.127-.289-.1-.224-.195-.452-.274-.684-.056-.164-.134-.174-.283-.116-.743.29-1.489.569-2.233.85A1.47,1.47,0,0,1-2266.206,2377.97Zm-2.614,2.72a.408.408,0,0,0-.069-.232q-1.017-1.773-2.035-3.545c-.129-.224-.248-.257-.481-.134-.2.1-.389.219-.582.332-.278.163-.306.263-.149.542q.406.72.817,1.437c.4.7.794,1.4,1.2,2.1.157.272.274.3.546.135.2-.117.395-.238.593-.357A.3.3,0,0,0-2268.819,2380.69Z" transform="translate(2678.459 -1752.797)"/><path class="b" d="M-2076.461,2423.862a4.7,4.7,0,0,1-3.511-1.59.391.391,0,0,1,0-.626,4.66,4.66,0,0,1,3.715-1.591,4.667,4.667,0,0,1,3.362,1.632.38.38,0,0,1-.032.594,4.871,4.871,0,0,1-2.8,1.539,2.58,2.58,0,0,1-.309.041C-2076.178,2423.867-2076.32,2423.862-2076.461,2423.862Zm0-3.046a3.857,3.857,0,0,0-2.618,1.022c-.09.078-.14.13-.02.24a3.92,3.92,0,0,0,5.285.02c.095-.085.154-.142.019-.257A3.987,3.987,0,0,0-2076.463,2420.816Z" transform="translate(2497.919 -1795.208)"/><path class="b" d="M-2117.112,2312.023a7.216,7.216,0,0,1,4.013,1.277.38.38,0,0,1,.16.552.385.385,0,0,1-.569.085,7.066,7.066,0,0,0-2.472-1.046,4.548,4.548,0,0,0-3.255.488.389.389,0,0,1-.569-.083c-.123-.194-.056-.4.182-.564A4.782,4.782,0,0,1-2117.112,2312.023Z" transform="translate(2533.029 -1699.759)"/><path class="b" d="M-2033.319,2312a5.372,5.372,0,0,1,2.675.586,2.529,2.529,0,0,1,.248.151.38.38,0,0,1,.146.538.379.379,0,0,1-.548.1,3.944,3.944,0,0,0-1-.438,5.152,5.152,0,0,0-3.364.254,7.965,7.965,0,0,0-1.346.7.537.537,0,0,1-.308.118.363.363,0,0,1-.353-.26.356.356,0,0,1,.169-.44,8.286,8.286,0,0,1,1.62-.846A6.007,6.007,0,0,1-2033.319,2312Z" transform="translate(2459.98 -1699.736)"/><path class="b" d="M-2028.659,2340.66a3.491,3.491,0,0,1-2.776-1.681,1.125,1.125,0,0,1-.09-.154.381.381,0,0,1,.141-.507.36.36,0,0,1,.5.131,3.309,3.309,0,0,0,.8.893,2.915,2.915,0,0,0,3.974-.5c.033-.04.064-.083.1-.12a.373.373,0,0,1,.52-.07.37.37,0,0,1,.067.536,3.2,3.2,0,0,1-.649.672A3.829,3.829,0,0,1-2028.659,2340.66Z" transform="translate(2455.014 -1722.943)"/><path class="b" d="M-2116.309,2340.667a3.512,3.512,0,0,1-2.463-1.4.4.4,0,0,1-.093-.471.373.373,0,0,1,.646-.044,3.364,3.364,0,0,0,.962.82,2.9,2.9,0,0,0,3.76-.917c.047-.067.088-.138.137-.2a.363.363,0,0,1,.507-.12.366.366,0,0,1,.125.523,3.377,3.377,0,0,1-.852.994A3.921,3.921,0,0,1-2116.309,2340.667Z" transform="translate(2532.184 -1722.953)"/><path class="b" d="M-2080.91,2197.512c0,.28-.243.432-.542.33a7.18,7.18,0,0,1-1.79-.894,5.81,5.81,0,0,1-1.3-1.213.389.389,0,0,1-.017-.545.374.374,0,0,1,.6.062,5.664,5.664,0,0,0,2.125,1.62c.216.1.44.18.66.27A.368.368,0,0,1-2080.91,2197.512Z" transform="translate(2501.924 -1596.423)"/><path class="b" d="M-2062.335,2397.411a2.439,2.439,0,0,1-1.656-.672.382.382,0,0,1-.067-.57.38.38,0,0,1,.572,0,1.613,1.613,0,0,0,2.292,0,.381.381,0,0,1,.573-.008.383.383,0,0,1-.062.572A2.421,2.421,0,0,1-2062.335,2397.411Z" transform="translate(2483.81 -1773.993)"/></g><g transform="translate(10.684 48.336)"><path class="b" d="M-2622.255,1566.383h-9.476a1.692,1.692,0,0,1-.224-.006c-.159-.022-.283-.111-.285-.273a9.9,9.9,0,0,1,.033-1.827,1.876,1.876,0,0,1,1.854-1.541c1.782-.006,3.564,0,5.346,0,.043,0,.087,0,.13,0s.086,0,.1-.022c.038-.044-.016-.079-.039-.111q-.415-.576-.834-1.15-.89-1.224-1.78-2.449a.406.406,0,0,0-.282-.185,6.57,6.57,0,0,1-4.282-2.767c-1.74-2.355-3.451-4.731-5.174-7.1q-1.55-2.131-3.1-4.263a2.18,2.18,0,0,1,.158-2.885,2.119,2.119,0,0,1,3.194.194c.882,1.176,1.737,2.372,2.6,3.561q2.348,3.225,4.7,6.452c.05.068.086.191.168.178s.08-.142.109-.221c.146-.4.291-.8.428-1.2a.5.5,0,0,1,.359-.342q2.791-.838,5.58-1.683c.047-.014.1-.029.145-.039a.324.324,0,0,1,.39.2.319.319,0,0,1-.2.41c-.21.078-.426.137-.641.2q-2.44.737-4.882,1.472a.281.281,0,0,0-.2.193c-.183.523-.372,1.044-.559,1.566a.2.2,0,0,0,0,.212,4.862,4.862,0,0,0,1.18,1.287,2.148,2.148,0,0,0,1.373.316,10.682,10.682,0,0,0,2.309-.6c2.6-.775,5.185-1.57,7.776-2.36a2.359,2.359,0,0,1,1.377-.018c2.352.674,4.708,1.335,7.061,2.007a2.151,2.151,0,0,1,1.6,2.176,2.166,2.166,0,0,1-1.651,2.024,2.35,2.35,0,0,1-1.233-.06q-3.126-.888-6.255-1.769a.522.522,0,0,0-.309,0q-3.038.924-6.078,1.843c-.221.067-.221.068-.081.26q1.639,2.251,3.276,4.5a.338.338,0,0,0,.31.156q2.037-.007,4.074,0a1.891,1.891,0,0,1,1.9,1.554,7.979,7.979,0,0,1,.042,1.771c-.007.227-.154.322-.42.322h-9.588Zm7.041-11.957c0,.243.006.486,0,.729a.2.2,0,0,0,.177.234c2.08.584,4.156,1.178,6.237,1.758a1.493,1.493,0,0,0,1.9-1.46,1.514,1.514,0,0,0-1.214-1.483c-2.222-.629-4.448-1.246-6.664-1.9a2.68,2.68,0,0,0-1.621.023q-4.552,1.4-9.115,2.764a3.182,3.182,0,0,1-2.145-.064,3.366,3.366,0,0,1-1.428-1.2q-1.6-2.175-3.184-4.362-1.794-2.462-3.583-4.927c-.083-.115-.144-.137-.266-.048-.369.266-.746.521-1.12.779-.2.141-.407.288-.619.419a.31.31,0,0,1-.417-.08.331.331,0,0,1,.043-.441,1.178,1.178,0,0,1,.15-.112q.791-.548,1.583-1.094c.082-.057.155-.1.068-.216-.347-.464-.671-.946-1.033-1.4a1.34,1.34,0,0,0-1.3-.509,1.5,1.5,0,0,0-1,2.416c.207.289.418.574.626.862q3.065,4.217,6.133,8.432a32.294,32.294,0,0,0,2.082,2.757,5.686,5.686,0,0,0,2.737,1.742,6.355,6.355,0,0,0,3.505-.056c2.884-.848,5.759-1.731,8.638-2.6a.212.212,0,0,0,.176-.24c-.007-.48,0-.959,0-1.439,0-.238.143-.4.334-.392a.35.35,0,0,1,.319.388C-2615.213,1553.953-2615.215,1554.19-2615.214,1554.427Zm-11.465,4.475c.063.1.1.152.137.206q1.269,1.745,2.537,3.492a.312.312,0,0,0,.284.136q1.336-.005,2.672,0a.314.314,0,0,1,.347.291.323.323,0,0,1-.31.352,3.19,3.19,0,0,1-.373.009q-4.458,0-8.913,0a1.252,1.252,0,0,0-1.3,1.3c0,.262,0,.523,0,.785s0,.257.259.257h18.125l.187,0c.065,0,.113-.033.111-.1a5.382,5.382,0,0,0-.051-1.339,1.236,1.236,0,0,0-1.254-.9c-1.482,0-2.965,0-4.447,0a.869.869,0,0,1-.3-.028.291.291,0,0,1-.223-.325.376.376,0,0,0-.091-.305q-1.635-2.241-3.266-4.487a.233.233,0,0,0-.308-.1A11.292,11.292,0,0,1-2626.679,1558.9Z" transform="translate(2640.732 -1542.507)"/></g><g transform="translate(65.961 43.4)"><path class="b" d="M-2150.7,1396.24c0-2.1.047-4.2-.014-6.292a4.777,4.777,0,0,0-2.678-4.264,3.544,3.544,0,0,0-1.685-.4c-.339,0-.461-.122-.461-.461q0-2,0-4c0-.362.125-.488.487-.492s.549-.188.544-.5a.483.483,0,0,0-.471-.485c-.177-.007-.354,0-.531,0q-2.171,0-4.341,0a.479.479,0,0,0-.453.25.492.492,0,0,0,.009.52.477.477,0,0,0,.452.221c.911,0,1.822,0,2.732,0a1.268,1.268,0,0,1,.187.007.356.356,0,0,1,.328.37.35.35,0,0,1-.372.323c-.708,0-1.415,0-2.123,0-.254,0-.254,0-.254.256q0,1.726,0,3.451a1.434,1.434,0,0,1-.01.2.342.342,0,0,1-.388.338,3.681,3.681,0,0,0-1.449.262,4.875,4.875,0,0,0-2.795,3.172,4.23,4.23,0,0,0-.131.562c-.019.113.018.143.129.143.708,0,1.416,0,2.124,0h4.512a1.145,1.145,0,0,1,1.229,1.23q0,4.614,0,9.228a1.166,1.166,0,0,1-1.285,1.289q-2.779,0-5.559,0c-.463,0-.926,0-1.39,0a1.407,1.407,0,0,1-.263-.023.324.324,0,0,1-.266-.321.335.335,0,0,1,.239-.345.94.94,0,0,1,.294-.028h7.011c.357,0,.51-.154.516-.514,0-.219,0-.437,0-.656q0-4.278,0-8.556a1.241,1.241,0,0,0-.013-.217.417.417,0,0,0-.453-.382c-.312,0-.625,0-.937,0q-2.88,0-5.761,0c-.122,0-.212.01-.276.141a.312.312,0,0,1-.38.137.356.356,0,0,1-.245-.376,5.813,5.813,0,0,1,.075-.838,5.623,5.623,0,0,1,2.658-3.953,4.192,4.192,0,0,1,1.911-.624c.135-.01.188-.062.188-.2q-.007-1.6,0-3.2a.185.185,0,0,0-.155-.209,1.171,1.171,0,0,1-.856-1.153,1.184,1.184,0,0,1,.862-1.151.183.183,0,0,0,.148-.213c0-.51-.005-1.02,0-1.53a1.435,1.435,0,0,1,.861-1.4,1.251,1.251,0,0,1,.53-.116c.817,0,1.634,0,2.451,0a1.4,1.4,0,0,1,1.381,1.388q.007.828,0,1.655a.184.184,0,0,0,.163.214,1.185,1.185,0,0,1,.876,1.157,1.177,1.177,0,0,1-.878,1.154c-.112.032-.162.074-.161.2q.007,1.608,0,3.216c0,.123.035.182.162.192a4.694,4.694,0,0,1,3.088,1.53,5.647,5.647,0,0,1,1.565,3.329,5.108,5.108,0,0,1,.028.592q0,6.3,0,12.6a1.528,1.528,0,0,1-1.309,1.564,1.552,1.552,0,0,1-.264.017q-5.879,0-11.758,0a1.532,1.532,0,0,1-1.531-1.241,5,5,0,0,1-.029-1.292.335.335,0,0,1,.338-.323.334.334,0,0,1,.349.328c.02.332.009.666.017,1a.824.824,0,0,0,.671.809,1.111,1.111,0,0,0,.233.016h11.679a.837.837,0,0,0,.9-.9q0-3.2,0-6.4Zm-6.75-17.594c.577,0,1.155,0,1.732,0,.134,0,.184-.036.182-.175-.007-.536,0-1.072,0-1.607a.7.7,0,0,0-.739-.732q-1.163,0-2.325,0a.692.692,0,0,0-.739.729c0,.536,0,1.071,0,1.607,0,.137.044.179.18.178C-2158.59,1378.643-2158.018,1378.646-2157.446,1378.646Z" transform="translate(2169.066 -1375.429)"/><path class="b" d="M-2192.293,1476.128a6.242,6.242,0,0,1,.681-2.931.469.469,0,0,1,.377-.285,5.922,5.922,0,0,1,4.9,1.386,6.318,6.318,0,0,1,2.163,3.852,5.668,5.668,0,0,1-.369,3.225c-.052.124-.033.187.078.251.153.088.3.187.447.285a.345.345,0,0,1,.125.487.337.337,0,0,1-.477.113c-.216-.124-.425-.261-.634-.4a.337.337,0,0,0-.246-.063,6.386,6.386,0,0,1-3.631-.572,5.786,5.786,0,0,1-3.155-3.675A5.315,5.315,0,0,1-2192.293,1476.128Zm6.243,5.254c0-.053-.033-.065-.056-.084-.354-.291-.7-.6-1.02-.919a18.493,18.493,0,0,1-2.911-3.79c-.144-.245-.117-.442.074-.559s.383-.043.529.2l.016.027a18.565,18.565,0,0,0,1.052,1.6,15.5,15.5,0,0,0,3.027,3.153c.147.113.148.111.216-.066a4.918,4.918,0,0,0,.289-2.453,5.65,5.65,0,0,0-2.139-3.806,5.247,5.247,0,0,0-3.857-1.12.3.3,0,0,0-.279.2,5.407,5.407,0,0,0-.417,3.094,5.147,5.147,0,0,0,1.96,3.385,5.628,5.628,0,0,0,2.978,1.133C-2186.41,1481.4-2186.229,1481.382-2186.051,1481.382Z" transform="translate(2192.295 -1458.054)"/><path class="b" d="M-2087.678,1476.415q0-2.584,0-5.167a.829.829,0,0,1,.023-.248.357.357,0,0,1,.35-.259.351.351,0,0,1,.326.287,1.235,1.235,0,0,1,.019.233q0,5.159,0,10.317a1.482,1.482,0,0,1-.021.248.351.351,0,0,1-.323.29.359.359,0,0,1-.347-.241.805.805,0,0,1-.028-.262Q-2087.677,1479.014-2087.678,1476.415Z" transform="translate(2103.554 -1456.278)"/><path class="b" d="M-2183.115,1483.638a.318.318,0,0,1-.283-.19c-.134-.276-.264-.553-.384-.835a.337.337,0,0,1,.178-.443.337.337,0,0,1,.451.16c.134.27.265.542.381.82A.35.35,0,0,1-2183.115,1483.638Z" transform="translate(2185.097 -1465.944)"/></g></svg>