<svg xmlns="http://www.w3.org/2000/svg" width="31.373" height="27.969" viewBox="0 0 31.373 27.969"><defs><style>.a{fill:#7a35ff;}</style></defs><path class="a" d="M-2164.811,2231.039c.075-.569.141-1.13.258-1.684a9.993,9.993,0,0,1,2.912-5.368,9.473,9.473,0,0,1,5.035-2.473,3.74,3.74,0,0,1,1.654.193,9.435,9.435,0,0,1,6.707,6.385,12.057,12.057,0,0,1,.576,2.96c.06.012.067-.037.086-.064a6.787,6.787,0,0,0,1.213-3.155,4.931,4.931,0,0,0,0-.934c-.018-.214.071-.358.245-.376s.3.1.327.312a5.445,5.445,0,0,1-.2,2.151,7.983,7.983,0,0,1-1.512,2.867.541.541,0,0,0-.132.353,15.264,15.264,0,0,1-.69,4.3,17.081,17.081,0,0,1-2.01,4.371,11.557,11.557,0,0,1-3.555,3.646,7.2,7.2,0,0,1-2.1.892,1.061,1.061,0,0,1-.534-.023,7.929,7.929,0,0,1-3.16-1.7,12.409,12.409,0,0,1-2.109-2.343.4.4,0,0,1-.1-.263.272.272,0,0,1,.194-.254.287.287,0,0,1,.34.127c.216.284.421.577.647.853a9.478,9.478,0,0,0,3.075,2.555,6.673,6.673,0,0,0,1.173.449.9.9,0,0,0,.5,0,7.213,7.213,0,0,0,2.741-1.491,12.85,12.85,0,0,0,2.963-3.734,16.94,16.94,0,0,0,1.814-5.031,13.561,13.561,0,0,0,.164-3.907,10.765,10.765,0,0,0-.934-3.531,8.677,8.677,0,0,0-4.891-4.545,8.837,8.837,0,0,0-1.987-.508,2.426,2.426,0,0,0-.839.1,8.891,8.891,0,0,0-4.586,2.471,9.232,9.232,0,0,0-2.4,4.486,13.5,13.5,0,0,0-.3,3.714,10.453,10.453,0,0,0,.152,1.332,1.578,1.578,0,0,1,.018.169.277.277,0,0,1-.241.33.282.282,0,0,1-.323-.256c-.052-.33-.1-.661-.136-.993a10.315,10.315,0,0,1-.07-1.3.36.36,0,0,0-.106-.241,7.83,7.83,0,0,1-1.646-3.355,4.911,4.911,0,0,1-.087-1.671c.031-.228.152-.345.334-.322s.257.168.237.4a5.646,5.646,0,0,0,.418,2.576A6.585,6.585,0,0,0-2164.811,2231.039Z" transform="translate(2177.133 -2219.142)"/><path class="a" d="M-2273.279,2379.753a.762.762,0,0,1-.737-.411c-.082-.154-.151-.146-.284-.067q-2.257,1.327-4.519,2.644l-3.918,2.289a1.515,1.515,0,0,1-.211.108.274.274,0,0,1-.351-.124.269.269,0,0,1,.066-.353.753.753,0,0,1,.141-.094l8.468-4.947c.044-.026.086-.055.132-.078.065-.032.075-.072.038-.136q-.364-.634-.722-1.271c-.069-.123-.139-.051-.209-.011l-2.716,1.585-5.844,3.407a.366.366,0,0,1-.337.062.272.272,0,0,1-.175-.233.284.284,0,0,1,.163-.292l1.394-.815,6.2-3.615c.353-.205.7-.414,1.058-.614.1-.059.112-.11.054-.212a.8.8,0,0,1,.306-1.163q.255-.153.517-.295a.739.739,0,0,1,.731-.029.171.171,0,0,0,.225-.03q1.64-1.442,3.284-2.88c.206-.181.34-.176.524.023a11.291,11.291,0,0,1,1.9,2.864,13.8,13.8,0,0,1,.614,1.528c.085.253.022.38-.233.47-1.326.466-2.65.934-3.978,1.393-.171.059-.28.13-.3.329a.657.657,0,0,1-.3.477,5.4,5.4,0,0,1-.731.433A.537.537,0,0,1-2273.279,2379.753Zm2.71-3.2a.273.273,0,0,1-.306-.195.262.262,0,0,1,.121-.323.947.947,0,0,1,.186-.083c.578-.219,1.154-.44,1.734-.652.139-.051.151-.107.087-.234-.2-.4-.423-.788-.665-1.166-.072-.113-.12-.134-.231-.044-.331.266-.671.521-1.007.781-.471.363-.94.729-1.414,1.09a.288.288,0,0,1-.463-.069c-.073-.14-.027-.278.141-.408q1.069-.827,2.139-1.653c.4-.311.4-.305.086-.706-.1-.125-.159-.13-.276-.027q-1.5,1.325-3.017,2.642a.152.152,0,0,0-.044.228q.631,1.088,1.25,2.184a.122.122,0,0,0,.178.065c.143-.055.288-.1.432-.155,1.128-.4,2.255-.793,3.385-1.183.134-.046.15-.1.1-.22-.077-.17-.148-.344-.208-.52-.043-.125-.1-.132-.216-.088-.565.22-1.133.433-1.7.647A1.129,1.129,0,0,1-2270.569,2376.555Zm-1.989,2.07a.309.309,0,0,0-.052-.177q-.774-1.349-1.549-2.7c-.1-.171-.189-.2-.366-.1-.15.079-.3.167-.443.253-.211.124-.233.2-.113.412.206.365.414.729.622,1.094.3.532.6,1.064.91,1.594.119.207.208.225.415.1.151-.089.3-.181.451-.272A.226.226,0,0,0-2272.558,2378.625Z" transform="translate(2284.458 -2356.369)"/><path class="a" d="M-2077.338,2422.951a3.577,3.577,0,0,1-2.672-1.21.3.3,0,0,1,0-.476,3.546,3.546,0,0,1,2.827-1.211,3.551,3.551,0,0,1,2.558,1.242.289.289,0,0,1-.024.452,3.708,3.708,0,0,1-2.134,1.171,1.988,1.988,0,0,1-.235.031C-2077.122,2422.955-2077.23,2422.951-2077.338,2422.951Zm0-2.319a2.933,2.933,0,0,0-1.992.778c-.068.059-.107.1-.015.182a2.982,2.982,0,0,0,4.022.016c.072-.065.117-.108.014-.2A3.035,3.035,0,0,0-2077.339,2420.633Z" transform="translate(2098.231 -2400.116)"/><path class="a" d="M-2117.769,2312.023a5.5,5.5,0,0,1,3.054.972.29.29,0,0,1,.122.42.293.293,0,0,1-.433.065,5.38,5.38,0,0,0-1.881-.8,3.462,3.462,0,0,0-2.477.371.3.3,0,0,1-.433-.063c-.094-.148-.042-.308.139-.43A3.638,3.638,0,0,1-2117.769,2312.023Z" transform="translate(2134.448 -2301.66)"/><path class="a" d="M-2034.244,2312a4.081,4.081,0,0,1,2.036.446,1.9,1.9,0,0,1,.188.115.289.289,0,0,1,.111.409.288.288,0,0,1-.417.074,3.013,3.013,0,0,0-.76-.334,3.92,3.92,0,0,0-2.559.193,6.06,6.06,0,0,0-1.024.531.409.409,0,0,1-.234.09.276.276,0,0,1-.269-.2.271.271,0,0,1,.129-.335,6.289,6.289,0,0,1,1.233-.644A4.563,4.563,0,0,1-2034.244,2312Z" transform="translate(2059.098 -2301.637)"/><path class="a" d="M-2029.354,2340.087a2.657,2.657,0,0,1-2.112-1.28.848.848,0,0,1-.069-.117.291.291,0,0,1,.108-.385.274.274,0,0,1,.384.1,2.516,2.516,0,0,0,.607.679,2.218,2.218,0,0,0,3.024-.379c.025-.031.049-.063.076-.091a.284.284,0,0,1,.4-.053.282.282,0,0,1,.051.408,2.445,2.445,0,0,1-.494.511A2.914,2.914,0,0,1-2029.354,2340.087Z" transform="translate(2053.974 -2325.575)"/><path class="a" d="M-2116.93,2340.094a2.673,2.673,0,0,1-1.874-1.063.308.308,0,0,1-.071-.358.284.284,0,0,1,.492-.034,2.559,2.559,0,0,0,.732.624,2.211,2.211,0,0,0,2.861-.7c.035-.051.067-.105.1-.155a.276.276,0,0,1,.386-.091.279.279,0,0,1,.095.4,2.569,2.569,0,0,1-.648.756A2.984,2.984,0,0,1-2116.93,2340.094Z" transform="translate(2133.575 -2325.585)"/><path class="a" d="M-2081.806,2196.928c0,.213-.185.329-.412.251a5.473,5.473,0,0,1-1.362-.68,4.432,4.432,0,0,1-.988-.923.3.3,0,0,1-.013-.415.285.285,0,0,1,.453.047,4.307,4.307,0,0,0,1.617,1.233c.164.075.335.137.5.205A.28.28,0,0,1-2081.806,2196.928Z" transform="translate(2102.363 -2195.069)"/><path class="a" d="M-2062.771,2397.083a1.855,1.855,0,0,1-1.26-.511.29.29,0,0,1-.051-.434.289.289,0,0,1,.435,0,1.227,1.227,0,0,0,1.744,0,.29.29,0,0,1,.436-.006.291.291,0,0,1-.047.435A1.842,1.842,0,0,1-2062.771,2397.083Z" transform="translate(2083.677 -2378.233)"/></svg>