<svg xmlns="http://www.w3.org/2000/svg" width="100" height="80" viewBox="0 0 100 80"><defs><style>.a{fill:#f9f9f9;stroke:#dedede;}.b{fill:#dedede;}.c{stroke:none;}.d{fill:none;}</style></defs><g class="a"><rect class="c" width="100" height="80" rx="4"/><rect class="d" x="0.5" y="0.5" width="99" height="79" rx="3.5"/></g><path class="b" d="M-1465.749,1526.133c1.048.492,2.056.968,3.067,1.439,1.895.883,3.794,1.758,5.683,2.652a.539.539,0,0,0,.719-.1,2.4,2.4,0,0,1,2.9-.336,2.483,2.483,0,0,1,1.219,2.589,2.516,2.516,0,0,1-2.25,2.051,2.441,2.441,0,0,1-2.431-1.428.716.716,0,0,0-.783-.5q-9.5.016-19,0a.656.656,0,0,0-.723.451,2.44,2.44,0,0,1-2.917,1.384,2.515,2.515,0,0,1-1.811-2.651,2.513,2.513,0,0,1,2.308-2.234,2.365,2.365,0,0,1,1.895.721.4.4,0,0,0,.531.106q4.339-2.033,8.684-4.051c.051-.024.1-.056.147-.085-.022-.162-.164-.162-.258-.206q-5.069-2.371-10.14-4.74a3.346,3.346,0,0,0-1.5-.356,2.731,2.731,0,0,1-2.934-2.5c-.058-.39-.213-.468-.56-.455-.609.022-1.22,0-1.83.009a.752.752,0,0,1-.717-.4c-1.536-2.567-3.091-5.122-4.606-7.7a2.175,2.175,0,0,1,.82-2.955,2.131,2.131,0,0,1,2.942.7,1.424,1.424,0,0,0,1.55.856,5.944,5.944,0,0,1,3.821,1.371,14.736,14.736,0,0,1,3.239,3.326.874.874,0,0,0,.8.4q14.269-.013,28.538-.006c.887,0,.965.08.966.974s0,1.8,0,2.7c0,.549-.186.729-.733.736-.436.006-.872.01-1.307,0-.257-.006-.38.063-.427.352a2.776,2.776,0,0,1-3.068,2.608,2.548,2.548,0,0,0-1.132.241q-5.284,2.478-10.576,4.938A.919.919,0,0,0-1465.749,1526.133Zm.909-7.859c2.8,0,5.607-.006,8.41.007.373,0,.514-.094.5-.487-.026-.915-.02-1.83,0-2.745.007-.352-.1-.482-.466-.482q-8.411.013-16.821,0c-.375,0-.471.146-.464.49.016.886.026,1.773,0,2.658-.014.435.114.574.562.571C-1470.36,1518.266-1467.6,1518.276-1464.84,1518.275Zm-12.143,2.6c.149.077.221.117.3.152,2.971,1.388,5.95,2.762,8.908,4.177a1.469,1.469,0,0,0,1.418-.023c2.541-1.213,5.1-2.391,7.649-3.582.475-.222.946-.451,1.518-.724Zm19.6,10.474.015-.068c-.076-.041-.149-.085-.227-.121q-4.619-2.155-9.236-4.315a.654.654,0,0,0-.615.034q-3.749,1.754-7.5,3.5c-.638.3-1.272.6-1.908.9l.021.066Zm-22.853-14.55c1.656,0,3.312-.007,4.967.005.34,0,.475-.115.458-.454-.018-.362,0-.726,0-1.089,0-.681,0-.682-.661-.682-2.745,0-5.49-.007-8.235.005a.937.937,0,0,1-.923-.513c-.326-.582-.683-1.147-1.028-1.72q-1.224-2.034-2.448-4.069a1.1,1.1,0,0,0-1.109-.618c-.9.1-1.26.979-.742,1.845,1.379,2.306,2.769,4.6,4.14,6.915a.7.7,0,0,0,.7.381C-1483.489,1516.786-1481.862,1516.794-1480.235,1516.794Zm13.121,2.962h3.31q5.008,0,10.017,0a1.7,1.7,0,0,0,1.814-1.42c.066-.326,0-.458-.351-.447-.58.017-1.161,0-1.742.005-.854.005-.763-.081-.769.774-.005.7,0,.706-.724.706q-9.168,0-18.335,0c-.914,0-.937.172-.908-.914.012-.434-.119-.578-.566-.574-2.076.021-4.152.009-6.228.009-.727,0-.812.121-.538.8a1.7,1.7,0,0,0,.242.41,1.813,1.813,0,0,0,1.539.657Q-1473.735,1519.75-1467.115,1519.756Zm-14.683-6.277c.55,0,1.1,0,1.652,0,.082,0,.2,0,.239-.053.082-.107-.045-.179-.1-.252a12.019,12.019,0,0,0-2.824-2.681,5.31,5.31,0,0,0-2.788-.989c-.356-.009-.407.1-.225.393q1,1.632,1.968,3.278a.557.557,0,0,0,.561.31C-1482.812,1513.468-1482.305,1513.478-1481.8,1513.478Zm29.662,1.1c-.769,0-1.539.006-2.308,0-.27,0-.4.083-.4.374q.02.74,0,1.48c-.008.292.125.373.395.371q2.286-.011,4.572,0c.312,0,.405-.125.4-.416-.014-.464-.018-.929,0-1.393.014-.333-.131-.426-.441-.42C-1450.655,1514.583-1451.4,1514.573-1452.136,1514.574Zm-26.1,17.356a1.378,1.378,0,0,0-1.375-1.388,1.416,1.416,0,0,0-1.374,1.4,1.415,1.415,0,0,0,1.391,1.384A1.361,1.361,0,0,0-1478.231,1531.93Zm25,0a1.413,1.413,0,0,0-1.391-1.384,1.377,1.377,0,0,0-1.356,1.4,1.363,1.363,0,0,0,1.375,1.381A1.416,1.416,0,0,0-1453.231,1531.927Z" transform="translate(1517.992 -1495.861)"/><g transform="translate(-366 -352)"><path class="b" d="M1980.655,2134.774q0-5.733,0-11.467c0-.567.1-.664.672-.664h22.02c.113,0,.227-.005.339,0a.407.407,0,0,1,.4.4,1.985,1.985,0,0,1,0,.209q0,11.52,0,23.038c0,.07,0,.14,0,.209a.42.42,0,0,1-.421.412c-.035,0-.07,0-.1,0-.216.007-.474-.058-.64.038-.2.116-.057.4-.083.608-.016.128-.061.193-.192.188h-.026c-.633.044-.641.045-.649-.588,0-.2-.081-.25-.265-.249q-1.816.008-3.631,0c-.193,0-.256.063-.258.256,0,.6-.011.592-.6.587-.211,0-.264-.084-.265-.28,0-.56-.01-.56-.57-.56-.287,0-.575,0-.862,0-.144,0-.213.054-.2.2,0,.017,0,.035,0,.052-.015.616-.015.608-.633.588-.185-.006-.235-.079-.239-.252-.016-.588-.021-.588-.622-.587-1.071,0-2.142.006-3.213,0-.237,0-.316.065-.313.309.007.6.089.515-.549.537-.26.009-.324-.088-.32-.332.008-.573.08-.5-.516-.509-.3,0-.609,0-.914,0-.144,0-.213.054-.2.2a.493.493,0,0,1,0,.052c-.016.633-.016.627-.658.587-.158-.01-.221-.073-.211-.224,0-.018,0-.035,0-.052-.015-.562-.015-.562-.571-.562-1.088,0-2.177.007-3.265,0-.235,0-.318.059-.315.306.008.6.089.518-.547.539-.256.009-.327-.083-.323-.33.008-.576.085-.5-.513-.511h-.209c-.377-.005-.525-.146-.526-.521,0-.706,0-1.411,0-2.116Zm7.524.019q0-5.47.005-10.941c0-.254-.054-.346-.329-.344q-3,.017-6.006,0c-.245,0-.328.061-.328.319q.01,10.953,0,21.909c0,.259.085.318.329.317,1.985-.009,3.969,0,5.954,0,.375,0,.375,0,.375-.366Zm.87-.011v10.889c0,.376,0,.377.39.377h3.186c.94,0,1.88,0,2.82,0,.188,0,.28-.055.258-.252a2.022,2.022,0,0,1,0-.209q0-10.863,0-21.726c0-.351,0-.351-.364-.351h-5.9c-.388,0-.388,0-.388.38Zm7.523-.015v10.915c0,.366,0,.366.376.366,1.984,0,3.969,0,5.953,0,.244,0,.329-.058.328-.318q-.01-10.941-.005-21.882c0-.339,0-.34-.349-.34h-5.9c-.4,0-.4,0-.4.391Q1996.572,2129.335,1996.571,2134.767Z" transform="translate(-1550.095 -1727.162)"/><path class="b" d="M2022.71,2162.612c.6,0,1.2.006,1.8,0,.2,0,.3.047.3.275-.017.7.073.593-.6.6-1.105.005-2.211-.005-3.316.006-.243,0-.317-.079-.31-.315.02-.646-.066-.552.557-.559C2021.666,2162.608,2022.188,2162.612,2022.71,2162.612Z" transform="translate(-1587.94 -1765.042)"/><path class="b" d="M2022.7,2195.46c-.6,0-1.2-.006-1.8,0-.2,0-.3-.047-.3-.275.018-.7-.076-.593.595-.6,1.105-.006,2.211,0,3.316-.006.242,0,.317.078.31.314-.019.645.065.552-.556.558C2023.748,2195.464,2023.226,2195.46,2022.7,2195.46Z" transform="translate(-1587.959 -1795.348)"/><path class="b" d="M2022.711,2226.617c.6,0,1.2.006,1.8,0,.2,0,.3.047.3.275-.018.7.074.593-.6.6-1.105.006-2.211,0-3.316.006-.243,0-.317-.081-.309-.316.019-.644-.065-.552.557-.558C2021.666,2226.612,2022.188,2226.616,2022.711,2226.617Z" transform="translate(-1587.941 -1825.703)"/><path class="b" d="M2022.717,2467.451c-.609,0-1.219-.007-1.828,0-.219,0-.287-.077-.282-.289.016-.684-.073-.58.583-.583,1.106-.006,2.211.006,3.316-.006.255,0,.331.083.323.33-.021.623.061.54-.545.545C2023.761,2467.455,2023.239,2467.451,2022.717,2467.451Z" transform="translate(-1587.961 -2053.128)"/><path class="b" d="M2022.722,2499.446c-.609,0-1.219-.007-1.828,0-.219,0-.287-.077-.282-.289.017-.685-.073-.58.583-.583,1.105-.006,2.211,0,3.316-.007.256,0,.33.083.322.33-.02.623.062.54-.544.544C2023.767,2499.449,2023.244,2499.446,2022.722,2499.446Z" transform="translate(-1587.965 -2083.452)"/><path class="b" d="M2022.695,2531.453c-.6,0-1.2-.008-1.8,0-.219,0-.286-.077-.282-.289.015-.683-.071-.58.582-.584,1.105,0,2.211.006,3.316-.006.255,0,.331.081.323.329-.021.623.062.54-.545.545C2023.757,2531.457,2023.225,2531.453,2022.695,2531.453Z" transform="translate(-1587.964 -2113.787)"/><path class="b" d="M2021.473,2348.089c0,.4-.006.8,0,1.2,0,.185-.055.268-.252.264-.732-.015-.612.079-.619-.6s.005-1.375-.005-2.062c0-.221.056-.312.293-.305.679.018.57-.063.58.562C2021.477,2347.462,2021.473,2347.776,2021.473,2348.089Z" transform="translate(-1587.952 -1939.408)"/><path class="b" d="M2021.1,2315.544c-.419,0-.419,0-.419-.431s0-.439.412-.439c.458,0,.46,0,.458.392C2021.542,2315.583,2021.594,2315.541,2021.1,2315.544Z" transform="translate(-1588.026 -1909.163)"/><path class="b" d="M2166.692,2163.454c-.6,0-1.2-.007-1.8,0-.214,0-.292-.067-.287-.284.017-.689-.07-.585.579-.588,1.105-.006,2.211.005,3.316-.006.249,0,.336.072.327.325-.022.627.062.543-.541.549C2167.754,2163.459,2167.223,2163.455,2166.692,2163.454Z" transform="translate(-1724.435 -1765.014)"/><path class="b" d="M2166.716,2194.61c.6,0,1.2.006,1.8,0,.2,0,.3.049.295.275-.018.7.075.592-.6.6-1.105.006-2.211,0-3.316.007-.244,0-.316-.081-.309-.316.019-.644-.066-.552.557-.558C2165.671,2194.606,2166.194,2194.61,2166.716,2194.61Z" transform="translate(-1724.423 -1795.367)"/><path class="b" d="M2166.723,2227.457c-.609,0-1.219-.007-1.828,0-.219,0-.313-.054-.306-.292.019-.679-.072-.577.586-.581,1.1-.005,2.194.005,3.29-.006.253,0,.358.056.347.332-.026.62.061.537-.549.542C2167.75,2227.46,2167.236,2227.457,2166.723,2227.457Z" transform="translate(-1724.42 -1825.673)"/><path class="b" d="M2166.721,2467.454c-.609,0-1.219-.007-1.828,0-.218,0-.287-.076-.282-.288.015-.684-.071-.581.582-.584,1.105-.005,2.211.006,3.316-.007.254,0,.332.08.323.329-.021.624.062.541-.544.546C2167.765,2467.457,2167.243,2467.454,2166.721,2467.454Z" transform="translate(-1724.441 -2053.131)"/><path class="b" d="M2166.715,2499.446c-.609,0-1.219-.007-1.828,0-.218,0-.288-.076-.282-.289.018-.686-.073-.58.582-.583,1.105-.007,2.211,0,3.316-.007.255,0,.331.082.323.329-.02.621.061.541-.544.545C2167.76,2499.449,2167.237,2499.446,2166.715,2499.446Z" transform="translate(-1724.435 -2083.452)"/><path class="b" d="M2166.718,2531.465c-.609,0-1.219-.006-1.828,0-.2,0-.277-.067-.272-.272.015-.708-.077-.6.591-.6,1.105-.006,2.211,0,3.316-.006.237,0,.32.071.313.311-.019.648.063.556-.553.562C2167.762,2531.469,2167.24,2531.465,2166.718,2531.465Z" transform="translate(-1724.448 -2113.799)"/><path class="b" d="M2165.471,2348.1c0,.4-.009.8,0,1.2.007.209-.075.272-.275.269-.708-.013-.589.071-.6-.595-.008-.7,0-1.392-.006-2.088,0-.219.077-.288.289-.283.679.019.576-.076.584.583C2165.475,2347.491,2165.471,2347.795,2165.471,2348.1Z" transform="translate(-1724.428 -1939.424)"/><path class="b" d="M2165.545,2315.132c0,.413,0,.413-.464.412-.407,0-.407,0-.406-.47,0-.4,0-.4.477-.4C2165.545,2314.675,2165.545,2314.675,2165.545,2315.132Z" transform="translate(-1724.502 -1909.163)"/><path class="b" d="M2310.7,2163.458c-.6,0-1.2-.007-1.8,0-.218,0-.314-.052-.307-.291.019-.68-.071-.578.585-.581,1.1-.006,2.194.005,3.291-.006.251,0,.359.054.347.331-.025.621.061.537-.548.543C2311.742,2163.462,2311.22,2163.458,2310.7,2163.458Z" transform="translate(-1860.897 -1765.017)"/><path class="b" d="M2310.667,2195.51c-.591,0-1.184-.008-1.775,0-.227,0-.33-.052-.321-.3.023-.66-.068-.565.573-.568,1.1-.006,2.194,0,3.29,0,.352,0,.356,0,.354.34,0,.6.063.526-.529.529C2311.729,2195.513,2311.2,2195.51,2310.667,2195.51Z" transform="translate(-1860.881 -1795.398)"/><path class="b" d="M2310.674,2227.512c-.592,0-1.184-.008-1.776,0-.229,0-.328-.054-.32-.3.022-.66-.069-.565.573-.568,1.1-.005,2.193,0,3.29,0,.353,0,.356,0,.354.339,0,.6.065.525-.529.53C2311.736,2227.515,2311.205,2227.512,2310.674,2227.512Z" transform="translate(-1860.887 -1825.727)"/><path class="b" d="M2310.674,2467.452c-.592,0-1.184-.007-1.775,0-.216,0-.316-.048-.309-.289.02-.685-.072-.58.583-.583,1.106-.006,2.211.006,3.316-.007.255,0,.33.082.322.33-.02.622.062.54-.544.545C2311.736,2467.455,2311.205,2467.452,2310.674,2467.452Z" transform="translate(-1860.898 -2053.129)"/><path class="b" d="M2310.712,2499.469c-.609,0-1.219-.006-1.828,0-.2,0-.281-.058-.276-.268.016-.712-.075-.6.588-.6,1.105-.007,2.211,0,3.316-.006.233,0,.325.063.317.309-.021.65.063.559-.551.565C2311.757,2499.474,2311.235,2499.469,2310.712,2499.469Z" transform="translate(-1860.916 -2083.475)"/><path class="b" d="M2310.7,2531.45c-.6,0-1.2-.007-1.8,0-.214,0-.292-.067-.287-.284.017-.689-.071-.584.578-.588,1.105-.006,2.211,0,3.316-.007.25,0,.335.073.327.325-.021.627.063.544-.541.549C2311.759,2531.453,2311.228,2531.45,2310.7,2531.45Z" transform="translate(-1860.916 -2113.783)"/><path class="b" d="M2308.639,2348.112c0-.409.005-.818,0-1.227,0-.177.059-.25.242-.247.756.012.621-.081.628.614s0,1.375.006,2.063c0,.212-.065.293-.283.288-.69-.016-.58.071-.59-.577C2308.634,2348.722,2308.638,2348.417,2308.639,2348.112Z" transform="translate(-1860.942 -1939.457)"/><path class="b" d="M2309.547,2315.129c0,.415,0,.415-.435.415s-.437,0-.434-.415c0-.51-.04-.45.5-.454C2309.547,2314.672,2309.547,2314.674,2309.547,2315.129Z" transform="translate(-1860.981 -1909.162)"/></g><g transform="translate(-366 -352)"><path class="b" d="M-4008.177,2983.464c-.682,0-1.365-.009-2.047,0-.271.005-.374-.09-.368-.366.02-1.048-.114-.873.852-.88,1.191-.01,2.382.005,3.573-.008.305,0,.415.094.407.4-.025.991.107.83-.815.846-.273,0-.546,0-.819,0Z" transform="translate(4394.152 -2581.211)"/><path class="b" d="M-4063.668,2946.609c.288-.125.7.146.881-.274a.567.567,0,0,0-.008-.258c-.046-.419-.1-.838-.142-1.258-.08-.9.232-1.237,1.138-1.237q3.223,0,6.447,0c.56,0,1.118-.008,1.678,0a.875.875,0,0,1,.977,1.029c-.027.482-.1.962-.149,1.444q-.156,1.431-.314,2.863h1.278c.155-1.368.3-2.736.473-4.1a2.139,2.139,0,0,0-2.13-2.482q-4.3-.008-8.609,0a2.083,2.083,0,0,0-2.083,1.9,11.258,11.258,0,0,0,.2,2.182C-4064,2946.654-4063.81,2946.671-4063.668,2946.609Z" transform="translate(4443.795 -2544.312)"/><path class="b" d="M-3829.882,3000.66c.04-.254.074-.51.111-.765s.127-.408.445-.406q3.851.019,7.7,0c.311,0,.412.126.451.4.036.257.073.514.113.77h1.306c-.086-.542-.179-1.084-.269-1.626-.107-.647-.273-.783-.943-.783h-8.982c-.725,0-.871.134-.985.864-.081.516-.167,1.031-.251,1.546Z" transform="translate(4228.145 -2596.05)"/><path class="b" d="M-4057.929,3014.7c-.111-.9-.113-.886-1-.812-.293.025-.389.146-.349.43.037.261.065.522.1.784h1.3C-4057.9,3014.966-4057.913,3014.833-4057.929,3014.7Z" transform="translate(4439.209 -2610.49)"/><path class="b" d="M-4065.622,3046.209h-.8a.679.679,0,0,1-.161,0h-12.344l-.058,0-.273,0h-5.921c-.023,0-.046,0-.072,0l-1.034,0h-9.283c-.029,0-.061,0-.095,0h-2.1a.6.6,0,0,0-.644.684q-.01,1.118,0,2.236c0,.486.219.693.711.706s.479.013.479.5q0,4.938,0,9.876c0,.813.141.954.953.954h29.257c.682,0,.854-.174.854-.864,0-3.329.006-6.659-.007-9.988,0-.368.083-.508.473-.488.509.026.722-.21.726-.722q.007-1.081,0-2.161C-4064.966,3046.445-4065.158,3046.233-4065.622,3046.209Zm-1.77,13.263c.015.367-.113.457-.466.456q-6.913-.016-13.828-.007h-13.791c-.495,0-.495,0-.495-.486,0-.659.022-1.318-.009-1.975-.019-.387.114-.477.485-.476q9.746.016,19.493.008c2.708,0,5.417.007,8.125-.008.372,0,.5.088.486.476C-4067.422,3058.13-4067.419,3058.8-4067.392,3059.472Zm-28.587-9.226c-.007-.337.11-.417.43-.416q6.951.014,13.9.006h13.752c.494,0,.495,0,.5.486,0,.857-.019,1.715.01,2.572.013.387-.117.476-.487.476q-8.7-.017-17.4-.008c-3.4,0-6.809-.005-10.212.009-.373,0-.5-.093-.486-.477C-4095.953,3052.01-4095.957,3051.128-4095.979,3050.246Zm28.542,5.4c-.044.159-.236.1-.365.1-1.317,0-2.634,0-3.951,0h-23.666c-.552,0-.553,0-.552-.541,0-.124,0-.248,0-.372,0-.156.081-.224.232-.224.125,0,.248,0,.373,0q13.7,0,27.394,0c.184,0,.46-.114.534.117A1.64,1.64,0,0,1-4067.437,3055.646Zm1.169-7.128c-.062.142-.273.07-.417.07q-5.311,0-10.622,0-9.653,0-19.306-.005c-.181,0-.461.119-.523-.133a1.584,1.584,0,0,1,.019-.917c.057-.152.269-.083.412-.083q4.305,0,8.61,0h6.41q7.491,0,14.982,0c.161,0,.411-.095.461.117A1.5,1.5,0,0,1-4066.268,3048.518Z" transform="translate(4475.413 -2640.426)"/></g></svg>