<svg xmlns="http://www.w3.org/2000/svg" width="35.045" height="22.773" viewBox="0 0 35.045 22.773"><defs><style>.a{fill:#7a35ff;}</style></defs><path class="a" d="M-1470.463,1522.521c.855.4,1.677.789,2.5,1.174,1.546.72,3.095,1.434,4.636,2.163a.439.439,0,0,0,.586-.082,1.954,1.954,0,0,1,2.365-.274,2.026,2.026,0,0,1,.994,2.112,2.053,2.053,0,0,1-1.836,1.673,1.992,1.992,0,0,1-1.984-1.165.584.584,0,0,0-.639-.405q-7.748.013-15.5,0a.535.535,0,0,0-.59.368,1.99,1.99,0,0,1-2.379,1.129,2.052,2.052,0,0,1-1.478-2.162,2.05,2.05,0,0,1,1.883-1.823,1.93,1.93,0,0,1,1.546.588.329.329,0,0,0,.433.086q3.539-1.658,7.084-3.3c.042-.019.08-.046.12-.069-.018-.132-.134-.132-.21-.168q-4.135-1.935-8.272-3.867a2.727,2.727,0,0,0-1.224-.29,2.228,2.228,0,0,1-2.394-2.041c-.047-.318-.174-.382-.457-.372-.5.018-.995,0-1.493.007a.613.613,0,0,1-.585-.325c-1.253-2.094-2.521-4.179-3.758-6.282a1.774,1.774,0,0,1,.669-2.411,1.739,1.739,0,0,1,2.4.568,1.162,1.162,0,0,0,1.265.7,4.849,4.849,0,0,1,3.117,1.118,12.021,12.021,0,0,1,2.643,2.713.713.713,0,0,0,.649.324q11.641-.011,23.281-.005c.724,0,.787.065.788.794s0,1.469,0,2.2c0,.448-.152.595-.6.6-.356,0-.711.008-1.066,0-.21-.005-.31.052-.348.287a2.265,2.265,0,0,1-2.5,2.128,2.078,2.078,0,0,0-.923.2q-4.31,2.022-8.628,4.029A.752.752,0,0,0-1470.463,1522.521Zm.742-6.411c2.287,0,4.574-.005,6.861.006.3,0,.42-.076.411-.4-.021-.746-.017-1.493,0-2.24.006-.287-.08-.393-.38-.393q-6.861.011-13.722,0c-.306,0-.384.119-.379.4.013.722.021,1.446,0,2.168-.012.355.093.468.459.466C-1474.225,1516.1-1471.973,1516.111-1469.722,1516.11Zm-9.906,2.117c.122.063.181.1.241.124,2.424,1.132,4.854,2.253,7.267,3.407a1.2,1.2,0,0,0,1.156-.018c2.073-.989,4.159-1.95,6.24-2.922.387-.181.772-.368,1.238-.591Zm15.989,8.544.012-.055c-.062-.033-.122-.069-.185-.1q-3.768-1.758-7.535-3.52a.533.533,0,0,0-.5.028q-3.058,1.431-6.119,2.855c-.52.243-1.038.491-1.557.737l.017.054Zm-18.642-11.869c1.351,0,2.7-.005,4.052,0,.278,0,.387-.094.374-.371-.014-.3,0-.592,0-.888,0-.556,0-.556-.539-.556-2.239,0-4.479-.006-6.718,0a.765.765,0,0,1-.753-.418c-.266-.475-.557-.936-.838-1.4q-1-1.66-2-3.319a.9.9,0,0,0-.9-.5c-.735.078-1.028.8-.606,1.505,1.125,1.881,2.259,3.756,3.377,5.641a.572.572,0,0,0,.573.311C-1484.935,1514.9-1483.608,1514.9-1482.281,1514.9Zm10.7,2.417h2.7q4.086,0,8.172,0a1.389,1.389,0,0,0,1.48-1.158c.054-.266,0-.373-.287-.365-.473.014-.948,0-1.421,0-.7,0-.623-.066-.628.632,0,.575,0,.576-.591.576q-7.479,0-14.958,0c-.746,0-.765.141-.741-.746.01-.354-.1-.471-.462-.468-1.693.017-3.387.007-5.08.007-.593,0-.662.1-.439.653a1.379,1.379,0,0,0,.2.334,1.479,1.479,0,0,0,1.255.536Q-1476.978,1517.314-1471.578,1517.319Zm-11.978-5.121c.449,0,.9,0,1.347,0,.067,0,.164,0,.195-.043.067-.087-.037-.146-.084-.206a9.807,9.807,0,0,0-2.3-2.187,4.331,4.331,0,0,0-2.274-.807c-.291-.008-.333.078-.184.321q.812,1.332,1.606,2.675a.455.455,0,0,0,.457.253C-1484.383,1512.189-1483.97,1512.2-1483.556,1512.2Zm24.2.894c-.628,0-1.255,0-1.883,0-.22,0-.329.067-.323.305q.016.6,0,1.208c-.007.238.1.3.322.3q1.865-.009,3.73,0c.254,0,.331-.1.323-.34-.012-.379-.015-.758,0-1.136.011-.271-.107-.347-.36-.342C-1458.15,1513.1-1458.754,1513.091-1459.358,1513.092Zm-21.288,14.158a1.124,1.124,0,0,0-1.122-1.132,1.155,1.155,0,0,0-1.121,1.144,1.155,1.155,0,0,0,1.135,1.129A1.11,1.11,0,0,0-1480.646,1527.25Zm20.395,0a1.153,1.153,0,0,0-1.135-1.129,1.123,1.123,0,0,0-1.107,1.146,1.112,1.112,0,0,0,1.122,1.126A1.156,1.156,0,0,0-1460.251,1527.247Z" transform="translate(1491.34 -1506.526)"/></svg>