<svg xmlns="http://www.w3.org/2000/svg" width="100" height="80" viewBox="0 0 100 80"><defs><style>.a{fill:#f9f9f9;stroke:#dedede;}.b{fill:#dedede;}.c{stroke:none;}.d{fill:none;}</style></defs><g transform="translate(-25 -18)"><g transform="translate(-164 -2407)"><g class="a" transform="translate(189 2425)"><rect class="c" width="100" height="80" rx="4"/><rect class="d" x="0.5" y="0.5" width="99" height="79" rx="3.5"/></g></g><g transform="translate(-6755.125 5849.201)"><g transform="translate(816.439 -403.268)"><path class="b" d="M5999.891-5315.6q0,2.2,0,4.4c0,.694-.292.981-1,.982-.774,0-1.547,0-2.321,0a.81.81,0,0,1-.889-.844.817.817,0,0,1,.9-.865c.4,0,.809-.019,1.212,0,.311.018.393-.1.391-.4-.01-2.414-.006-4.828-.006-7.242,0-.312.017-.625,0-.935a1.253,1.253,0,0,1,.466-1.1,11.117,11.117,0,0,1,4.84-2.646,9.227,9.227,0,0,1,5.817.626c2.31,1.029,4.614,2.068,6.928,3.087a3.132,3.132,0,0,1,2,2.758c.022.247.088.257.292.169q2.9-1.243,5.8-2.474c.082-.035.2-.043.212-.152s-.107-.171-.2-.218a1.446,1.446,0,0,0-1.3-.054l-2.968,1.25a1.06,1.06,0,0,1-.707.088.877.877,0,0,1-.66-.723.831.831,0,0,1,.463-.86c1.219-.525,2.429-1.081,3.678-1.524a2.914,2.914,0,0,1,3.231,1.094.36.36,0,0,0,.511.145,3.048,3.048,0,0,1,4.253,2.554,3.093,3.093,0,0,1-1.844,3.063c-1.607.705-3.23,1.372-4.847,2.055q-5.313,2.243-10.625,4.485a6.6,6.6,0,0,1-5.814-.189c-2.03-1.026-4.087-2-6.133-2.992-.5-.244-.729-.584-.66-.981a.868.868,0,0,1,1.289-.646c.866.41,1.726.834,2.587,1.254l3.858,1.887a4.768,4.768,0,0,0,4.12.1q7.564-3.186,15.125-6.383a4.489,4.489,0,0,0,.532-.252,1.3,1.3,0,0,0,.547-1.65,1.258,1.258,0,0,0-1.553-.767c-.922.331-1.819.733-2.722,1.115q-4.194,1.775-8.385,3.558a3.017,3.017,0,0,1-2.488-.02q-2.708-1.2-5.412-2.406a.9.9,0,0,1-.54-1.21.883.883,0,0,1,1.262-.385q2.643,1.171,5.285,2.351a1.335,1.335,0,0,0,1.919-.7,1.305,1.305,0,0,0-.67-1.664c-2.492-1.129-4.96-2.319-7.5-3.339a7.12,7.12,0,0,0-7.043.857c-.416.289-.941.521-1.172.948s-.063.973-.067,1.467C5999.885-5317.817,5999.891-5316.708,5999.891-5315.6Z" transform="translate(0 -62.976)"/><path class="b" d="M6070.909-5395.084q0-1.565,0-3.13a2.385,2.385,0,0,0-1.248-2.2q-2.752-1.6-5.51-3.18a2.3,2.3,0,0,0-2.4-.005q-2.794,1.592-5.57,3.218a2.259,2.259,0,0,0-1.18,2.081c0,2.123.007,4.246,0,6.369a2.285,2.285,0,0,0,1.187,2.114q2.776,1.625,5.573,3.215a2.306,2.306,0,0,0,2.428-.026q2.741-1.577,5.478-3.163a2.366,2.366,0,0,0,1.243-2.163C6070.916-5393,6070.909-5394.041,6070.909-5395.084Zm-3.718,1h-3.139v3.222h-2.192v-3.222h-3.139v-2.026h3.139v-3.222h2.192v3.222h3.139Z" transform="translate(-47)"/></g></g></g></svg>