<svg xmlns="http://www.w3.org/2000/svg" width="100" height="80" viewBox="0 0 100 80"><defs><style>.a{fill:#f9f9f9;stroke:#dedede;}.b{fill:#dedede;}.c{stroke:none;}.d{fill:none;}</style></defs><g transform="translate(-189 -2425)"><g class="a" transform="translate(189 2425)"><rect class="c" width="100" height="80" rx="4"/><rect class="d" x="0.5" y="0.5" width="99" height="79" rx="3.5"/></g><path class="b" d="M752.057,2864.329q0-1.863,0-3.727c0-.763.275-1.042,1.026-1.044q2.763,0,5.525,0c.793,0,1.093.3,1.095,1.085q.007,3.7,0,7.409c0,.579,0,.582.563.583.7,0,1.4-.015,2.1,0a.472.472,0,0,0,.56-.427c.289-1.223.6-2.438.909-3.657a2.33,2.33,0,0,1,2.435-1.979q3.961-.042,7.924,0a2.335,2.335,0,0,1,2.441,1.974c.309,1.217.617,2.435.907,3.657a.475.475,0,0,0,.557.433c.742-.02,1.485-.019,2.227,0,.325.008.448-.124.507-.431a2.972,2.972,0,0,1,2.623-2.558c.3-.047.385-.159.377-.438-.014-.513.017-1.029-.01-1.541a1.321,1.321,0,0,1,.462-1.095c.661-.63,1.29-1.295,1.947-1.929.212-.205.222-.337.006-.551q-2.208-2.183-4.392-4.392c-.195-.2-.312-.185-.527-.008a1.4,1.4,0,0,0-.537,1.919,3.591,3.591,0,0,1-.843,3.958c-.189.213-.395.413-.6.608a.776.776,0,0,1-1.236-.007c-.855-.84-1.7-1.693-2.547-2.542-.626-.625-1.257-1.247-1.875-1.88a.758.758,0,0,1-.091-1.115,4.167,4.167,0,0,1,4.787-1.553.4.4,0,0,1,.12.045c.622.5,1.057.208,1.476-.312a10.923,10.923,0,0,1,.842-.853c.583-.58.951-.584,1.523-.014l4.361,4.361c.454.455.911.906,1.361,1.365a.834.834,0,0,1,.007,1.369c-.773.783-1.547,1.563-2.335,2.33a.9.9,0,0,0-.325.792,2.426,2.426,0,0,1,0,.256,3.173,3.173,0,0,0,.039,1.019c.137.364.6.208.908.33a3.077,3.077,0,0,1,2.027,2.454c.06.342.2.417.5.409.542-.015,1.085-.012,1.627,0,.6.012.884.247.929.838a22.556,22.556,0,0,1,.008,2.91c-.032.6-.342.861-.947.882-.5.018-1,.013-1.5,0-.311-.006-.428.08-.369.428q.955,5.611,1.883,11.226.451,2.7.9,5.4c.088.531-.115.924-.526,1.023a.812.812,0,0,1-1.027-.608c-.447-1.311-.878-2.626-1.316-3.939q-2.173-6.52-4.34-13.041a.6.6,0,0,0-.664-.5c-1.413.021-2.827.017-4.24,0-.371,0-.48.094-.378.467a6.783,6.783,0,0,1-3.619,7.889c-.306.146-.334.307-.234.6q1.321,3.915,2.62,7.836c.224.672.1,1.109-.36,1.272-.522.185-.917-.081-1.149-.776-.867-2.6-1.743-5.2-2.592-7.8a.585.585,0,0,0-.711-.474,39.564,39.564,0,0,1-5.26,0,.607.607,0,0,0-.742.489c-.852,2.619-1.734,5.229-2.6,7.843-.112.337-.256.647-.64.737a.773.773,0,0,1-.937-1.023c.218-.724.46-1.441.7-2.159.651-1.949,1.3-3.9,1.969-5.841.13-.376.106-.562-.287-.758a6.768,6.768,0,0,1-3.567-7.729c.136-.566.136-.568-.441-.568-1.371,0-2.741.012-4.112-.01a.617.617,0,0,0-.7.51q-2.752,8.312-5.53,16.616c-.05.149-.094.3-.156.444a.79.79,0,0,1-.961.519.753.753,0,0,1-.557-.889c.094-.734.224-1.466.346-2.2q1.025-6.163,2.054-12.326c.127-.76.244-1.522.387-2.278.056-.294-.041-.4-.322-.393-.5.006-1,.01-1.5,0-.673-.016-.985-.288-1.008-.959-.03-.9-.032-1.8,0-2.7.025-.721.329-.972,1.069-.978.471,0,.942,0,1.413,0,.558,0,.56,0,.56-.581Q752.058,2866.191,752.057,2864.329Zm17.957,16.392c.92,0,1.633.006,2.347,0a5.179,5.179,0,0,0,5.067-6.377c-.732-3.168-1.555-6.314-2.343-9.47-.128-.512-.346-.672-.893-.673q-3.959-.005-7.919,0a.755.755,0,0,0-.885.682c-.791,3.154-1.6,6.3-2.354,9.467a5.21,5.21,0,0,0,4.113,6.285A20.448,20.448,0,0,0,770.014,2880.72Zm-13.478-10.506q-2.547,0-5.094,0c-.877,0-.813-.1-.814.8,0,.629,0,.632.647.632q4.9,0,9.8,0c1.161,0,.914.167,1.239-.983.094-.332.03-.454-.344-.45C760.16,2870.223,758.348,2870.214,756.536,2870.214Zm27.426,0c-1.7,0-3.4,0-5.094,0-.922,0-.831-.106-.618.789.153.641.16.639.821.639q4.944,0,9.888,0c.98,0,.865.1.894-.9.012-.416-.134-.536-.541-.532C787.53,2870.225,785.746,2870.214,783.962,2870.214Zm-28.9-5.3q0-1.5,0-2.994c0-.717,0-.717-.7-.745-.057,0-.113-.013-.17-.019-.532-.043-.561-.018-.561.511,0,2.01-.007,4.021,0,6.031,0,1.047-.169.919.97.944.364.009.466-.135.462-.479C755.055,2867.079,755.064,2866,755.064,2864.911Zm1.58,0c0,.957,0,1.912,0,2.869s-.092.842.844.849c.584,0,.586,0,.586-.6q0-3.061,0-6.121c0-.733-.025-.758-.769-.771-.057,0-.115.005-.171,0-.368-.044-.505.106-.5.485C756.656,2862.719,756.643,2863.817,756.644,2864.916Zm20.294-8.435a2.262,2.262,0,0,0-1.276.383c-.286.176-.339.309-.07.57.951.923,1.879,1.871,2.819,2.806.307.306.411.3.641-.089a2.357,2.357,0,0,0,.089-2.444A2.274,2.274,0,0,0,776.938,2856.481Zm7.648,12.152v0h.9c.314,0,.629-.016.942,0,.391.021.437-.146.308-.465a1.422,1.422,0,0,0-1.3-.954c-.554-.034-1.113-.023-1.669,0a1.446,1.446,0,0,0-1.3.962c-.1.3-.032.464.321.458C783.387,2868.626,783.987,2868.633,784.586,2868.633Zm-32.239,11.656h.077q1.1-3.308,2.209-6.617c.095-.283.027-.408-.276-.395a3.073,3.073,0,0,1-.385,0c-.323-.026-.486.082-.536.438-.127.918-.3,1.829-.454,2.744Q752.662,2878.372,752.347,2880.29Zm35.746.127a1.581,1.581,0,0,0,.023-.214c-.354-2.125-.721-4.248-1.053-6.376-.067-.429-.232-.611-.659-.554a1.916,1.916,0,0,1-.3,0c-.266-.007-.372.094-.27.366.1.254.173.514.259.771Z" transform="translate(-531.544 -407.585)"/></g></svg>