<svg xmlns="http://www.w3.org/2000/svg" width="15.594" height="14.52" viewBox="0 0 15.594 14.52"><defs><style>.a{fill:#ff0000;}</style></defs><path class="a" d="M-5069.858,7446.475c0,.933,0,1.867,0,2.8a1.336,1.336,0,0,1-1.368,1.369c-.906,0-1.812,0-2.717,0-.174,0-.219.054-.213.22.012.352.005.7,0,1.057,0,.242-.094.336-.334.337-.632,0-1.264.005-1.9,0-.15,0-.19.046-.189.192.007.627,0,1.252,0,1.879,0,.254-.09.346-.341.347q-.746,0-1.493,0c-.241,0-.335-.094-.336-.335,0-.626-.006-1.252,0-1.879,0-.166-.054-.206-.211-.2-.615.008-1.229,0-1.845,0-.276,0-.363-.086-.363-.359,0-.357-.006-.716,0-1.073,0-.142-.048-.181-.185-.18q-1.358.006-2.717,0a1.334,1.334,0,0,1-1.4-1.391q0-2.793,0-5.585a1.335,1.335,0,0,1,1.2-1.362c.123-.015.143-.066.144-.171a3.37,3.37,0,0,1,.023-.669,1.615,1.615,0,0,1,1.682-1.313,1.6,1.6,0,0,1,1.52,1.364,3.837,3.837,0,0,1,.017.636c0,.108.038.15.147.148.251,0,.5-.006.754,0,.121,0,.152-.047.152-.16a3.223,3.223,0,0,1,.034-.735,1.629,1.629,0,0,1,1.731-1.252,1.621,1.621,0,0,1,1.464,1.389,3.949,3.949,0,0,1,.011.6c0,.118.042.157.157.154.246-.006.492-.007.737,0,.131,0,.16-.052.16-.169a3.224,3.224,0,0,1,.023-.669,1.616,1.616,0,0,1,1.685-1.311,1.6,1.6,0,0,1,1.517,1.368,3.144,3.144,0,0,1,.014.6c-.005.143.049.182.185.178.3-.008.6,0,.906,0a1.332,1.332,0,0,1,1.327,1.323C-5069.855,7444.573-5069.859,7445.524-5069.858,7446.475Zm-7.8,3.608h6.257c.684,0,.977-.295.978-.985q0-.613,0-1.225,0-2.063,0-4.127a.786.786,0,0,0-.74-.875c-.333-.032-.67-.009-1.005-.013-.093,0-.11.054-.109.131,0,.168,0,.336,0,.5,0,.107.036.15.146.147.2-.005.391,0,.586,0,.251,0,.342.094.342.347q0,.613,0,1.225c0,.233-.1.33-.325.33q-1.166,0-2.333,0c-.219,0-.316-.1-.318-.319q0-.629,0-1.258c0-.229.1-.322.331-.324.291,0,.582,0,.873,0,.1,0,.143-.035.14-.137,0-.168-.006-.336,0-.5,0-.111-.044-.145-.15-.144-.246.005-.493,0-.738,0-.889,0-1.778,0-2.668,0-.137,0-.192.04-.182.181a3.009,3.009,0,0,1,0,.435c-.01.139.049.175.177.171.2-.008.4-.005.6,0a.266.266,0,0,1,.294.292q.006.653,0,1.308a.269.269,0,0,1-.3.3q-1.183,0-2.366,0c-.206,0-.3-.1-.305-.316q0-.638,0-1.275a.274.274,0,0,1,.311-.31c.246,0,.492,0,.738,0,.328,0,.292.033.292-.3,0-.481,0-.481-.48-.481-1.023,0-2.047,0-3.07,0-.133,0-.2.032-.187.178s.006.313,0,.47c0,.1.039.14.139.138.2,0,.4,0,.6,0,.232,0,.33.1.331.325q0,.628,0,1.258c0,.219-.1.319-.318.319q-1.166,0-2.333,0c-.229,0-.323-.1-.325-.33q0-.62,0-1.241c0-.232.1-.328.325-.33.291,0,.581,0,.872,0,.094,0,.148-.024.145-.131,0-.173,0-.347,0-.521,0-.106-.05-.131-.145-.131-.833,0-1.667,0-2.5,0a.771.771,0,0,0-.747.475,1.1,1.1,0,0,0-.075.46q0,2.667,0,5.334a.833.833,0,0,0,.945.95Zm0,1.611c.922,0,1.845,0,2.768,0,.13,0,.18-.036.176-.171-.01-.24-.008-.48,0-.721,0-.128-.046-.164-.167-.161-.335.005-.671,0-1.006,0-1.5,0-3.009,0-4.513,0-.151,0-.21.04-.2.2a5.319,5.319,0,0,1,0,.654c-.01.166.052.206.21.205C-5079.477,7451.691-5078.566,7451.694-5077.654,7451.694Zm-4.833-9.4c.307,0,.615,0,.922,0,.084,0,.141-.018.14-.12a3.094,3.094,0,0,0-.039-.651,1.064,1.064,0,0,0-1.041-.813,1.062,1.062,0,0,0-1.017.863,4.252,4.252,0,0,0-.03.568c0,.12.043.156.158.154C-5083.091,7442.3-5082.789,7442.3-5082.487,7442.3Zm4.294,0c.307,0,.615,0,.922,0,.1,0,.145-.03.141-.135a4.052,4.052,0,0,0-.03-.585,1.063,1.063,0,0,0-1.032-.865,1.067,1.067,0,0,0-1.035.864,4.421,4.421,0,0,0-.03.568c-.005.119.042.157.157.154C-5078.8,7442.3-5078.495,7442.3-5078.192,7442.3Zm4.309,0c.3,0,.6,0,.906,0,.1,0,.147-.026.144-.132a4.108,4.108,0,0,0-.029-.585,1.06,1.06,0,0,0-1.03-.867,1.063,1.063,0,0,0-1.037.859,4.267,4.267,0,0,0-.031.569c0,.115.037.159.155.156C-5074.5,7442.294-5074.191,7442.3-5073.884,7442.3Zm-3.246,10.883c0-.262,0-.525,0-.788,0-.1-.032-.143-.136-.141-.257,0-.515.005-.771,0-.11,0-.146.042-.145.15,0,.519,0,1.04,0,1.559,0,.106.033.152.145.15.251-.005.5-.006.754,0,.119,0,.157-.043.154-.158C-5077.134,7453.7-5077.13,7453.439-5077.13,7453.182Zm-4.132-8.2c.257,0,.514,0,.772,0,.1,0,.143-.032.14-.136,0-.173,0-.346,0-.519,0-.095-.039-.129-.131-.128-.531,0-1.062,0-1.593,0-.106,0-.135.048-.133.144,0,.162.006.324,0,.487-.005.118.043.156.157.153C-5081.788,7444.979-5081.525,7444.983-5081.262,7444.983Zm4.29-.782c-.263,0-.525,0-.788,0-.1,0-.156.026-.152.141.006.167,0,.335,0,.5,0,.1.034.14.137.14q.788-.005,1.577,0c.11,0,.148-.043.144-.148,0-.157-.007-.314,0-.47.007-.123-.037-.169-.163-.166C-5076.469,7444.208-5076.721,7444.2-5076.972,7444.2Zm4.283,0c-.263,0-.525,0-.788,0-.1,0-.143.032-.141.136,0,.173,0,.346,0,.52,0,.094.041.126.132.126.531,0,1.063,0,1.593,0,.107,0,.134-.049.132-.145,0-.162-.006-.324,0-.486.005-.119-.043-.156-.158-.153C-5072.174,7444.206-5072.432,7444.2-5072.689,7444.2Z" transform="translate(5085.452 -7440.151)"/></svg>