<svg xmlns="http://www.w3.org/2000/svg" width="16.418" height="14.915" viewBox="0 0 16.418 14.915"><defs><style>.a{fill:#fff;}</style></defs><g transform="translate(5633.07 -5991.208)"><path class="a" d="M-5446.96,6179.921a.518.518,0,0,1-.3-.13c-.276-.227-.555-.451-.831-.68a.39.39,0,0,1-.111-.541.31.31,0,0,1,.028-.037.4.4,0,0,1,.562-.051c.009.008.018.016.026.024.157.124.315.246.462.382.1.1.165.077.255-.021.49-.53.986-1.05,1.48-1.583a.433.433,0,0,1,.42-.166.381.381,0,0,1,.308.443.377.377,0,0,1-.1.2c-.2.244-.424.469-.641.7-.4.427-.8.853-1.2,1.281A.5.5,0,0,1-5446.96,6179.921Z" transform="translate(-177.035 -178.088)"/><path class="a" d="M-5631.956,6006.1a1.572,1.572,0,0,0,.321.023h13.839c1.14-.006,1.17-1.407,1.135-1.956-.007-.073-.015-.146-.019-.218-.045-.62-.11-1.242-.165-1.857q-.1-1.153-.2-2.3-.1-1.108-.191-2.216-.119-1.359-.241-2.715c-.028-.309-.062-.618-.079-.928a1.654,1.654,0,0,0-1.67-1.61c-.251,0-.5,0-.755,0s-.259,0-.3-.253a.956.956,0,0,0-.608-.764,1.274,1.274,0,0,0-1.292.208.937.937,0,0,0-.234.643c.023.376.049.754.106,1.124a.962.962,0,0,0,.692.8,1.385,1.385,0,0,0,.781.013.865.865,0,0,0,.653-.879c0-.147.04-.2.192-.2.268.011.538,0,.808,0a.922.922,0,0,1,.926.851c.058.583.1,1.167.164,1.75.017.156-.071.15-.172.15h-10.986a.836.836,0,0,0-.287.026.329.329,0,0,0-.248.334.339.339,0,0,0,.287.325,1.49,1.49,0,0,0,.251.011h10.955c.333,0,.273,0,.3.277.087,1.018.185,2.036.274,3.057.078.894.148,1.787.225,2.681.06.709.121,1.418.191,2.126a.711.711,0,0,1-.55.843.7.7,0,0,1-.214.012h-10.613a.956.956,0,0,1-1.02-.729,2.828,2.828,0,0,1-.046-.356c-.063-.738-.123-1.477-.191-2.216-.078-.9-.162-1.8-.241-2.7q-.1-1.107-.191-2.216c-.066-.764-.139-1.528-.205-2.286-.035-.393-.071-.786-.086-1.18a.682.682,0,0,1,.6-.757.678.678,0,0,1,.137,0h1.078c.123,0,.179.029.191.167a1,1,0,0,0,1.029.945,1.525,1.525,0,0,0,.463-.036.848.848,0,0,0,.638-.851c0-.191.06-.229.236-.228.988.007,1.976,0,2.961,0,.321,0,.5-.121.489-.344s-.179-.35-.494-.351h-3.016c-.166,0-.238-.034-.266-.216a.972.972,0,0,0-1.046-.876,1.543,1.543,0,0,0-.429.021.867.867,0,0,0-.654.9c.005.148-.049.173-.173.171h-1.433a1.675,1.675,0,0,0-1.76,1.584c0,.028,0,.057,0,.084-.049.751-.134,1.5-.2,2.251s-.126,1.512-.192,2.269-.136,1.5-.2,2.25c-.054.6-.1,1.192-.154,1.788-.056.637-.1,1.274-.174,1.911A1.418,1.418,0,0,0-5631.956,6006.1Zm3.949-14.133a.529.529,0,0,1,.478-.032.294.294,0,0,1,.213.287c.021.28.049.559.073.838.026.327-.014.372-.33.371-.3,0-.4-.076-.432-.359-.037-.3-.056-.607-.083-.91a.194.194,0,0,1,.082-.192Zm7.047,1.42a.465.465,0,0,1-.639-.159.441.441,0,0,1-.047-.108c-.042-.319-.059-.641-.083-.963a.2.2,0,0,1,.055-.183.528.528,0,0,1,.463-.053.294.294,0,0,1,.246.275c.033.287.056.582.08.859-.005.124.035.25-.075.33Z" transform="translate(0)"/></g></svg>