<svg xmlns="http://www.w3.org/2000/svg" width="14.256" height="11.011" viewBox="0 0 14.256 11.011"><defs><style>.a{fill:#fff;}</style></defs><g transform="translate(6926.363 -2463.171)"><path class="a" d="M-6632.828,2636.708a.659.659,0,0,1,.3-.871.67.67,0,0,1,.86.305.66.66,0,0,1-.317.867A.655.655,0,0,1-6632.828,2636.708Z" transform="translate(-282.764 -166.897)"/><path class="a" d="M-6926.362,2472.434a1.669,1.669,0,0,0,1.738,1.67l1.232.01h.065c.024,0,.047,0,.067,0l4.731.038h.063l2.389.019a.543.543,0,0,1,.086,0l.37.007.669.006c.146,0,.293,0,.439-.008a1.672,1.672,0,0,0,1.679-1.522c.021-.428.016-.858.017-1.287a.243.243,0,0,1,.157-.249.9.9,0,0,0,.543-.834q.012-.751.01-1.5a.872.872,0,0,0-.542-.816.21.21,0,0,1-.14-.22c.007-.418,0-.836.015-1.254a1.548,1.548,0,0,0-.574-1.286.253.253,0,0,1-.1-.217c.007-.231.008-.462.009-.693a1.011,1.011,0,0,0-1.115-1.049c-2.134-.02-4.267-.031-6.4-.046-1.125-.008-2.249-.015-3.373-.027a2.091,2.091,0,0,0-1.247.3,1.5,1.5,0,0,0-.726,1.252c-.023,1.623-.031,3.246-.043,4.869C-6926.349,2470.542-6926.353,2471.488-6926.362,2472.434Zm12.15-7.757c0,.083-.035.113-.131.112q-1.162-.018-2.326-.028-2.245-.017-4.49-.03-1.5-.01-2.994-.02a.459.459,0,0,1-.463-.252c-.146-.3.083-.58.486-.578.817,0,1.635.011,2.453.016l4.49.03q1.3.009,2.6.021c.284,0,.372.087.379.351C-6914.208,2464.424-6914.213,2464.551-6914.212,2464.677Zm-1.051,5.809a1,1,0,0,1-.955-.808.941.941,0,0,1,.639-1.044.991.991,0,0,1,.425-.085c.659,0,1.319.005,1.979.012.208,0,.3.083.3.274,0,.478,0,.956-.012,1.434a.224.224,0,0,1-.253.242C-6913.847,2470.505-6914.556,2470.512-6915.263,2470.486Zm-10.333,1.932c.01-1.122.016-2.244.026-3.367q.018-2.129.04-4.258a.523.523,0,0,1,.094-.356c.015.046.022.066.028.086a1.2,1.2,0,0,0,1.229.887c.2,0,.409,0,.613,0l4.471.03c1.52.011,3.041.02,4.561.039a.947.947,0,0,1,.995.918c0,.429-.012.858-.009,1.287,0,.128-.041.17-.187.167-.5-.01-1-.015-1.5-.007a1.806,1.806,0,0,0-1.7,1.212,1.7,1.7,0,0,0,1.763,2.136c.474.012.949.011,1.423.013.106,0,.169.02.167.137-.01.413-.008.825-.016,1.238a.83.83,0,0,1-.277.61,1.186,1.186,0,0,1-.855.284c-.92-.012-1.839-.019-2.758-.025q-3.534-.026-7.068-.051A.949.949,0,0,1-6925.6,2472.419Z" transform="translate(-0.001)"/></g></svg>