<svg xmlns="http://www.w3.org/2000/svg" width="19.368" height="17.302" viewBox="0 0 19.368 17.302"><defs><style>.a{fill:#fff;}</style></defs><g transform="translate(3087.754 375.459)"><path class="a" d="M-3037.095-84.492c-.445,0-.89,0-1.335,0-.336,0-.447-.109-.448-.437,0-.491,0-.983,0-1.474,0-.3.117-.415.408-.416q1.375,0,2.75,0c.254,0,.364.11.365.366q.005.8,0,1.594c0,.255-.113.364-.366.366-.458,0-.917,0-1.375,0Zm-.036-.613c.325,0,.651,0,.977,0,.134,0,.194-.043.19-.184q-.01-.368,0-.737c0-.139-.056-.186-.19-.185q-.957.006-1.914,0c-.143,0-.206.046-.2.2.008.239.008.478,0,.717,0,.149.056.2.2.2C-3037.755-85.109-3037.443-85.1-3037.13-85.1Z" transform="translate(-46.921 -277.098)"/><path class="a" d="M-2739.737-84.492c-.452,0-.9,0-1.357,0-.265,0-.377-.11-.379-.376q-.007-.788,0-1.576c0-.266.115-.374.38-.375q1.367,0,2.733,0c.294,0,.407.118.409.415q0,.748,0,1.5c0,.3-.116.412-.41.414C-2738.819-84.49-2739.278-84.492-2739.737-84.492Zm.019-.612h0c.325,0,.651,0,.977,0,.124,0,.183-.041.181-.173q-.008-.379,0-.757c0-.129-.052-.176-.178-.175q-.966,0-1.933,0c-.133,0-.195.043-.191.184.006.246.007.492,0,.737,0,.139.054.188.189.186C-2740.355-85.108-2740.037-85.1-2739.718-85.1Z" transform="translate(-332.433 -277.098)"/><path class="a" d="M-3068.386-269.023c0-.362-.085-.447-.447-.447-1.488,0-2.976,0-4.463,0v.605q2.027.009,4.053,0c.192,0,.25.058.249.25-.006,1.9,0,3.79,0,5.685q0,2.8,0,5.606c0,.3,0,.3-.291.3h-5.566c-.274,0-.275,0-.275-.276q0-2.214,0-4.429c0-.349-.091-.443-.433-.443h-5.067c-.312,0-.418.106-.419.421q0,2.224,0,4.449c0,.278,0,.279-.273.279-1.855,0-3.711,0-5.566,0-.2,0-.257-.064-.257-.262q.008-5.665,0-11.331c0-.187.049-.255.245-.253q2.008.011,4.016,0v-.605c-1.467-.008-2.934,0-4.4,0-.414,0-.469.055-.469.474v12.089c0,.432.066.5.494.5h18.393c.377,0,.48-.1.48-.466Q-3068.386-262.948-3068.386-269.023Zm-10.027,11.789c0,.167-.057.219-.22.217-.518-.008-1.037-.01-1.555,0-.189,0-.255-.051-.252-.246.01-.678,0-1.356,0-2.034s0-1.356,0-2.034c0-.177.059-.23.231-.228.525.009,1.05.008,1.575,0,.162,0,.222.048.221.216Q-3078.421-259.288-3078.414-257.234Zm2.454.217c-.518-.008-1.037-.01-1.555,0-.188,0-.256-.052-.253-.247.01-.678,0-1.356,0-2.034s0-1.356,0-2.034c0-.176.058-.23.231-.227.525.009,1.05.008,1.575,0,.162,0,.222.049.222.216q-.008,2.054,0,4.108C-3075.739-257.067-3075.8-257.014-3075.96-257.017Z" transform="translate(0 -101.751)"/><g transform="translate(-3082.786 -375.459)"><path class="a" d="M-2954.178-370.271q0-.918,0-1.835a1.4,1.4,0,0,0-.732-1.289q-1.613-.936-3.23-1.864a1.348,1.348,0,0,0-1.406,0q-1.638.934-3.266,1.887a1.325,1.325,0,0,0-.692,1.22c0,1.245,0,2.489,0,3.734a1.339,1.339,0,0,0,.7,1.239q1.627.953,3.267,1.885a1.353,1.353,0,0,0,1.423-.015q1.607-.925,3.212-1.854a1.387,1.387,0,0,0,.729-1.268C-2954.174-369.048-2954.178-369.659-2954.178-370.271Zm-3.859-1.326a1.356,1.356,0,0,0-1.9,1.134,1.468,1.468,0,0,0,.3,1.116,1.3,1.3,0,0,0,1.172.493,1.3,1.3,0,0,0,.92-.455.244.244,0,0,1,.347-.046l.571.33a.25.25,0,0,1,.074.418,2.548,2.548,0,0,1-1.836.912,2.587,2.587,0,0,1-1.848-.561,2.492,2.492,0,0,1-.944-1.74,2.028,2.028,0,0,1-.015-.26,2.552,2.552,0,0,1,2.256-2.59,2.582,2.582,0,0,1,2.266.758,1.96,1.96,0,0,1,.131.148.249.249,0,0,1-.059.4c-.211.128-.428.247-.646.365a.234.234,0,0,1-.3-.069A1.326,1.326,0,0,0-2958.037-371.6Zm.105,1.32a.662.662,0,0,1-.66.653.661.661,0,0,1-.646-.658.659.659,0,0,1,.651-.652A.662.662,0,0,1-2957.931-370.278Z" transform="translate(2963.505 375.459)"/></g></g></svg>