<svg xmlns="http://www.w3.org/2000/svg" width="15.842" height="12.542" viewBox="0 0 15.842 12.542"><defs><style>.a{fill:#fff;}</style></defs><g transform="translate(5745.606 -7933.612)"><path class="a" d="M-5524.748,8101.394c-.553,0-1.106,0-1.659,0a.5.5,0,0,1-.529-.454.487.487,0,0,1,.466-.532,1.79,1.79,0,0,1,.256-.014h2.846a2.006,2.006,0,0,1,.452.027.488.488,0,0,1,.384.446.5.5,0,0,1-.322.5.674.674,0,0,1-.253.032Z" transform="translate(-210.004 -160.172)"/><path class="a" d="M-5524.736,8148.132h-1.66a.505.505,0,0,1-.515-.325.49.49,0,0,1,.448-.673c.145-.013.29,0,.435,0h2.787c.066,0,.132,0,.2,0a.507.507,0,0,1,.5.506.5.5,0,0,1-.535.491C-5523.629,8148.136-5524.183,8148.132-5524.736,8148.132Z" transform="translate(-209.994 -205.055)"/><path class="a" d="M-5524.709,8054.144c.553,0,1.106,0,1.659,0a.485.485,0,0,1,.54.478.484.484,0,0,1-.539.5q-1.659,0-3.318,0a.488.488,0,0,1-.548-.489.484.484,0,0,1,.548-.486C-5525.815,8054.142-5525.262,8054.144-5524.709,8054.144Z" transform="translate(-210.025 -115.756)"/><path class="a" d="M-5673.981,8052.2q0-.445,0-.89a.677.677,0,0,0-.354-.625q-.782-.454-1.566-.9a.654.654,0,0,0-.682,0q-.794.453-1.583.915a.644.644,0,0,0-.335.592c0,.6,0,1.207,0,1.81a.649.649,0,0,0,.337.6q.789.462,1.583.914a.655.655,0,0,0,.69-.007q.78-.448,1.557-.9a.672.672,0,0,0,.354-.615C-5673.979,8052.791-5673.981,8052.494-5673.981,8052.2Z" transform="translate(-64.444 -111.471)"/><path class="a" d="M-5729.766,7937.078a1.727,1.727,0,0,0-1.775-1.774h-4.131c-.269,0-.27,0-.27-.275q0-.23,0-.459h0v-.069a.785.785,0,0,0-.891-.886q-.87,0-1.74,0a.77.77,0,0,0-.857.855c0,.228,0,.455,0,.683-.02.125-.092.158-.253.157q-2.125-.012-4.25,0a1.688,1.688,0,0,0-1.667,1.665q-.005,3.746,0,7.492a1.636,1.636,0,0,0,.645,1.3,1.891,1.891,0,0,0,1.256.39h6.01q3.005,0,6.009,0a1.759,1.759,0,0,0,1.919-1.918Q-5729.764,7940.656-5729.766,7937.078Zm-8.439-2.459c.361.013.724.008,1.086,0,.123,0,.172.041.182.144q0,.787,0,1.574c0,.14-.042.2-.191.2q-.553-.01-1.105,0c-.148,0-.193-.055-.192-.2q0-.51,0-1.022h0c0-.015,0-.03,0-.045q0-.251,0-.5C-5738.409,7934.661-5738.354,7934.614-5738.205,7934.619Zm7.437,9.7a.752.752,0,0,1-.831.832h-12.139c-.614,0-.89-.277-.89-.9q0-3.539,0-7.078a.794.794,0,0,1,.886-.9h4.053c.256,0,.255,0,.257.266a1.378,1.378,0,0,0,.035.431.718.718,0,0,0,.6.53,1.729,1.729,0,0,0,.255.023c.573,0,1.147.005,1.72,0a.792.792,0,0,0,.877-.868c.005-.428-.036-.381.381-.382q1.938,0,3.875,0c.066,0,.132,0,.2,0a.723.723,0,0,1,.719.779q0,2.7,0,5.4Q-5730.768,7943.39-5730.769,7944.32Z"/></g></svg>