<svg xmlns="http://www.w3.org/2000/svg" width="16.786" height="14.518" viewBox="0 0 16.786 14.518"><defs><style>.a{fill:#fff;}</style></defs><g transform="translate(5377.516 -6606.539)"><path class="a" d="M-5373.805,6640.9a.473.473,0,0,1-.465-.331q-.509-1.116-1.021-2.232l-2.1-4.578c-.027-.06-.058-.119-.082-.181a.455.455,0,0,1,.252-.642c.654-.3,1.312-.6,1.968-.9l6.679-3.057c.071-.032.142-.065.214-.1a.474.474,0,0,1,.688.211.436.436,0,0,0,.543.193.436.436,0,0,0,.254-.535c-.1-.4-.037-.529.345-.706q.917-.426,1.836-.845a.472.472,0,0,1,.716.271l3.154,6.892a.49.49,0,0,1-.281.769q-.924.428-1.854.849a.469.469,0,0,1-.692-.2.433.433,0,0,0-.557-.2.444.444,0,0,0-.24.558c.088.361.02.51-.31.661l-8.778,4.02A.605.605,0,0,1-5373.805,6640.9Zm.271-1.078c.067-.029.145-.062.221-.1l5.021-2.3,2.74-1.256c.1-.043.174-.083.179-.216a1.282,1.282,0,0,1,.773-1.188,1.282,1.282,0,0,1,1.407.171.229.229,0,0,0,.276.029q.488-.234.985-.448c.126-.054.14-.119.083-.236-.186-.392-.362-.787-.543-1.181q-1.085-2.372-2.167-4.744c-.067-.15-.134-.165-.271-.1-.308.15-.621.292-.935.429a.259.259,0,0,0-.178.254,1.3,1.3,0,0,1-.792,1.161,1.275,1.275,0,0,1-1.376-.166.272.272,0,0,0-.326-.025q-2.468,1.135-4.938,2.261c-.979.448-1.957.9-2.937,1.344-.111.05-.154.1-.089.216.029.052.049.109.074.164q.878,1.92,1.757,3.84.448.976.9,1.952C-5373.646,6639.747-5373.637,6639.824-5373.535,6639.823Z" transform="translate(0 -19.845)"/><path class="a" d="M-5367.061,6609.456a.471.471,0,0,1,.4-.45l3.029-.746,6.847-1.687c.241-.059.241-.06.3.176.037.146.065.294.111.437s.014.222-.153.262c-1.168.28-2.335.571-3.5.858q-2.906.716-5.813,1.43c-.175.042-.2.108-.16.273.135.5.251,1.015.383,1.521.036.136,0,.2-.134.229-.194.039-.387.088-.579.137-.077.02-.132.008-.153-.075q-.285-1.165-.569-2.33A.145.145,0,0,1-5367.061,6609.456Z" transform="translate(-10.075 0)"/><path class="a" d="M-5287.732,6806.421a1.873,1.873,0,0,1,1.884,1.892,1.873,1.873,0,0,1-1.9,1.89,1.875,1.875,0,0,1-1.876-1.883A1.872,1.872,0,0,1-5287.732,6806.421Zm-.033,2.885a1.011,1.011,0,0,0,1.02-.963,1.012,1.012,0,0,0-.958-1.025,1.015,1.015,0,0,0-1.031.972A1.014,1.014,0,0,0-5287.765,6809.306Z" transform="translate(-84.707 -192.649)"/><path class="a" d="M-5167.6,6788.028c.006.067-.044.084-.086.1q-1.263.579-2.527,1.157c-.1.048-.163.026-.208-.083-.076-.183-.158-.365-.248-.542-.057-.11-.019-.161.082-.207q1.257-.571,2.511-1.146c.074-.034.138-.047.179.044l.282.625A.314.314,0,0,1-5167.6,6788.028Z" transform="translate(-199.332 -174.206)"/><path class="a" d="M-5149.895,6826.968c0,.1-.088.11-.149.138q-.894.411-1.789.818c-.224.1-.45.2-.672.309-.1.05-.165.036-.211-.074-.08-.188-.164-.375-.253-.559-.049-.1-.016-.15.08-.193q1.241-.563,2.478-1.133c.123-.057.194-.052.248.088.066.173.152.34.229.51C-5149.92,6826.9-5149.907,6826.938-5149.895,6826.968Z" transform="translate(-216.399 -211.751)"/><path class="a" d="M-5185.492,6748.572a.091.091,0,0,1,.108.062l.287.622c.056.119-.039.145-.113.179l-1.54.707c-.312.143-.625.281-.934.429-.114.054-.175.029-.222-.085a3.977,3.977,0,0,0-.212-.458c-.09-.158-.058-.237.11-.312.621-.274,1.236-.562,1.853-.845l.574-.261Z" transform="translate(-182.497 -136.892)"/><path class="a" d="M-5050.689,6787.218c.063-.009.083.039.1.083.126.285.25.572.378.857.036.082.022.138-.062.174-.2.086-.4.172-.595.261a.112.112,0,0,1-.172-.065q-.191-.438-.384-.875a.1.1,0,0,1,.053-.146c.209-.09.418-.183.628-.274A.408.408,0,0,1-5050.689,6787.218Z" transform="translate(-314.278 -174.14)"/><path class="a" d="M-5078.909,6722.446c.013.07-.039.095-.088.117-.2.088-.4.172-.593.261-.088.04-.133,0-.167-.075q-.183-.421-.371-.84c-.039-.086-.031-.144.066-.184.2-.083.4-.172.595-.258.071-.032.125-.026.16.053.128.3.258.595.387.892A.205.205,0,0,1-5078.909,6722.446Z" transform="translate(-286.604 -110.751)"/></g></svg>