<svg xmlns="http://www.w3.org/2000/svg" width="19.368" height="9.693" viewBox="0 0 19.368 9.693"><defs><style>.a{fill:#fff;}</style></defs><g transform="translate(-111 -178.228)"><path class="a" d="M-6633.707,1750.73c.458,0,.919.018,1.377,0a2.418,2.418,0,0,1,2.506,2.442c.008.308.011.618,0,.926a.5.5,0,0,1-.543.534.48.48,0,0,1-.466-.509,9.317,9.317,0,0,0-.033-1.15,1.418,1.418,0,0,0-1.427-1.223c-.926,0-1.853.024-2.777-.01a1.485,1.485,0,0,0-1.516,1.51c0,.286,0,.572,0,.858a.486.486,0,0,1-.453.522.475.475,0,0,1-.543-.454,4.987,4.987,0,0,1,.1-1.727,2.372,2.372,0,0,1,2.29-1.716C-6634.7,1750.728-6634.205,1750.731-6633.707,1750.73Z" transform="translate(6754.399 -1567.671)"/><path class="a" d="M-6464.351,1668.963a1.948,1.948,0,0,1-1.956-1.949,1.979,1.979,0,0,1,1.964-1.956,1.98,1.98,0,0,1,1.944,1.953A1.945,1.945,0,0,1-6464.351,1668.963Zm-.007-1.017a.871.871,0,0,0,.941-.922.9.9,0,0,0-.93-.95.9.9,0,0,0-.941.939A.868.868,0,0,0-6464.358,1667.947Z" transform="translate(6590.824 -1485.872)"/><path class="a" d="M-6720.693,1668.964a1.953,1.953,0,0,1-1.948-1.936,1.98,1.98,0,0,1,1.952-1.969,1.98,1.98,0,0,1,1.958,1.963A1.944,1.944,0,0,1-6720.693,1668.964Zm.006-1.017a.87.87,0,0,0,.937-.927.9.9,0,0,0-.935-.945.9.9,0,0,0-.937.944A.87.87,0,0,0-6720.687,1667.948Z" transform="translate(6835.587 -1485.873)"/><path class="a" d="M-6592.512,1647.742a1.971,1.971,0,0,1-1.96-1.954,1.974,1.974,0,0,1,1.937-1.955,1.971,1.971,0,0,1,1.973,1.943A1.974,1.974,0,0,1-6592.512,1647.742Zm.931-1.957a.882.882,0,0,0-.934-.933.884.884,0,0,0-.939.928.885.885,0,0,0,.945.945A.883.883,0,0,0-6591.581,1645.784Z" transform="translate(6713.204 -1465.604)"/><path class="a" d="M-6443.4,1772.963c-.323,0-.647,0-.971,0a.5.5,0,0,1-.554-.519.5.5,0,0,1,.555-.5c.6-.005,1.2,0,1.806,0a2.425,2.425,0,0,1,2.516,2.41c.015.308.01.617,0,.925a.513.513,0,0,1-.331.537.488.488,0,0,1-.679-.456,9.646,9.646,0,0,0-.036-1.194,1.444,1.444,0,0,0-1.38-1.2c-.308-.005-.617,0-.925,0Z" transform="translate(6570.403 -1587.933)"/><path class="a" d="M-6762.412,1772.856h-.79a1.467,1.467,0,0,0-1.533,1.511c-.005.3,0,.6,0,.9a.46.46,0,0,1-.426.472.456.456,0,0,1-.545-.361,3.416,3.416,0,0,1,.483-2.611,2.331,2.331,0,0,1,1.808-.925c.661-.026,1.324-.01,1.986-.006a.5.5,0,0,1,.562.511c0,.308-.215.5-.57.5-.166,0-.331,0-.5,0Z" transform="translate(6876.761 -1587.825)"/></g></svg>