<svg width="24" height="23" viewBox="0 0 24 23" fill="none" xmlns="http://www.w3.org/2000/svg">
<path d="M24 4.92851C24 4.05708 23.6388 3.22135 22.9958 2.60515C22.3528 1.98896 21.4807 1.64279 20.5714 1.64279H19.7143V0.844459C19.7143 0.402426 19.3596 0.0230278 18.8984 0.000951823C18.7825 -0.00439939 18.6667 0.0128544 18.5579 0.0516679C18.4492 0.0904814 18.3498 0.150046 18.2658 0.226754C18.1818 0.303461 18.115 0.395713 18.0693 0.49792C18.0236 0.600128 18 0.710162 18 0.821356V1.64279H6V0.844459C6 0.402426 5.64536 0.0230278 5.18411 0.000951823C5.06821 -0.00439939 4.95239 0.0128544 4.84366 0.0516679C4.73493 0.0904814 4.63556 0.150046 4.55156 0.226754C4.46756 0.303461 4.40068 0.395713 4.35499 0.49792C4.30929 0.600128 4.28573 0.710162 4.28571 0.821356V1.64279H3.42857C2.51926 1.64279 1.64719 1.98896 1.00421 2.60515C0.361224 3.22135 0 4.05708 0 4.92851V5.54459C0 5.59905 0.0225765 5.65128 0.0627629 5.6898C0.102949 5.72831 0.157454 5.74994 0.214286 5.74994H23.7857C23.8425 5.74994 23.8971 5.72831 23.9372 5.6898C23.9774 5.65128 24 5.59905 24 5.54459V4.92851ZM0 19.7143C0 20.5857 0.361224 21.4214 1.00421 22.0376C1.64719 22.6538 2.51926 23 3.42857 23H20.5714C21.4807 23 22.3528 22.6538 22.9958 22.0376C23.6388 21.4214 24 20.5857 24 19.7143V7.54682C24 7.50598 23.9831 7.4668 23.9529 7.43792C23.9228 7.40903 23.8819 7.39281 23.8393 7.39281H0.160714C0.11809 7.39281 0.077212 7.40903 0.0470722 7.43792C0.0169324 7.4668 0 7.50598 0 7.54682V19.7143ZM18.4286 9.03567C18.6829 9.03567 18.9314 9.10793 19.1429 9.24332C19.3543 9.37871 19.5191 9.57115 19.6164 9.79629C19.7137 10.0214 19.7392 10.2692 19.6896 10.5082C19.64 10.7472 19.5175 10.9668 19.3377 11.1391C19.1579 11.3114 18.9288 11.4287 18.6794 11.4763C18.43 11.5238 18.1715 11.4994 17.9366 11.4062C17.7016 11.3129 17.5008 11.155 17.3595 10.9524C17.2183 10.7497 17.1429 10.5115 17.1429 10.2678C17.1429 9.94103 17.2783 9.62763 17.5194 9.39656C17.7606 9.16548 18.0876 9.03567 18.4286 9.03567ZM18.4286 13.1428C18.6829 13.1428 18.9314 13.2151 19.1429 13.3505C19.3543 13.4859 19.5191 13.6783 19.6164 13.9035C19.7137 14.1286 19.7392 14.3763 19.6896 14.6154C19.64 14.8544 19.5175 15.0739 19.3377 15.2462C19.1579 15.4185 18.9288 15.5359 18.6794 15.5834C18.43 15.631 18.1715 15.6066 17.9366 15.5133C17.7016 15.4201 17.5008 15.2621 17.3595 15.0595C17.2183 14.8569 17.1429 14.6187 17.1429 14.375C17.1429 14.0482 17.2783 13.7348 17.5194 13.5037C17.7606 13.2726 18.0876 13.1428 18.4286 13.1428ZM14.1429 9.03567C14.3971 9.03567 14.6457 9.10793 14.8572 9.24332C15.0686 9.37871 15.2334 9.57115 15.3307 9.79629C15.428 10.0214 15.4535 10.2692 15.4039 10.5082C15.3543 10.7472 15.2318 10.9668 15.052 11.1391C14.8722 11.3114 14.6431 11.4287 14.3937 11.4763C14.1443 11.5238 13.8858 11.4994 13.6508 11.4062C13.4159 11.3129 13.2151 11.155 13.0738 10.9524C12.9325 10.7497 12.8571 10.5115 12.8571 10.2678C12.8571 9.94103 12.9926 9.62763 13.2337 9.39656C13.4748 9.16548 13.8019 9.03567 14.1429 9.03567ZM14.1429 13.1428C14.3971 13.1428 14.6457 13.2151 14.8572 13.3505C15.0686 13.4859 15.2334 13.6783 15.3307 13.9035C15.428 14.1286 15.4535 14.3763 15.4039 14.6154C15.3543 14.8544 15.2318 15.0739 15.052 15.2462C14.8722 15.4185 14.6431 15.5359 14.3937 15.5834C14.1443 15.631 13.8858 15.6066 13.6508 15.5133C13.4159 15.4201 13.2151 15.2621 13.0738 15.0595C12.9325 14.8569 12.8571 14.6187 12.8571 14.375C12.8571 14.0482 12.9926 13.7348 13.2337 13.5037C13.4748 13.2726 13.8019 13.1428 14.1429 13.1428ZM14.1429 17.25C14.3971 17.25 14.6457 17.3222 14.8572 17.4576C15.0686 17.593 15.2334 17.7855 15.3307 18.0106C15.428 18.2358 15.4535 18.4835 15.4039 18.7225C15.3543 18.9615 15.2318 19.1811 15.052 19.3534C14.8722 19.5257 14.6431 19.6431 14.3937 19.6906C14.1443 19.7381 13.8858 19.7137 13.6508 19.6205C13.4159 19.5272 13.2151 19.3693 13.0738 19.1667C12.9325 18.964 12.8571 18.7258 12.8571 18.4821C12.8571 18.1553 12.9926 17.8419 13.2337 17.6109C13.4748 17.3798 13.8019 17.25 14.1429 17.25ZM9.85714 13.1428C10.1114 13.1428 10.36 13.2151 10.5714 13.3505C10.7829 13.4859 10.9477 13.6783 11.045 13.9035C11.1423 14.1286 11.1678 14.3763 11.1182 14.6154C11.0685 14.8544 10.9461 15.0739 10.7663 15.2462C10.5865 15.4185 10.3574 15.5359 10.108 15.5834C9.85857 15.631 9.60005 15.6066 9.36512 15.5133C9.13019 15.4201 8.92939 15.2621 8.78811 15.0595C8.64683 14.8569 8.57143 14.6187 8.57143 14.375C8.57143 14.0482 8.70689 13.7348 8.94801 13.5037C9.18912 13.2726 9.51615 13.1428 9.85714 13.1428ZM9.85714 17.25C10.1114 17.25 10.36 17.3222 10.5714 17.4576C10.7829 17.593 10.9477 17.7855 11.045 18.0106C11.1423 18.2358 11.1678 18.4835 11.1182 18.7225C11.0685 18.9615 10.9461 19.1811 10.7663 19.3534C10.5865 19.5257 10.3574 19.6431 10.108 19.6906C9.85857 19.7381 9.60005 19.7137 9.36512 19.6205C9.13019 19.5272 8.92939 19.3693 8.78811 19.1667C8.64683 18.964 8.57143 18.7258 8.57143 18.4821C8.57143 18.1553 8.70689 17.8419 8.94801 17.6109C9.18912 17.3798 9.51615 17.25 9.85714 17.25ZM5.57143 13.1428C5.82572 13.1428 6.0743 13.2151 6.28573 13.3505C6.49717 13.4859 6.66196 13.6783 6.75927 13.9035C6.85659 14.1286 6.88205 14.3763 6.83244 14.6154C6.78283 14.8544 6.66038 15.0739 6.48057 15.2462C6.30076 15.4185 6.07166 15.5359 5.82226 15.5834C5.57286 15.631 5.31434 15.6066 5.07941 15.5133C4.84447 15.4201 4.64367 15.2621 4.5024 15.0595C4.36112 14.8569 4.28571 14.6187 4.28571 14.375C4.28571 14.0482 4.42117 13.7348 4.66229 13.5037C4.90341 13.2726 5.23044 13.1428 5.57143 13.1428ZM5.57143 17.25C5.82572 17.25 6.0743 17.3222 6.28573 17.4576C6.49717 17.593 6.66196 17.7855 6.75927 18.0106C6.85659 18.2358 6.88205 18.4835 6.83244 18.7225C6.78283 18.9615 6.66038 19.1811 6.48057 19.3534C6.30076 19.5257 6.07166 19.6431 5.82226 19.6906C5.57286 19.7381 5.31434 19.7137 5.07941 19.6205C4.84447 19.5272 4.64367 19.3693 4.5024 19.1667C4.36112 18.964 4.28571 18.7258 4.28571 18.4821C4.28571 18.1553 4.42117 17.8419 4.66229 17.6109C4.90341 17.3798 5.23044 17.25 5.57143 17.25Z" fill="#9b66ff"/>
</svg>
