<svg width="22" height="19" viewBox="0 0 22 19" fill="none" xmlns="http://www.w3.org/2000/svg">
<path fill-rule="evenodd" clip-rule="evenodd" d="M2.96154 1.72727C2.62492 1.72727 2.30208 1.86376 2.06406 2.1067C1.82603 2.34965 1.69231 2.67915 1.69231 3.02273V15.9773C1.69231 16.3208 1.82603 16.6504 2.06406 16.8933C2.30208 17.1362 2.62492 17.2727 2.96154 17.2727H11.4231C11.7597 17.2727 12.0825 17.1362 12.3206 16.8933C12.5586 16.6504 12.6923 16.3208 12.6923 15.9773V13.8182C12.6923 13.3412 13.0711 12.9545 13.5385 12.9545C14.0058 12.9545 14.3846 13.3412 14.3846 13.8182V15.9773C14.3846 16.7789 14.0726 17.5478 13.5172 18.1147C12.9618 18.6815 12.2085 19 11.4231 19H2.96154C2.17609 19 1.42281 18.6815 0.867414 18.1147C0.312018 17.5478 0 16.7789 0 15.9773V3.02273C0 2.22105 0.312018 1.45221 0.867414 0.885336C1.42281 0.318465 2.17609 0 2.96154 0H11C11.7945 0 12.6093 0.320492 13.2292 0.816231C13.8458 1.30938 14.3846 2.0755 14.3846 3.02273V5.18182C14.3846 5.65879 14.0058 6.04545 13.5385 6.04545C13.0711 6.04545 12.6923 5.65879 12.6923 5.18182V3.02273C12.6923 2.7776 12.546 2.46417 12.1854 2.17586C11.8282 1.89015 11.3737 1.72727 11 1.72727H2.96154ZM16.3248 4.57114C16.6552 4.23386 17.191 4.23386 17.5214 4.57114L21.7522 8.88932C22.0826 9.22659 22.0826 9.77341 21.7522 10.1107L17.5214 14.4289C17.191 14.7661 16.6552 14.7661 16.3248 14.4289C15.9943 14.0916 15.9943 13.5448 16.3248 13.2075L19.111 10.3636H6.76923C6.30191 10.3636 5.92308 9.97697 5.92308 9.5C5.92308 9.02303 6.30191 8.63636 6.76923 8.63636H19.111L16.3248 5.7925C15.9943 5.45523 15.9943 4.90841 16.3248 4.57114Z" fill="white"/>
</svg>
