<svg xmlns="http://www.w3.org/2000/svg" width="17.044" height="17.454" viewBox="0 0 17.044 17.454"><defs><style>.a{fill:#fff;}</style></defs><g transform="translate(6650.651 -9211.155)"><path class="a" d="M-6627.16,9214.48a1.9,1.9,0,0,0-1.531-1.956q-2.739-.661-5.479-1.312a1.876,1.876,0,0,0-2.332,1.587c-.026.187-.087.229-.263.229-1.575-.008-3.15-.006-4.725,0a1.857,1.857,0,0,0-1.838,1.492,4.851,4.851,0,0,0-.033,1.007.613.613,0,0,0,.621.636.621.621,0,0,0,.646-.631c0-.155,0-.312,0-.468,0-.54.228-.767.771-.768h4.55c.255,0,.255,0,.255.257q0,3.044,0,6.086c0,1.531,0,3.062,0,4.59,0,.2-.061.263-.254.248s-.4,0-.6,0h-3.966c-.526,0-.754-.231-.756-.763,0-.161,0-.325,0-.486a.624.624,0,0,0-.621-.617.614.614,0,0,0-.646.607c-.006.2,0,.391,0,.584a1.856,1.856,0,0,0,1.943,1.944q2.344,0,4.687,0c.152,0,.209.036.226.2a1.885,1.885,0,0,0,1.846,1.671,4.49,4.49,0,0,0,1.085-.2q2.439-.577,4.875-1.169a1.908,1.908,0,0,0,1.542-1.969q0-2.694,0-5.386T-6627.16,9214.48Zm-1.269,10.734a.71.71,0,0,1-.621.789c-1.77.424-3.543.835-5.308,1.278a.657.657,0,0,1-.873-.688c.017-2.236.008-4.473.008-6.709s0-4.485,0-6.728a.624.624,0,0,1,.533-.716.582.582,0,0,1,.25.009q2.711.652,5.423,1.3c.425.1.588.328.588.81q0,3.325,0,6.649Q-6628.428,9223.214-6628.428,9225.215Z" transform="translate(-6.448)"/><path class="a" d="M-6646.592,9263.479c-.438.434-.874.871-1.308,1.308a.65.65,0,0,0-.077.992.643.643,0,0,0,.973-.062q1.181-1.167,2.349-2.349a.633.633,0,0,0,.017-.993c-.788-.8-1.589-1.6-2.389-2.389a.65.65,0,0,0-.406-.222.659.659,0,0,0-.688.408.667.667,0,0,0,.227.776q.609.612,1.22,1.222c-1.1.011-2.2.04-3.292.066a.643.643,0,0,0-.44.138.66.66,0,0,0-.184.779.666.666,0,0,0,.717.374c.817-.013,1.635-.023,2.454-.05Z" transform="translate(0 -43.051)"/></g></svg>