<svg xmlns="http://www.w3.org/2000/svg" width="17.597" height="17.597" viewBox="0 0 17.597 17.597"><defs><style>.a{fill:#fff;}</style></defs><path class="a" d="M42.6,33.8a8.8,8.8,0,1,0-17.075,2.994.407.407,0,1,0,.766-.277A7.987,7.987,0,1,1,39.8,39.07c-.112.127-.23.253-.352.375a7.995,7.995,0,0,1-8.755,1.71q-.178-.075-.352-.159a7.938,7.938,0,0,1-2.186-1.552l-.1-.106.1-.106a7.984,7.984,0,0,1,9.478-1.36.407.407,0,1,0,.391-.715,8.8,8.8,0,0,0-10.445,1.5c-.133.133-.263.272-.388.413a.407.407,0,0,0,0,.538c.125.142.255.281.388.413a8.8,8.8,0,0,0,12.445,0c.134-.134.265-.273.388-.413h0A8.78,8.78,0,0,0,42.6,33.8Z" transform="translate(-25 -25)"/><path class="a" d="M79.005,52.523a3.218,3.218,0,1,0-3.218,3.218A3.222,3.222,0,0,0,79.005,52.523Zm-5.621,0a2.4,2.4,0,1,1,2.4,2.4A2.406,2.406,0,0,1,73.384,52.523Z" transform="translate(-66.988 -46.454)"/></svg>