<svg xmlns="http://www.w3.org/2000/svg" width="16.717" height="15.578" viewBox="0 0 16.717 15.578"><defs><style>.a{fill:#fff;}</style></defs><g transform="translate(6207.798 1364.965)"><path class="a" d="M-6095.09-1358.822c0,.973-.034,1.948.01,2.919a2.409,2.409,0,0,1-1.358,2.322,6.642,6.642,0,0,1-2.873.829,5.462,5.462,0,0,1-1.229.038c-.418-.061-.673-.306-.645-.628.03-.346.283-.545.714-.539a8.161,8.161,0,0,0,2.375-.27,3.307,3.307,0,0,0,1.578-.853.789.789,0,0,0,.243-.58c-.007-.367-.005-.735,0-1.1,0-.206-.037-.282-.256-.163a7.7,7.7,0,0,1-4.118.791.594.594,0,0,1-.6-.6.6.6,0,0,1,.693-.571,7.416,7.416,0,0,0,1.229-.028,5.577,5.577,0,0,0,2.2-.6,1.314,1.314,0,0,0,.854-1.411,4.629,4.629,0,0,1,0-.745c.005-.236-.082-.245-.272-.151a8.234,8.234,0,0,1-6.305.365,4.5,4.5,0,0,1-.916-.411c-.164-.094-.2-.043-.2.126q.007.584,0,1.168c-.006.41-.213.648-.559.655s-.581-.236-.582-.663c-.006-1.081-.006-2.162-.006-3.244a2.083,2.083,0,0,1,1.022-1.712,5.861,5.861,0,0,1,2.746-.993,8.067,8.067,0,0,1,4.535.588,2.608,2.608,0,0,1,1.692,1.867,2.131,2.131,0,0,1,.037.386q0,1.606,0,3.211Zm-4.94-1.729a6.326,6.326,0,0,0,2.1-.293,3.082,3.082,0,0,0,1.4-.785.682.682,0,0,0,.023-1.037,2.346,2.346,0,0,0-.966-.635,7.314,7.314,0,0,0-5.164-.045,2.577,2.577,0,0,0-1.063.662.683.683,0,0,0-.005,1.057,2.488,2.488,0,0,0,.8.543A6.346,6.346,0,0,0-6100.031-1360.551Z" transform="translate(-96.003)"/><path class="a" d="M-6207.789-1258.143c0-.443.021-.888,0-1.329a2.287,2.287,0,0,1,1.1-2.108,6.025,6.025,0,0,1,2.983-.986,8.113,8.113,0,0,1,4.19.589,4.289,4.289,0,0,1,.808.477,2.13,2.13,0,0,1,.975,1.71q.017,1.621,0,3.242a2.276,2.276,0,0,1-1.332,1.974,7.424,7.424,0,0,1-4.226.866,7.289,7.289,0,0,1-2.7-.627,3.4,3.4,0,0,1-1.421-1.1,1.982,1.982,0,0,1-.367-1.154c0-.519,0-1.038,0-1.557Zm4.924-.039a8.013,8.013,0,0,0,1.888-.212,3.508,3.508,0,0,0,1.8-.9.676.676,0,0,0,0-1.056,2.35,2.35,0,0,0-.856-.573,7.306,7.306,0,0,0-5.345-.052,2.353,2.353,0,0,0-1.037.7.645.645,0,0,0,0,.909,2.376,2.376,0,0,0,.772.579A6.681,6.681,0,0,0-6202.865-1258.182Zm-3.735,1.066c-.211.988.414,1.418,1.173,1.757.069.031.14.057.211.083a7.443,7.443,0,0,0,3.736.3,4.654,4.654,0,0,0,1.991-.727,1.153,1.153,0,0,0,.583-1.112c-.025-.268,0-.54,0-.81,0-.345,0-.345-.31-.184a7.566,7.566,0,0,1-3.763.789,7.181,7.181,0,0,1-3.4-.835c-.184-.1-.228-.022-.224.151C-6206.6-1257.505-6206.6-1257.311-6206.6-1257.116Z" transform="translate(0 -95.696)"/></g></svg>