<svg width="37" height="32" viewBox="0 0 37 32" fill="none" xmlns="http://www.w3.org/2000/svg">
<path d="M12.402 32.0003C13.8748 32.0003 15.0687 30.8064 15.0687 29.3337C15.0687 27.8609 13.8748 26.667 12.402 26.667C10.9293 26.667 9.73535 27.8609 9.73535 29.3337C9.73535 30.8064 10.9293 32.0003 12.402 32.0003Z" fill="white"/>
<path d="M31.069 32.0003C32.5418 32.0003 33.7357 30.8064 33.7357 29.3337C33.7357 27.8609 32.5418 26.667 31.069 26.667C29.5963 26.667 28.4023 27.8609 28.4023 29.3337C28.4023 30.8064 29.5963 32.0003 31.069 32.0003Z" fill="white"/>
<path d="M11.7173 20H33.4957L36.6957 4H8.89318L8.18735 0H0.402344V2.66667H5.95068L9.95068 25.3333H33.7357V22.6667H12.1873L11.7173 20Z" fill="white"/>
</svg>
