<svg width="26" height="26" viewBox="0 0 26 26" fill="none" xmlns="http://www.w3.org/2000/svg">
<path d="M12.9492 25.8984C5.87793 25.8984 0 20.0205 0 12.9492C0 5.86523 5.86523 0 12.9365 0C20.0205 0 25.8984 5.86523 25.8984 12.9492C25.8984 20.0205 20.0332 25.8984 12.9492 25.8984ZM6.30957 14.3203H12.9365C13.4316 14.3203 13.8252 13.9395 13.8252 13.4316V4.875C13.8252 4.37988 13.4316 3.99902 12.9365 3.99902C12.4414 3.99902 12.0605 4.37988 12.0605 4.875V12.5557H6.30957C5.80176 12.5557 5.4209 12.9365 5.4209 13.4316C5.4209 13.9395 5.80176 14.3203 6.30957 14.3203Z" fill="white"/>
</svg>
