<svg width="32" height="32" viewBox="0 0 32 32" fill="none" xmlns="http://www.w3.org/2000/svg">
<rect x="8.4707" y="0.786133" width="17.8824" height="5.51619" fill="#7A35FF"/>
<rect x="8.4707" y="6.30273" width="17.8824" height="6.43555" rx="1" fill="white"/>
<path d="M31.0324 13.6918C31.4658 14.0422 31.9183 14.5163 31.981 15.0919C31.9867 15.3131 31.9902 15.5341 31.9921 15.7554C31.9959 15.8694 31.9959 15.8694 31.9999 15.9857C32.0057 16.6667 31.7962 17.1568 31.3179 17.6459C31.121 17.8543 30.9333 18.065 30.7528 18.2878C30.5454 18.5434 30.3349 18.7958 30.1214 19.0463C29.9111 19.2933 29.7029 19.5417 29.4979 19.7932C29.2641 20.0798 29.0258 20.3621 28.786 20.6437C28.6065 20.8549 28.4296 21.068 28.2547 21.283C28.0079 21.5857 27.7542 21.8817 27.499 22.1773C27.2627 22.4516 27.0324 22.7302 26.8037 23.0109C26.638 23.2129 26.4706 23.4133 26.3022 23.6131C26.2742 23.6464 26.2463 23.6797 26.2175 23.7141C26.0419 23.9217 25.858 24.116 25.663 24.3055C25.6271 24.3412 25.5912 24.3769 25.5542 24.4137C24.4799 25.4116 23.0336 25.7683 21.6028 25.7599C21.5129 25.7601 21.4229 25.7603 21.333 25.7606C21.1414 25.7611 20.9498 25.7611 20.7583 25.7606C20.4547 25.7599 20.1511 25.7607 19.8475 25.7617C19.0941 25.7639 18.3407 25.7643 17.5873 25.7641C17.0002 25.764 16.4131 25.7645 15.826 25.7666C15.5248 25.7677 15.2237 25.7676 14.9225 25.7666C14.7347 25.7662 14.5469 25.7669 14.3591 25.7678C14.2727 25.7681 14.1863 25.7679 14.1 25.7672C13.3755 25.7621 12.7817 25.8551 12.2482 26.3722C12.1314 26.4844 12.0081 26.5773 11.8787 26.6744C11.7712 26.7612 11.7712 26.7612 11.6955 26.8573C11.6915 27.0415 11.6915 27.0415 11.7578 27.2307C11.7962 27.805 11.6545 28.255 11.3214 28.7244C11.2204 28.8358 11.1163 28.9444 11.0098 29.0505C10.9797 29.0807 10.9495 29.1109 10.9185 29.142C10.8198 29.2407 10.7207 29.339 10.6216 29.4372C10.5524 29.5062 10.4834 29.5751 10.4143 29.6441C10.27 29.788 10.1254 29.9317 9.98077 30.0753C9.79537 30.2593 9.61039 30.4437 9.42555 30.6282C9.28312 30.7704 9.14053 30.9124 8.99788 31.0543C8.9296 31.1223 8.86135 31.1903 8.79315 31.2583C8.69795 31.3532 8.60254 31.4479 8.50708 31.5425C8.45286 31.5964 8.39864 31.6502 8.34278 31.7058C8.08465 31.948 7.90957 32.009 7.563 31.9985C7.10571 31.8972 6.7828 31.4158 6.47544 31.0842C5.89525 30.4599 5.2932 29.8584 4.68816 29.2583C4.50161 29.0732 4.31535 28.8879 4.12914 28.7025C3.60048 28.1764 3.07144 27.6506 2.54214 27.125C2.24789 26.8328 1.95385 26.5404 1.66006 26.2478C1.47507 26.0636 1.28981 25.8796 1.10433 25.6959C0.962629 25.5553 0.821338 25.4144 0.679985 25.2735C0.628843 25.223 0.577701 25.1725 0.52501 25.1205C0.478446 25.0739 0.431883 25.0274 0.383908 24.9794C0.323136 24.919 0.323135 24.919 0.261135 24.8574C0.101687 24.6745 0.041411 24.5287 0 24.2899C0.0892771 23.6958 0.846467 23.1807 1.25831 22.7758C1.53297 22.5041 1.79744 22.2294 2.04926 21.9366C2.23975 21.7195 2.44263 21.515 2.6462 21.3102C2.68711 21.2681 2.72802 21.226 2.77018 21.1826C3.17267 20.7777 3.65211 20.3427 4.24721 20.31C4.32462 20.3115 4.40202 20.3129 4.48178 20.3144C4.55999 20.3155 4.6382 20.3167 4.71877 20.3178C4.77817 20.3193 4.83758 20.3207 4.89878 20.3222C4.91558 20.2773 4.93237 20.2325 4.94968 20.1863C5.21657 19.5524 5.67526 19.0668 6.14588 18.5795C6.18229 18.5392 6.2187 18.499 6.25622 18.4575C7.49984 17.1187 9.51749 16.4125 11.307 16.3311C12.5221 16.2994 13.8846 16.3422 15.0003 16.8991C15.0977 16.9052 15.1953 16.9074 15.2928 16.9076C15.3545 16.908 15.4162 16.9083 15.4798 16.9087C15.5478 16.9087 15.6157 16.9088 15.6857 16.9089C15.7571 16.9092 15.8285 16.9095 15.9021 16.9098C16.0576 16.9105 16.2131 16.911 16.3686 16.9115C16.615 16.9122 16.8614 16.9134 17.1078 16.9148C17.8086 16.9186 18.5093 16.922 19.2101 16.924C19.597 16.9252 19.9838 16.927 20.3707 16.9295C20.5752 16.9308 20.7797 16.9317 20.9843 16.9319C21.2131 16.9322 21.4418 16.9337 21.6706 16.9354C21.7376 16.9352 21.8045 16.935 21.8735 16.9348C22.4192 16.9408 22.9114 17.0383 23.3793 17.3308C23.4286 17.3609 23.478 17.391 23.5288 17.422C23.6743 17.5262 23.7942 17.6407 23.9171 17.7704C24.1889 17.6479 24.3557 17.4554 24.5523 17.2375C25.0568 16.6884 25.5847 16.1643 26.1154 15.6408C26.4209 15.3386 26.7207 15.0351 27.0004 14.7086C28.0271 13.5165 29.552 12.6075 31.0324 13.6918ZM28.0075 15.5703C27.5907 16.0596 27.1244 16.5021 26.6674 16.9534C26.552 17.0674 26.4368 17.1816 26.3217 17.2958C26.2848 17.3324 26.248 17.3689 26.2101 17.4066C25.9871 17.6294 25.7768 17.8588 25.5731 18.0994C25.4667 18.2162 25.3533 18.317 25.2331 18.4195C24.6754 18.8948 24.6754 18.8948 24.4503 19.5671C24.4433 19.7099 24.4384 19.8526 24.434 19.9954C24.4158 20.4852 24.1604 20.9001 23.8314 21.2519C23.2634 21.7617 22.644 21.9692 21.8848 21.9665C21.8286 21.9671 21.7724 21.9676 21.7146 21.9681C21.5312 21.9696 21.3479 21.9696 21.1645 21.9696C21.0361 21.97 20.9077 21.9705 20.7793 21.971C20.5113 21.9718 20.2434 21.9719 19.9754 21.9716C19.6321 21.9712 19.2888 21.9731 18.9455 21.9756C18.6809 21.9772 18.4162 21.9774 18.1516 21.9772C18.025 21.9773 17.8984 21.9779 17.7718 21.979C17.595 21.9804 17.4184 21.9798 17.2417 21.9787C17.1896 21.9795 17.1375 21.9803 17.0838 21.9812C16.8151 21.9773 16.7145 21.9648 16.497 21.7916C16.3622 21.6162 16.3098 21.5383 16.3098 21.318C16.4354 20.9285 16.4354 20.9285 16.5955 20.8082C16.8201 20.7332 17.0419 20.7408 17.2761 20.742C17.3561 20.7416 17.3561 20.7416 17.4378 20.7413C17.5536 20.7409 17.6694 20.7407 17.7851 20.7408C17.9687 20.7408 18.1522 20.74 18.3357 20.739C18.8574 20.7361 19.3791 20.7346 19.9009 20.7342C20.2202 20.7338 20.5394 20.7323 20.8587 20.7301C20.9801 20.7295 21.1016 20.7293 21.223 20.7297C21.3933 20.7301 21.5635 20.729 21.7338 20.7276C21.7835 20.7281 21.8332 20.7286 21.8844 20.7292C22.2697 20.7235 22.6017 20.6243 22.8902 20.3588C23.1687 20.0432 23.2617 19.7604 23.2507 19.3475C23.2059 19.0125 23.0509 18.7476 22.7986 18.525C22.5262 18.3364 22.3113 18.2526 21.9795 18.2535C21.9172 18.2533 21.8549 18.2532 21.7907 18.253C21.7231 18.2535 21.6554 18.2539 21.5857 18.2544C21.4779 18.2544 21.4779 18.2544 21.368 18.2543C21.212 18.2543 21.0559 18.2546 20.8999 18.255C20.652 18.2557 20.4042 18.2554 20.1563 18.2547C19.4516 18.2529 18.7468 18.2521 18.042 18.254C17.6525 18.255 17.2631 18.2547 16.8737 18.2529C16.6682 18.252 16.4628 18.252 16.2573 18.2533C15.4105 18.2583 14.6516 18.2462 13.8597 17.9241C12.3533 17.3282 10.4127 17.583 8.95186 18.2061C8.32859 18.4965 7.77703 18.8631 7.26827 19.3264C7.2198 19.3697 7.17133 19.413 7.1214 19.4577C6.65708 19.8948 6.25883 20.4138 6.02117 21.0068C7.60561 22.5883 9.19006 24.1698 10.8225 25.7992C10.9666 25.676 11.1106 25.5527 11.259 25.4258C11.9575 24.8441 12.6607 24.4851 13.5834 24.484C13.6608 24.4838 13.7381 24.4835 13.8178 24.4833C13.9027 24.4833 13.9876 24.4833 14.0725 24.4834C14.1626 24.4832 14.2527 24.4829 14.3427 24.4827C14.5364 24.4822 14.73 24.4819 14.9236 24.4817C15.2306 24.4813 15.5376 24.4803 15.8446 24.4791C15.95 24.4787 16.0554 24.4783 16.1608 24.4779C16.2399 24.4776 16.2399 24.4776 16.3206 24.4773C17.0349 24.4747 17.7492 24.4727 18.4634 24.4719C18.9458 24.4714 19.4282 24.47 19.9106 24.4676C20.1653 24.4664 20.4201 24.4656 20.6748 24.4659C20.915 24.4662 21.1552 24.4653 21.3954 24.4636C21.4828 24.4632 21.5702 24.4631 21.6576 24.4636C22.9307 24.4696 24.0223 24.0535 24.946 23.1696C25.17 22.9388 25.3706 22.6899 25.5724 22.4398C25.735 22.2398 25.9011 22.0431 26.0683 21.847C26.2775 21.6014 26.4844 21.3543 26.688 21.1041C26.9347 20.8014 27.1885 20.5054 27.4437 20.2098C27.6803 19.935 27.9111 19.656 28.14 19.3747C28.3284 19.1454 28.5208 18.9196 28.7132 18.6936C28.8928 18.4824 29.0696 18.2694 29.2446 18.0544C29.4634 17.7857 29.6881 17.5228 29.9149 17.2608C30.5736 16.5572 30.5736 16.5572 30.7684 15.6543C30.7183 15.2713 30.5628 15.0636 30.2851 14.7985C29.3592 14.1331 28.609 14.8632 28.0075 15.5703ZM3.65362 22.201C3.56749 22.2881 3.56749 22.2881 3.47961 22.3768C3.32759 22.5305 3.17712 22.6855 3.02694 22.841C2.87318 22.9996 2.71798 23.1567 2.56289 23.314C2.25928 23.6224 1.9573 23.9323 1.65631 24.2432C1.74646 24.449 1.85871 24.5857 2.01686 24.7446C2.06599 24.7943 2.11512 24.844 2.16574 24.8951C2.24669 24.976 2.24669 24.976 2.32928 25.0585C2.38606 25.1157 2.44285 25.1729 2.50136 25.2318C2.65694 25.3885 2.81293 25.5447 2.96903 25.7009C3.06651 25.7984 3.16391 25.896 3.26127 25.9936C3.60084 26.3341 3.94076 26.6742 4.28098 27.014C4.59838 27.331 4.91495 27.6488 5.23115 27.9671C5.50258 28.2401 5.77461 28.5126 6.0471 28.7846C6.20989 28.9472 6.37241 29.11 6.53434 29.2733C6.71471 29.4553 6.89629 29.636 7.07801 29.8166C7.13172 29.8711 7.18544 29.9257 7.24078 29.9819C7.29027 30.0306 7.33975 30.0794 7.39073 30.1297C7.43356 30.1726 7.47639 30.2154 7.52052 30.2596C7.63624 30.3573 7.63624 30.3573 7.77508 30.331C7.93122 30.2633 8.02674 30.1709 8.14811 30.0517C8.19783 30.0033 8.24754 29.9548 8.29876 29.9049C8.35184 29.8522 8.40491 29.7994 8.4596 29.745C8.51446 29.6909 8.56932 29.6368 8.62584 29.581C8.74176 29.4662 8.85742 29.3512 8.97285 29.236C9.09106 29.118 9.2099 29.0007 9.32939 28.8839C9.50158 28.7155 9.67248 28.5458 9.8431 28.3758C9.89655 28.3238 9.95001 28.2718 10.0051 28.2182C10.2204 28.0007 10.3668 27.8496 10.4628 27.5559C10.4394 27.2298 10.2617 27.0288 10.0361 26.8038C9.99088 26.7584 9.94568 26.713 9.89912 26.6663C9.84984 26.6174 9.80056 26.5686 9.7498 26.5183C9.69767 26.4661 9.64553 26.414 9.59182 26.3603C9.44931 26.2178 9.30653 26.0757 9.1636 25.9336C9.01399 25.7849 8.86471 25.6357 8.71539 25.4867C8.46478 25.2366 8.21393 24.9868 7.96293 24.7371C7.6726 24.4483 7.38259 24.1591 7.09276 23.8698C6.81388 23.5914 6.53482 23.3132 6.25566 23.035C6.13685 22.9167 6.01809 22.7982 5.89936 22.6798C5.73381 22.5147 5.56805 22.3498 5.40223 22.1849C5.35283 22.1356 5.30343 22.0862 5.25253 22.0354C5.20751 21.9907 5.16248 21.9461 5.1161 21.9C5.05732 21.8415 5.05732 21.8415 4.99735 21.7818C4.82433 21.6232 4.65527 21.5879 4.42038 21.5919C4.09562 21.6753 3.8779 21.9666 3.65362 22.201Z" fill="white"/>
<path d="M9.97275 0.0160715C10.0379 0.0157895 10.103 0.0155075 10.1701 0.015217C10.3882 0.0144291 10.6063 0.0145309 10.8244 0.0146337C10.9809 0.0142612 11.1373 0.0138377 11.2937 0.0133668C11.6744 0.0123809 12.0552 0.0119908 12.436 0.0119213C12.7455 0.0118621 13.0551 0.0116061 13.3647 0.0112117C14.243 0.0101158 15.1213 0.00954128 15.9996 0.00963467C16.0469 0.00963965 16.0943 0.00964462 16.143 0.00964974C16.2141 0.00965738 16.2141 0.00965738 16.2866 0.00966516C17.0543 0.00971575 17.8221 0.0085247 18.5898 0.00676954C19.3786 0.00498039 20.1675 0.00412194 20.9563 0.00422942C21.399 0.0042707 21.8416 0.00393053 22.2843 0.00258905C22.7006 0.00133533 23.117 0.00137414 23.5333 0.00227993C23.686 0.00241011 23.8387 0.002116 23.9914 0.00136372C24.2001 0.000402277 24.4088 0.000981167 24.6175 0.00194018C24.7078 0.000979789 24.7078 0.000979789 24.7999 0C25.3728 0.00580436 25.8173 0.201272 26.2367 0.588975C26.6133 1.02137 26.7299 1.50244 26.7314 2.06221C26.7316 2.12295 26.7316 2.12295 26.7319 2.18491C26.7325 2.32011 26.7326 2.45531 26.7327 2.59051C26.7329 2.68765 26.7333 2.7848 26.7336 2.88194C26.7344 3.14557 26.7348 3.4092 26.7351 3.67283C26.7353 3.83772 26.7355 4.00261 26.7358 4.16749C26.7367 4.68391 26.7373 5.20033 26.7375 5.71675C26.7378 6.31189 26.7389 6.90702 26.7407 7.50216C26.742 7.96282 26.7427 8.42348 26.7427 8.88414C26.7428 9.15897 26.7432 9.43379 26.7443 9.70861C26.7453 9.96736 26.7455 10.2261 26.7449 10.4849C26.7449 10.5794 26.7451 10.674 26.7457 10.7686C26.7503 11.5056 26.707 12.152 26.1833 12.7156C25.6866 13.1942 25.1055 13.3276 24.4317 13.3212C24.3679 13.3216 24.3042 13.322 24.2385 13.3224C24.0268 13.3233 23.8151 13.3226 23.6034 13.3218C23.4508 13.3221 23.2983 13.3226 23.1457 13.3231C22.7755 13.3241 22.4053 13.324 22.035 13.3233C21.734 13.3227 21.4329 13.3226 21.1318 13.3229C21.0888 13.3229 21.0458 13.323 21.0016 13.323C20.9143 13.3231 20.8269 13.3232 20.7396 13.3232C19.9222 13.324 19.1049 13.3231 18.2875 13.3218C17.5873 13.3207 16.8871 13.3209 16.1869 13.322C15.3723 13.3234 14.5577 13.3239 13.7431 13.3231C13.6561 13.323 13.5692 13.323 13.4822 13.3229C13.4394 13.3228 13.3966 13.3228 13.3525 13.3228C13.052 13.3226 12.7516 13.3229 12.4511 13.3235C12.0462 13.3243 11.6412 13.3237 11.2363 13.3223C11.088 13.322 10.9396 13.322 10.7913 13.3226C10.5883 13.3233 10.3853 13.3224 10.1823 13.3212C10.1241 13.3217 10.0659 13.3223 10.0059 13.3229C9.40538 13.3158 8.87307 13.1439 8.43501 12.7246C8.04393 12.2881 7.87614 11.8322 7.8751 11.2427C7.87486 11.2019 7.87462 11.161 7.87438 11.119C7.87374 10.9833 7.87398 10.8476 7.87423 10.7119C7.87396 10.6142 7.87363 10.5164 7.87326 10.4186C7.87243 10.1538 7.87239 9.88905 7.87255 9.62427C7.87262 9.4028 7.87231 9.18133 7.87201 8.95986C7.87132 8.43707 7.87129 7.91428 7.87167 7.39149C7.87205 6.85323 7.87128 6.31497 7.86995 5.77671C7.86885 5.31367 7.86848 4.85063 7.86868 4.38759C7.8688 4.11144 7.86863 3.8353 7.86777 3.55916C7.86698 3.29928 7.86711 3.03942 7.86792 2.77954C7.86806 2.68456 7.8679 2.58957 7.86738 2.49459C7.86359 1.74339 7.91158 1.09607 8.45255 0.530626C8.92823 0.104168 9.34558 0.0140778 9.97275 0.0160715ZM9.26317 1.65092C9.1327 1.91137 9.20081 2.23108 9.20081 2.52227C14.5509 2.52227 19.901 2.52227 25.4132 2.52227C25.448 1.9236 25.448 1.9236 25.2261 1.46421C25.0333 1.33594 24.9932 1.32411 24.7754 1.32354C24.7213 1.3231 24.6673 1.32266 24.6116 1.32221C24.5225 1.32244 24.5225 1.32244 24.4315 1.32267C24.3369 1.32218 24.3369 1.32218 24.2404 1.32168C24.028 1.32074 23.8156 1.3207 23.6032 1.32066C23.4513 1.32019 23.2994 1.31966 23.1476 1.31909C22.7343 1.31772 22.321 1.31718 21.9077 1.31686C21.6497 1.31666 21.3917 1.31625 21.1337 1.3158C20.4194 1.31458 19.7052 1.31356 18.991 1.31338C18.9453 1.31337 18.8996 1.31336 18.8525 1.31335C18.7598 1.31332 18.6671 1.3133 18.5745 1.31328C18.5285 1.31327 18.4825 1.31326 18.4351 1.31324C18.366 1.31323 18.366 1.31323 18.2955 1.31321C17.5489 1.31299 16.8024 1.31131 16.0559 1.30898C15.2896 1.30661 14.5233 1.30541 13.757 1.30539C13.3267 1.30535 12.8964 1.30482 12.4661 1.30302C12.0614 1.30134 11.6568 1.30125 11.2522 1.30225C11.1035 1.30237 10.9548 1.30195 10.8061 1.30096C10.6035 1.29969 10.4009 1.30034 10.1983 1.30147C10.1391 1.30065 10.08 1.29983 10.0191 1.29898C9.65916 1.30359 9.49089 1.34752 9.26317 1.65092ZM9.20081 3.82928C9.20081 4.21952 9.20081 4.60975 9.20081 5.01182C14.5509 5.01182 19.901 5.01182 25.4132 5.01182C25.4132 4.62158 25.4132 4.23134 25.4132 3.82928C20.0631 3.82928 14.713 3.82928 9.20081 3.82928ZM9.20081 6.31883C8.82355 9.1875 8.82355 9.1875 9.38788 11.7958C9.6667 12.036 9.96299 12.0088 10.3127 12.0063C10.4059 12.0067 10.4059 12.0067 10.5011 12.0071C10.7096 12.0079 10.9182 12.0073 11.1268 12.0067C11.2762 12.007 11.4256 12.0073 11.5751 12.0077C11.939 12.0085 12.3028 12.0084 12.6667 12.0078C12.9625 12.0074 13.2582 12.0073 13.554 12.0075C13.6171 12.0076 13.6171 12.0076 13.6815 12.0076C13.767 12.0077 13.8525 12.0078 13.9381 12.0078C14.7399 12.0083 15.5417 12.0077 16.3436 12.0067C17.0315 12.0059 17.7195 12.006 18.4075 12.0069C19.2065 12.0079 20.0054 12.0083 20.8044 12.0077C20.8896 12.0077 20.9748 12.0076 21.06 12.0075C21.1019 12.0075 21.1438 12.0075 21.187 12.0075C21.4824 12.0073 21.7778 12.0076 22.0732 12.008C22.4708 12.0085 22.8683 12.0082 23.2659 12.0071C23.412 12.0068 23.558 12.0069 23.7041 12.0073C23.9032 12.0078 24.1022 12.0072 24.3013 12.0063C24.3594 12.0067 24.4175 12.0071 24.4773 12.0075C24.7755 12.0048 24.9904 11.9988 25.2261 11.7958C26.1677 10.2294 25.4132 8.14556 25.4132 6.31883C20.0631 6.31883 14.713 6.31883 9.20081 6.31883Z" fill="white"/>
<path d="M21.0827 9.4809C21.1414 9.4799 21.2001 9.4789 21.2606 9.47787C21.5295 9.47511 21.7984 9.47255 22.0674 9.47112C22.2091 9.47009 22.3509 9.46839 22.4927 9.46601C22.6971 9.4626 22.9015 9.46124 23.1059 9.46033C23.1691 9.45892 23.2322 9.45751 23.2973 9.45605C23.5802 9.4569 23.7903 9.4583 24.0186 9.63717C24.2045 9.8464 24.2342 9.9615 24.2293 10.2398C24.1563 10.4501 24.0907 10.5729 23.9193 10.7156C23.6427 10.8391 23.3856 10.8278 23.0857 10.8269C22.9922 10.8274 22.9922 10.8274 22.8968 10.8279C22.7652 10.8283 22.6336 10.8282 22.502 10.8277C22.3011 10.8272 22.1003 10.8289 21.8994 10.8309C21.7713 10.831 21.6432 10.831 21.5151 10.8308C21.4254 10.8318 21.4254 10.8318 21.3338 10.8329C20.9711 10.8292 20.7648 10.7912 20.488 10.551C20.3802 10.3358 20.3951 10.1016 20.4256 9.86634C20.6121 9.56857 20.7403 9.4862 21.0827 9.4809Z" fill="#7A35FF"/>
<path d="M14.6263 20.6333C14.8452 20.7948 14.9243 20.897 15.0005 21.1584C15.0005 21.4132 14.9518 21.5414 14.8134 21.7536C14.5628 21.9203 14.3597 21.9214 14.0651 21.8781C13.8862 21.7664 13.7851 21.6924 13.691 21.5046C13.6648 21.3142 13.6611 21.1346 13.691 20.9445C13.9666 20.5876 14.1932 20.5289 14.6263 20.6333Z" fill="white"/>
<path d="M18.8038 9.49272C19.0329 9.61704 19.1014 9.71058 19.2091 9.94784C19.248 10.2342 19.2006 10.3662 19.0532 10.613C18.8842 10.7543 18.7756 10.7946 18.5582 10.827C18.3072 10.7912 18.1828 10.7186 17.9931 10.5508C17.8675 10.2849 17.8536 10.1646 17.9386 9.88171C18.1528 9.51101 18.3744 9.41774 18.8038 9.49272Z" fill="#7A35FF"/>
</svg>
