<svg width="28" height="25" viewBox="0 0 28 25" fill="none" xmlns="http://www.w3.org/2000/svg">
<path d="M14.203 3.86602C14.1199 3.78654 14.0094 3.74219 13.8944 3.74219C13.7794 3.74219 13.6689 3.78654 13.5858 3.86602L3.31236 13.6802C3.26873 13.7219 3.23402 13.7721 3.21033 13.8276C3.18664 13.8832 3.17446 13.9429 3.17453 14.0033L3.17285 23.2143C3.17285 23.6879 3.36099 24.1421 3.69588 24.4769C4.03076 24.8118 4.48497 25 4.95857 25H10.3213C10.5581 25 10.7852 24.9059 10.9526 24.7385C11.1201 24.571 11.2142 24.3439 11.2142 24.1071V16.5178C11.2142 16.3994 11.2612 16.2859 11.3449 16.2021C11.4286 16.1184 11.5422 16.0714 11.6606 16.0714H16.1249C16.2433 16.0714 16.3568 16.1184 16.4405 16.2021C16.5243 16.2859 16.5713 16.3994 16.5713 16.5178V24.1071C16.5713 24.3439 16.6654 24.571 16.8328 24.7385C17.0003 24.9059 17.2274 25 17.4642 25H22.8247C23.2983 25 23.7525 24.8118 24.0873 24.4769C24.4222 24.1421 24.6104 23.6879 24.6104 23.2143V14.0033C24.6104 13.9429 24.5983 13.8832 24.5746 13.8276C24.5509 13.7721 24.5162 13.7219 24.4725 13.6802L14.203 3.86602Z" fill="white"/>
<path d="M27.0017 11.8387L22.8276 7.84543V1.78572C22.8276 1.54892 22.7335 1.32181 22.5661 1.15437C22.3987 0.986926 22.1715 0.892858 21.9347 0.892858H19.2562C19.0194 0.892858 18.7923 0.986926 18.6248 1.15437C18.4574 1.32181 18.3633 1.54892 18.3633 1.78572V3.57143L15.1312 0.481027C14.8287 0.175223 14.3789 0 13.8929 0C13.4085 0 12.9599 0.175223 12.6574 0.481585L0.787968 11.8376C0.440869 12.1724 0.397342 12.7232 0.713191 13.0859C0.792505 13.1775 0.88962 13.252 0.998626 13.3048C1.10763 13.3576 1.22625 13.3877 1.34725 13.3933C1.46826 13.3988 1.58913 13.3796 1.7025 13.337C1.81587 13.2943 1.91938 13.229 2.00672 13.1451L13.586 2.08036C13.6691 2.00088 13.7796 1.95653 13.8946 1.95653C14.0095 1.95653 14.1201 2.00088 14.2032 2.08036L25.7835 13.1451C25.9541 13.3087 26.1826 13.398 26.4189 13.3934C26.6552 13.3888 26.88 13.2907 27.0441 13.1205C27.3868 12.7656 27.3583 12.1797 27.0017 11.8387Z" fill="white"/>
</svg>
