<svg width="23" height="24" viewBox="0 0 23 24" fill="none" xmlns="http://www.w3.org/2000/svg">
<path d="M3.92287 23.2822C1.31179 23.2822 0 21.9954 0 19.4093V4.15512C0 1.56903 1.31179 0.282227 3.92287 0.282227H19.0771C21.7007 0.282227 23 1.58152 23 4.15512V19.4093C23 21.9829 21.7007 23.2822 19.0771 23.2822H3.92287ZM11.5062 19.122C11.8561 19.122 12.1309 18.8721 12.1309 18.5098V17.6103C14.1173 17.4229 15.6665 16.261 15.6665 14.3121C15.6665 12.5631 14.5296 11.5011 12.2933 11.1013L12.1309 11.0639V7.47832C13.0429 7.64073 13.6801 8.19043 13.9424 9.05246C14.0674 9.43975 14.3172 9.68961 14.7295 9.68961C15.1668 9.68961 15.4916 9.37728 15.4916 8.92753C15.4916 8.8026 15.4541 8.66517 15.4291 8.52775C15.0918 7.141 13.78 6.17902 12.1309 5.99162V5.10461C12.1309 4.7423 11.8561 4.49244 11.5062 4.49244C11.1564 4.49244 10.8941 4.7423 10.8941 5.10461V5.99162C8.94514 6.20401 7.55839 7.42834 7.55839 9.18989C7.55839 10.8265 8.65779 11.801 10.8066 12.3132L10.8941 12.3382V16.1361C9.7447 15.9737 9.07007 15.3241 8.85769 14.4745C8.72026 14.0248 8.44541 13.8249 8.05812 13.8249C7.62086 13.8249 7.30853 14.1372 7.30853 14.587C7.30853 14.7244 7.33351 14.8618 7.37099 14.9867C7.7333 16.4734 9.17002 17.4229 10.8941 17.5853V18.5098C10.8941 18.8721 11.1564 19.122 11.5062 19.122ZM10.8941 10.739L10.8066 10.7141C9.66974 10.3767 9.15752 9.86452 9.15752 9.10243C9.15752 8.32785 9.80717 7.66571 10.8941 7.47832V10.739ZM12.1309 12.638L12.3933 12.713C13.6426 13.0503 14.0798 13.5875 14.0798 14.3996C14.0798 15.2991 13.4427 15.9862 12.1309 16.1361V12.638Z" fill="#9b66ff"/>
</svg>
