<svg width="24" height="24" viewBox="0 0 24 24" fill="none" xmlns="http://www.w3.org/2000/svg">
<path d="M0.857143 7.71614V7.75149C0.855877 7.97234 0.776129 8.18555 0.632143 8.35303V8.3557C0.342857 8.69745 0 9.30916 0 10.2873C0 11.1738 0.283929 11.7994 0.625714 12.2108C0.775671 12.3933 0.857488 12.6222 0.857143 12.8584C0.857143 13.313 1.03775 13.749 1.35925 14.0704C1.68074 14.3919 2.11677 14.5725 2.57143 14.5725H3C3.11366 14.5725 3.22267 14.5273 3.30305 14.447C3.38342 14.3666 3.42857 14.2576 3.42857 14.144V6.43057C3.42857 6.31692 3.38342 6.20793 3.30305 6.12756C3.22267 6.0472 3.11366 6.00205 3 6.00205H2.57143C2.11677 6.00205 1.68074 6.18264 1.35925 6.5041C1.03775 6.82555 0.857143 7.26153 0.857143 7.71614ZM22.5096 8.28125L22.4598 8.27214C22.4108 8.26279 22.3666 8.23665 22.3349 8.19823C22.3031 8.1598 22.2857 8.11149 22.2857 8.06163V1.60971C22.2857 0.932647 21.8363 0.324147 21.1666 0.0927458C20.528 -0.127407 19.8627 0.0520363 19.4695 0.549656C18.6329 1.54845 17.7134 2.47468 16.7207 3.31844C15.4548 4.38974 14.2436 5.15304 13.1314 5.58478C13.0503 5.6157 12.9805 5.67051 12.9313 5.74195C12.882 5.8134 12.8556 5.89813 12.8555 5.98491V14.3046C12.8557 14.4722 12.9049 14.636 12.9972 14.7759C13.0894 14.9157 13.2207 15.0254 13.3746 15.0915C14.4107 15.5356 15.5304 16.2608 16.6961 17.2491C17.6963 18.1005 18.6224 19.0352 19.4646 20.0431C19.5996 20.2123 19.7718 20.3481 19.9679 20.4398C20.164 20.5315 20.3786 20.5767 20.595 20.5718C20.7852 20.5709 20.9741 20.5395 21.1543 20.4786C21.8416 20.2504 22.2857 19.6638 22.2857 18.9862V12.5118C22.2858 12.4613 22.3037 12.4123 22.3363 12.3737C22.369 12.3351 22.4142 12.3092 22.4641 12.3008L22.5096 12.2933C23.025 12.1535 24 11.5551 24 10.2873C24 9.01938 23.025 8.42105 22.5096 8.28125ZM11.1429 15.4295V6.43057C11.1429 6.31692 11.0977 6.20793 11.0173 6.12756C10.937 6.0472 10.828 6.00205 10.7143 6.00205H5.57143C5.45776 6.00205 5.34876 6.0472 5.26838 6.12756C5.18801 6.20793 5.14286 6.31692 5.14286 6.43057V22.7144C5.14286 23.0553 5.27832 23.3823 5.51943 23.6234C5.76055 23.8645 6.08758 23.9999 6.42857 23.9999H9.23839C9.50548 24.0022 9.76954 23.9432 10.0103 23.8276C10.2511 23.712 10.4622 23.5429 10.6275 23.3331C10.797 23.1159 10.9109 22.8607 10.9596 22.5895C11.0082 22.3184 10.99 22.0395 10.9066 21.777C10.8198 21.4995 10.7121 21.1878 10.5975 20.8562C10.1738 19.6296 9.615 18.8705 9.46607 17.1431C9.91411 17.1333 10.3405 16.9484 10.6539 16.6281C10.9673 16.3079 11.1428 15.8776 11.1429 15.4295Z" fill="white"/>
</svg>
