<svg xmlns="http://www.w3.org/2000/svg" width="16.838" height="13.846" viewBox="0 0 16.838 13.846"><defs><style>.a{fill:#fff;}</style></defs><g transform="translate(-2440.301 -567.986)"><path class="a" d="M2455.864,573.63c-.38-.431-.717-.815-1.057-1.2-1.041-1.165-2.086-2.326-3.12-3.5a.6.6,0,0,0-.528-.169c-.985,0-1.969.009-2.954,0-.322,0-.489-.166-.479-.4s.2-.373.512-.374c1.11,0,2.22,0,3.331-.006a.7.7,0,0,1,.553.281q1.746,1.955,3.5,3.905c.432.482.86.968,1.3,1.447.151.167.3.334.189.572s-.331.243-.554.243c-1.861,0-3.721-.006-5.582,0a.79.79,0,0,1-.631-.318c-1.45-1.626-2.909-3.245-4.351-4.878-.2-.223-.3-.221-.488,0q-2.186,2.471-4.392,4.924a.687.687,0,0,1-.343.251.346.346,0,0,1-.379-.147.367.367,0,0,1,.021-.483c.224-.268.458-.528.69-.789q2.032-2.278,4.064-4.555c.522-.586.614-.594,1.143-.005q2.246,2.5,4.481,5.01a.518.518,0,0,0,.416.214c1.48-.006,2.961,0,4.441,0C2455.688,573.655,2455.737,573.644,2455.864,573.63Z"/><path class="a" d="M2477.777,778.863q-1.789,0-3.578,0c-.527,0-.662-.134-.663-.654q0-2.668,0-5.336a1.04,1.04,0,0,1,.03-.274.361.361,0,0,1,.38-.3.366.366,0,0,1,.369.311,2.745,2.745,0,0,1,.033.645q0,2.19,0,4.38c0,.4.012.411.419.413q.355,0,.709,0c.462,0,.464,0,.466-.453,0-.7-.006-1.4,0-2.1a1.853,1.853,0,0,1,1.4-1.842,1.818,1.818,0,0,1,2.26,1.692c.013.781.016,1.563,0,2.344-.007.3.1.377.377.361a7.368,7.368,0,0,1,.894,0c.283.018.372-.086.37-.37-.011-1.573-.006-3.146,0-4.719a1.731,1.731,0,0,1,.014-.338.36.36,0,0,1,.386-.325.354.354,0,0,1,.368.342,1.8,1.8,0,0,1,.008.246q0,2.683,0,5.367c0,.48-.118.6-.6.6C2480.2,778.865,2478.99,778.863,2477.777,778.863Zm1.056-2.259h0c0-.421.015-.843,0-1.263a1.052,1.052,0,0,0-1.053-.967,1.02,1.02,0,0,0-1.012.964c-.019.811-.006,1.622-.011,2.433,0,.2.081.279.276.278.513,0,1.027,0,1.54,0,.2,0,.274-.083.27-.278C2478.828,777.384,2478.833,776.994,2478.833,776.6Z" transform="translate(-32.048 -197.034)"/><path class="a" d="M2741.591,775.6c0,.874,0,1.748,0,2.622,0,.516-.145.661-.662.662q-1.8,0-3.609,0a1.434,1.434,0,0,1-.275-.024.374.374,0,0,1-.345-.4.352.352,0,0,1,.354-.36c.369-.023.739-.024,1.109-.026.74,0,1.481-.014,2.221.006.318.009.4-.109.4-.412-.012-1.532-.006-3.064-.006-4.6a1.57,1.57,0,0,1,.039-.459.368.368,0,0,1,.388-.287.348.348,0,0,1,.351.291,1.4,1.4,0,0,1,.032.336c0,.884,0,1.769,0,2.653Z" transform="translate(-285.835 -197.055)"/></g></svg>