<svg width="29" height="29" viewBox="0 0 29 29" fill="none" xmlns="http://www.w3.org/2000/svg">
<path d="M14.5 0C6.50478 0 0 6.50478 0 14.5C0 22.4952 6.50478 29 14.5 29C22.4952 29 29 22.4952 29 14.5C29 6.50478 22.4952 0 14.5 0ZM10.9991 8.1437C11.8823 7.20748 13.1253 6.69231 14.5 6.69231C15.8747 6.69231 17.1065 7.21096 17.9932 8.15207C18.8918 9.10572 19.3289 10.387 19.2257 11.7645C19.0194 14.5 16.9002 16.7308 14.5 16.7308C12.0998 16.7308 9.97642 14.5 9.77425 11.7638C9.67178 10.3752 10.1082 9.08969 10.9991 8.1437ZM14.5 26.7692C12.8621 26.7703 11.2407 26.4425 9.73184 25.8052C8.22301 25.1679 6.85753 24.2341 5.71635 23.0592C6.36993 22.1271 7.2027 21.3346 8.16601 20.728C9.94296 19.5889 12.1919 18.9615 14.5 18.9615C16.8081 18.9615 19.057 19.5889 20.8319 20.728C21.796 21.3344 22.6295 22.1269 23.2837 23.0592C22.1426 24.2342 20.7771 25.1681 19.2683 25.8054C17.7594 26.4427 16.1379 26.7705 14.5 26.7692Z" fill="#9b66ff"/>
</svg>
