<svg xmlns="http://www.w3.org/2000/svg" width="24" height="27.422" viewBox="0 0 24 27.422"><defs><style>.a{fill:#fff;}</style></defs><path class="a" d="M-1041.931-622.912a8.754,8.754,0,0,0-3.044-1.982,9.811,9.811,0,0,0-13.361,6.864,11.855,11.855,0,0,0-.159,1.694,1.114,1.114,0,0,1-1.434,1.119.984.984,0,0,1-.843-1.075,10.509,10.509,0,0,1,1.75-6,11.72,11.72,0,0,1,8.834-5.416,12.173,12.173,0,0,1,9.175,2.565c.048.038.094.079.146.112.1.064.181.208.314.155s.1-.2.115-.321c.12-.933.232-1.868.365-2.8a1.2,1.2,0,0,1,1.276-1.055,1.192,1.192,0,0,1,1,1.318c-.211,1.84-.446,3.677-.669,5.516-.031.252-.043.506-.078.758a1.157,1.157,0,0,1-1.236,1.043c-1.017,0-2.016-.2-3.024-.292-1.225-.117-2.447-.271-3.667-.429a1.118,1.118,0,0,1-.993-1.291,1.222,1.222,0,0,1,1.294-.879C-1044.8-623.185-1043.44-623.054-1041.931-622.912Z" transform="translate(1060.773 629.06)"/><path class="a" d="M-1040.984-488.683c.111.747.222,1.479.327,2.212.053.369.122.739.139,1.11a1.121,1.121,0,0,1-1,1.243,1.217,1.217,0,0,1-1.279-1.069q-.428-3.038-.843-6.079a1.2,1.2,0,0,1,1.1-1.408q3.177-.409,6.356-.8a1.227,1.227,0,0,1,1.473.925,1.2,1.2,0,0,1-1.164,1.264c-1.141.169-2.28.349-3.42.527-.1.016-.255-.029-.294.086-.055.164.125.221.225.3a9.488,9.488,0,0,0,4.607,1.97,9.791,9.791,0,0,0,8.549-2.713,8.729,8.729,0,0,0,2.722-6.121,3.707,3.707,0,0,1,.05-.534,1.04,1.04,0,0,1,1.254-.921.987.987,0,0,1,.986,1.091,11.081,11.081,0,0,1-5.876,9.892,12.393,12.393,0,0,1-13.433-.723C-1040.635-488.531-1040.74-488.678-1040.984-488.683Z" transform="translate(1045.195 511.536)"/></svg>