<svg xmlns="http://www.w3.org/2000/svg" width="24.506" height="24.067" viewBox="0 0 24.506 24.067"><defs><style>.a{fill:#fff;}</style></defs><g transform="translate(598.641 833.009)"><path class="a" d="M-586.377-757.2a10.845,10.845,0,0,0,9.84-6.2,9.949,9.949,0,0,0,1.041-3.974,10.777,10.777,0,0,0-3.083-8.394c-.281-.3-.35-.559-.212-.827a.677.677,0,0,1,.7-.357.752.752,0,0,1,.442.266,11.913,11.913,0,0,1,2.835,4.606,11.935,11.935,0,0,1-1.381,10.689,11.731,11.731,0,0,1-8.482,5.369,11.847,11.847,0,0,1-9.786-2.9,11.744,11.744,0,0,1-4.085-7.709,12.008,12.008,0,0,1,2.929-9.577c.165-.193.336-.383.518-.561a.627.627,0,0,1,.919-.056.628.628,0,0,1,.014.959,11.39,11.39,0,0,0-1.665,2.168,10.761,10.761,0,0,0-1.493,5.632,10.673,10.673,0,0,0,3.593,8.057,10.6,10.6,0,0,0,6.075,2.729C-587.231-757.229-586.811-757.237-586.377-757.2Z" transform="translate(0 -53.053)"/><path class="a" d="M-434.4-830.773c0,.12,0,.215,0,.311q0,3,0,6.006a.7.7,0,0,1-.27.624.633.633,0,0,1-1-.449,2.519,2.519,0,0,1-.006-.289q0-2.924,0-5.848c0-.111,0-.223,0-.339-.146,0-.192.1-.256.163-.592.587-1.181,1.179-1.771,1.768a.6.6,0,0,1-.942.059.6.6,0,0,1,.057-.926q1.516-1.52,3.035-3.037a.607.607,0,0,1,1.016-.008q1.52,1.516,3.036,3.036a.6.6,0,0,1,.055.943c-.277.281-.61.255-.942-.076q-.877-.874-1.752-1.749A.488.488,0,0,0-434.4-830.773Z" transform="translate(-151.372 0)"/><path class="a" d="M-377.712-620.554a.643.643,0,0,1-.648.624.645.645,0,0,1-.617-.629.642.642,0,0,1,.635-.636A.641.641,0,0,1-377.712-620.554Z" transform="translate(-208.061 -200.625)"/></g></svg>