<svg xmlns="http://www.w3.org/2000/svg" width="19.208" height="17.17" viewBox="0 0 19.208 17.17"><defs><style>.a{fill:#fff;}.b{fill:#248fd6;}</style></defs><g transform="translate(2976.421 -8579.486)"><path class="a" d="M-2957.253,8586.885a3.763,3.763,0,0,0-2.453-3.082c-.125-.051-.166-.1-.115-.23a2.376,2.376,0,0,0,.154-.676,2.761,2.761,0,0,0-1.585-2.713,2.728,2.728,0,0,0-3.087.556c-.216.216-.213.214-.447.017a5.2,5.2,0,0,0-3.985-1.241,5.322,5.322,0,0,0-4.746,4.456.373.373,0,0,1-.315.347,3.48,3.48,0,0,0-2.548,3.942,3.512,3.512,0,0,0,3.129,2.917c.523.042,1.046.022,1.569.023a6.254,6.254,0,0,1-.122-.684,8.164,8.164,0,0,1-1.685-.069,2.8,2.8,0,0,1-2.243-3,2.8,2.8,0,0,1,2.5-2.549c.2-.021.319-.062.335-.314a4.555,4.555,0,0,1,1.27-2.949,4.487,4.487,0,0,1,3.021-1.441,4.61,4.61,0,0,1,4.025,1.736c.1.125.169.146.252-.018a2.7,2.7,0,0,1,.537-.746,2.042,2.042,0,0,1,2.626-.135,2.047,2.047,0,0,1,.577,2.6c-.075.135-.159.264-.243.393s-.053.185.1.211a4,4,0,0,1,1.214.395,3.176,3.176,0,0,1,1.6,3.146,3.143,3.143,0,0,1-2.532,2.667,6.055,6.055,0,0,1-.9.046c-.236,0-.437-.006-.632,0a6.74,6.74,0,0,1-.1.694c.213.006.427,0,.64,0a4.151,4.151,0,0,0,2.383-.544A3.8,3.8,0,0,0-2957.253,8586.885Z" transform="translate(0)"/><g transform="translate(-2972.185 8584.755)"><path class="a" d="M-2888.119,8693.074v4.349a1.6,1.6,0,0,0,.8,1.388l3.766,2.174a1.6,1.6,0,0,0,1.6,0l3.765-2.174a1.6,1.6,0,0,0,.8-1.388v-4.349a1.6,1.6,0,0,0-.8-1.388l-3.765-2.174a1.6,1.6,0,0,0-1.6,0l-3.766,2.174A1.6,1.6,0,0,0-2888.119,8693.074Z" transform="translate(2888.119 -8689.298)"/><g transform="translate(2.411 2.912)"><path class="b" d="M-2833.56,8754.215a.309.309,0,0,1,.4-.069l.744.431a.3.3,0,0,1,.12.412.276.276,0,0,1-.027.041,3.1,3.1,0,0,1-2.443,1.141,3.088,3.088,0,0,1-3.088-3.088,3.087,3.087,0,0,1,3.088-3.088,3.086,3.086,0,0,1,2.443,1.138.317.317,0,0,1-.062.444h0a.222.222,0,0,1-.031.021l-.744.419a.308.308,0,0,1-.4-.069,1.545,1.545,0,0,0-1.21-.537,1.583,1.583,0,0,0-1.605,1.676,1.588,1.588,0,0,0,1.5,1.672l.105,0A1.512,1.512,0,0,0-2833.56,8754.215Z" transform="translate(2837.858 -8749.994)"/><path class="b" d="M-2789.859,8798.91a.785.785,0,0,1,.791-.778.784.784,0,0,1,.779.79h0a.785.785,0,0,1-.79.779h0A.789.789,0,0,1-2789.859,8798.91Z" transform="translate(2792.162 -8795.822)"/></g></g></g></svg>