<svg width="26" height="29" viewBox="0 0 26 29" fill="none" xmlns="http://www.w3.org/2000/svg">
<path d="M25.4156 8.8942C25.2302 8.70083 25.0097 8.54749 24.7667 8.44304C24.5237 8.33859 24.2631 8.28512 24 8.28571H20V7.25C20 5.32718 19.2625 3.48311 17.9497 2.12348C16.637 0.763837 14.8565 0 13 0C11.1435 0 9.363 0.763837 8.05025 2.12348C6.7375 3.48311 6 5.32718 6 7.25V8.28571H2C1.46957 8.28571 0.960859 8.50395 0.585786 8.89242C0.210714 9.28089 0 9.80777 0 10.3571V24.3393C0 26.8638 2.0625 29 4.5 29H21.5C22.679 29.0004 23.8114 28.5229 24.655 27.6698C25.0795 27.2503 25.4175 26.7461 25.6487 26.1876C25.8799 25.6291 25.9994 25.0279 26 24.4202V10.3571C26.0008 10.0854 25.9496 9.81616 25.8493 9.56505C25.749 9.31394 25.6016 9.08592 25.4156 8.8942ZM8 7.25C8 5.87656 8.52678 4.55937 9.46446 3.5882C10.4021 2.61703 11.6739 2.07143 13 2.07143C14.3261 2.07143 15.5978 2.61703 16.5355 3.5882C17.4732 4.55937 18 5.87656 18 7.25V8.28571H8V7.25ZM20 13.4643C20 15.3871 19.2625 17.2312 17.9497 18.5908C16.637 19.9504 14.8565 20.7143 13 20.7143C11.1435 20.7143 9.363 19.9504 8.05025 18.5908C6.7375 17.2312 6 15.3871 6 13.4643V12.4286C6 12.1539 6.10535 11.8904 6.29289 11.6962C6.48043 11.502 6.73478 11.3929 7 11.3929C7.26521 11.3929 7.51957 11.502 7.7071 11.6962C7.89464 11.8904 8 12.1539 8 12.4286V13.4643C8 14.8377 8.52678 16.1549 9.46446 17.1261C10.4021 18.0973 11.6739 18.6429 13 18.6429C14.3261 18.6429 15.5978 18.0973 16.5355 17.1261C17.4732 16.1549 18 14.8377 18 13.4643V12.4286C18 12.1539 18.1054 11.8904 18.2929 11.6962C18.4804 11.502 18.7348 11.3929 19 11.3929C19.2652 11.3929 19.5196 11.502 19.7071 11.6962C19.8946 11.8904 20 12.1539 20 12.4286V13.4643Z" fill="#9b66ff"/>
</svg>
