<svg xmlns="http://www.w3.org/2000/svg" width="24.445" height="24.445" viewBox="0 0 24.445 24.445"><defs><style>.a{fill:#fff;}</style></defs><path class="a" d="M49.445,37.223a12.223,12.223,0,1,0-23.719,4.159A.566.566,0,1,0,26.79,41a11.1,11.1,0,1,1,18.764,3.548c-.155.177-.32.352-.489.521A11.106,11.106,0,0,1,32.9,47.441q-.248-.1-.489-.22a11.028,11.028,0,0,1-3.036-2.155l-.145-.147.145-.148a11.092,11.092,0,0,1,13.167-1.89.566.566,0,1,0,.543-.993,12.219,12.219,0,0,0-14.51,2.082c-.184.184-.365.377-.539.574a.566.566,0,0,0,0,.748c.173.2.355.39.539.574a12.219,12.219,0,0,0,17.288,0c.186-.186.368-.38.538-.574h0a12.2,12.2,0,0,0,3.04-8.068Z" transform="translate(-25 -25)"/><path class="a" d="M81.775,53.908a4.6,4.6,0,1,0-4.6,4.6A4.608,4.608,0,0,0,81.775,53.908Zm-8.04,0a3.437,3.437,0,1,1,3.437,3.437A3.441,3.441,0,0,1,73.734,53.908Z" transform="translate(-64.949 -45.007)"/></svg>