<svg width="18" height="23" viewBox="0 0 18 23" fill="none" xmlns="http://www.w3.org/2000/svg">
<path fill-rule="evenodd" clip-rule="evenodd" d="M10.876 0.240591C11.1955 -0.080197 11.7136 -0.080197 12.0331 0.240591L17.7604 5.99059C18.0799 6.31138 18.0799 6.83148 17.7604 7.15227L12.0331 12.9023C11.7136 13.2231 11.1955 13.2231 10.876 12.9023C10.5565 12.5815 10.5565 12.0614 10.876 11.7406L15.2066 7.39286H0.818182C0.366312 7.39286 1.21919e-08 7.02509 1.21919e-08 6.57143C1.21919e-08 6.11777 0.366312 5.75 0.818182 5.75H15.2066L10.876 1.40227C10.5565 1.08148 10.5565 0.561379 10.876 0.240591ZM7.124 10.0977C7.44352 10.4185 7.44352 10.9386 7.124 11.2594L2.79345 15.6071H17.1818C17.6337 15.6071 18 15.9749 18 16.4286C18 16.8822 17.6337 17.25 17.1818 17.25H2.79345L7.124 21.5977C7.44352 21.9185 7.44352 22.4386 7.124 22.7594C6.80448 23.0802 6.28643 23.0802 5.96691 22.7594L0.23964 17.0094C-0.07988 16.6886 -0.07988 16.1685 0.23964 15.8477L5.96691 10.0977C6.28643 9.77695 6.80448 9.77695 7.124 10.0977Z" fill="white"/>
</svg>
