<svg width="22" height="26" viewBox="0 0 22 26" fill="none" xmlns="http://www.w3.org/2000/svg">
<path d="M21.5375 17.951C21.4425 17.835 21.3492 17.7189 21.2576 17.6069C19.9982 16.0625 19.2363 15.1305 19.2363 10.7587C19.2363 8.49527 18.7022 6.63812 17.6495 5.24527C16.8733 4.21629 15.824 3.43571 14.441 2.85884C14.4232 2.8488 14.4074 2.83564 14.3941 2.81996C13.8967 1.13112 12.5354 0 11.0001 0C9.46487 0 8.1042 1.13112 7.60675 2.81821C7.59348 2.83332 7.57781 2.84607 7.56039 2.85594C4.333 4.20295 2.76454 6.78728 2.76454 10.7569C2.76454 15.1305 2.00377 16.0625 0.743273 17.6051C0.651684 17.7171 0.558377 17.8309 0.463353 17.9493C0.217894 18.2494 0.0623751 18.6145 0.0152022 19.0015C-0.0319707 19.3884 0.0311766 19.7809 0.197171 20.1326C0.550363 20.8871 1.30311 21.3554 2.16234 21.3554H19.8442C20.6995 21.3554 21.4471 20.8876 21.8014 20.1367C21.9681 19.7849 22.0319 19.392 21.9851 19.0047C21.9383 18.6173 21.783 18.2516 21.5375 17.951ZM11.0001 26C11.8273 25.9993 12.6389 25.7717 13.3488 25.3412C14.0587 24.9107 14.6405 24.2935 15.0324 23.555C15.0508 23.5196 15.0599 23.4799 15.0588 23.4399C15.0577 23.3999 15.0464 23.3608 15.026 23.3265C15.0056 23.2923 14.9768 23.2639 14.9424 23.2442C14.908 23.2246 14.8692 23.2142 14.8297 23.2143H7.1717C7.13216 23.2141 7.09326 23.2244 7.05878 23.244C7.02431 23.2636 6.99543 23.292 6.97497 23.3263C6.95451 23.3606 6.94316 23.3997 6.94202 23.4398C6.94089 23.4798 6.95001 23.5195 6.96849 23.555C7.36034 24.2934 7.942 24.9106 8.65179 25.3411C9.36159 25.7715 10.1731 25.9992 11.0001 26Z" fill="#9b66ff"/>
</svg>
