<svg xmlns="http://www.w3.org/2000/svg" width="17.129" height="20" viewBox="0 0 17.129 20"><defs><style>.a{fill:none;stroke:#5bf;stroke-linecap:round;stroke-linejoin:round;}.b{fill:#5bf;}</style></defs><g transform="translate(-5.93 -2)"><line class="a" x2="9.286" transform="translate(13.066 12)"/><path class="b" d="M18.787,18.429v2.143H7.359V3.429H18.787V5.571h1.429V2.714A.714.714,0,0,0,19.5,2H6.644a.714.714,0,0,0-.714.714V21.286A.714.714,0,0,0,6.644,22H19.5a.714.714,0,0,0,.714-.714V18.429Z"/><line class="a" x1="2.857" y2="2.857" transform="translate(19.494 12)"/><line class="a" x1="2.857" y1="2.857" transform="translate(19.494 9.143)"/><line class="a" y1="1.429" transform="translate(19.494 4.921)"/><line class="a" y1="1.429" transform="translate(19.494 17.714)"/></g></svg>
