<svg xmlns="http://www.w3.org/2000/svg" width="20.061" height="13.366" viewBox="0 0 20.061 13.366"><defs><style>.a{fill:#fff;}</style></defs><g transform="translate(6175.507 -1462.697)"><path class="a" d="M-5920.019,1467.452a7.683,7.683,0,0,0,1.1-.023.592.592,0,0,0,.5-.715q-.329-1.665-.667-3.329a.8.8,0,0,0-.847-.687q-.8,0-1.6,0a.805.805,0,0,0-.86.694q-.331,1.618-.651,3.239a.631.631,0,0,0,.672.821c.331,0,.662.011.992,0,.188-.008.239.055.238.24-.008,1.219,0,2.438,0,3.656s0,2.45,0,3.674c0,.17-.05.225-.219.22-.312-.01-.625-.012-.937,0a.417.417,0,0,0-.421.439.42.42,0,0,0,.458.378c.367,0,.734,0,1.1,0,.655,0,1.311,0,1.966,0a.394.394,0,0,0,.423-.424.419.419,0,0,0-.462-.4c-.275-.009-.551,0-.827,0s-.262,0-.262-.266v-7.22C-5920.324,1467.453-5920.324,1467.457-5920.019,1467.452Zm-.735-.825c-.422,0-.845,0-1.267,0-.142,0-.179-.038-.148-.184q.278-1.347.536-2.7c.032-.169.1-.232.277-.226.428.014.857.009,1.285,0a.169.169,0,0,1,.2.16q.272,1.385.554,2.769c.026.131-.016.177-.148.175C-5919.9,1466.624-5920.326,1466.627-5920.754,1466.627Z" transform="translate(-237.036 0)"/><path class="a" d="M-6175.507,1528.785a1.611,1.611,0,0,1,.967-.988.23.23,0,0,0,.168-.254c0-.061,0-.121,0-.182a1.491,1.491,0,0,1,1.642-1.632q4.207-.007,8.414,0c.557,0,1.114-.01,1.671.005a1.637,1.637,0,0,1,1.355.688,1.455,1.455,0,0,1,.2.99.385.385,0,0,0,.271.436,1.376,1.376,0,0,1,.89,1.357c0,.516-.013,1.033,0,1.549a2.972,2.972,0,0,1-1.643,2.772,3.712,3.712,0,0,1-1.241.478c-.236.043-.3.157-.282.372a5.055,5.055,0,0,1,0,.516.32.32,0,0,1-.334.352.335.335,0,0,1-.36-.335,1.927,1.927,0,0,1-.006-.424c.03-.276-.092-.363-.351-.339-.171.016-.345,0-.517,0-2.207,0-4.414.006-6.621-.007-.313,0-.423.095-.388.4a1.366,1.366,0,0,1-.017.423.324.324,0,0,1-.374.28.309.309,0,0,1-.306-.317,5.726,5.726,0,0,1,0-.607c.008-.184-.062-.262-.248-.305a3.989,3.989,0,0,1-2.347-1.409,3.649,3.649,0,0,1-.547-1.143Zm7.78,4.623v-.01h4.04a3.4,3.4,0,0,0,1.439-.329,2.416,2.416,0,0,0,1.62-2.458c-.022-.394,0-.79,0-1.184,0-.65-.258-.979-.765-.984s-.779.33-.78.971c0,.456-.009.911,0,1.367a.859.859,0,0,1-.409.766,2.375,2.375,0,0,1-1.378.406q-3.781.012-7.562,0a2.4,2.4,0,0,1-1.3-.372.889.889,0,0,1-.46-.83c.015-.506.01-1.012,0-1.518a.749.749,0,0,0-.778-.789.748.748,0,0,0-.763.8c-.006.5.014.993,0,1.488a2.248,2.248,0,0,0,1.09,2.042,3.929,3.929,0,0,0,2.3.636C-6170.2,1533.4-6168.961,1533.408-6167.727,1533.408Zm-2.836-6.973q-1.033,0-2.065,0a1.407,1.407,0,0,0-.728.181c-.371.217-.29.581-.313.92-.018.26.179.28.329.365a1.4,1.4,0,0,1,.768,1.257c.01.415,0,.83,0,1.245,0,.542.091.661.623.775a1.922,1.922,0,0,0,.393.034c1.043,0,2.086,0,3.128.008.254,0,.333-.093.332-.339q-.013-2.065,0-4.13c0-.264-.1-.323-.343-.32C-6169.146,1526.441-6169.854,1526.434-6170.562,1526.435Zm5.669,0c-.719,0-1.437.006-2.155,0-.216,0-.311.06-.31.291q.01,2.095,0,4.189c0,.219.076.309.3.307,1.094-.009,2.187-.008,3.279-.011a1.557,1.557,0,0,0,.614-.149.414.414,0,0,0,.285-.443c-.016-.465,0-.931-.006-1.4a1.422,1.422,0,0,1,.848-1.359c.08-.041.176-.059.224-.147a.929.929,0,0,0-.452-1.181,1.513,1.513,0,0,0-.564-.1C-6163.518,1526.437-6164.206,1526.435-6164.894,1526.434Z" transform="translate(0 -59.18)"/></g></svg>