<svg xmlns="http://www.w3.org/2000/svg" width="14.128" height="14.895" viewBox="0 0 14.128 14.895"><defs><style>.a{fill:#fff;}</style></defs><g transform="translate(6727.053 -5991.541)"><g transform="translate(-6725.888 5991.541)"><path class="a" d="M-6699.327,5998.987v-5.218a2.16,2.16,0,0,1,1.1-1.941,2.038,2.038,0,0,1,1.072-.286h8.627a2.178,2.178,0,0,1,2.138,1.91,3.3,3.3,0,0,1,.023.439v10.276a2.184,2.184,0,0,1-1.123,2,1.908,1.908,0,0,1-.983.27h-8.748a2.169,2.169,0,0,1-2.086-1.931c-.038-.382-.015-.758-.016-1.138Q-6699.33,6001.178-6699.327,5998.987Zm3.467.006v6.411c0,.138,0,.138.132.138h7.171a1.3,1.3,0,0,0,1.3-1.3v-.008c-.009-.417,0-.835,0-1.251v-9.2a1.4,1.4,0,0,0-.04-.376,1.266,1.266,0,0,0-1.235-.961h-7.173c-.148,0-.148,0-.148.153Zm-.882,0q0-2.123,0-4.246v-2.185c0-.1-.028-.127-.122-.122-.12.007-.243,0-.362,0a1.132,1.132,0,0,0-.6.185,1.3,1.3,0,0,0-.621,1.161v10.4a1.318,1.318,0,0,0,.845,1.274,1.925,1.925,0,0,0,.7.078c.162,0,.16,0,.16-.159Z" transform="translate(6699.333 -5991.541)"/></g><g transform="translate(-6727.053 5995.375)"><path class="a" d="M-6724.122,6082.788a.821.821,0,0,0-.134-.017h-2.235a1.165,1.165,0,0,0-.13.016.539.539,0,0,0-.433.53.548.548,0,0,0,.428.522.9.9,0,0,0,.135.017h2.231a1.05,1.05,0,0,0,.13-.017.54.54,0,0,0,.432-.529A.546.546,0,0,0-6724.122,6082.788Z" transform="translate(6727.053 -6082.771)"/><path class="a" d="M-6724.122,6155.731a.728.728,0,0,0-.134-.018h-2.235a.782.782,0,0,0-.13.017.539.539,0,0,0-.433.53.546.546,0,0,0,.428.523.969.969,0,0,0,.135.017h2.231a1.151,1.151,0,0,0,.13-.016.54.54,0,0,0,.432-.53A.545.545,0,0,0-6724.122,6155.731Z" transform="translate(6727.053 -6152.647)"/><path class="a" d="M-6724.122,6228.662a.822.822,0,0,0-.134-.018h-2.235a.973.973,0,0,0-.13.016.538.538,0,0,0-.433.529.548.548,0,0,0,.428.523.789.789,0,0,0,.135.017h2.231a1.049,1.049,0,0,0,.13-.016.542.542,0,0,0,.432-.531A.545.545,0,0,0-6724.122,6228.662Z" transform="translate(6727.053 -6222.513)"/></g></g></svg>