<svg xmlns="http://www.w3.org/2000/svg" width="89.622" height="26.679" viewBox="0 0 89.622 26.679"><defs><style>.a{fill:#5bf;}.b{fill:#fff;}</style></defs><g transform="translate(-17.377 -16.551)"><g transform="translate(49.893 17.827)"><path class="a" d="M516.661,230.529a.7.7,0,0,1,.9-.159l1.7.983a.694.694,0,0,1,.212,1.036,7.055,7.055,0,0,1-5.578,2.6,7.051,7.051,0,1,1,0-14.1,7.057,7.057,0,0,1,5.578,2.6.728.728,0,0,1-.212,1.063l-1.7.956a.7.7,0,0,1-.9-.159,3.518,3.518,0,0,0-2.762-1.223,3.827,3.827,0,0,0,0,7.648A3.452,3.452,0,0,0,516.661,230.529Z" transform="translate(-506.78 -215.633)"/><path class="a" d="M674.766,167.93h1.487a.947.947,0,0,1,.929.957v16.677a.946.946,0,0,1-.929.956h-1.487a.952.952,0,0,1-.956-.956V168.888A.952.952,0,0,1,674.766,167.93Z" transform="translate(-658.649 -167.48)"/><path class="a" d="M744.87,164.776a1.793,1.793,0,1,1,1.78,1.805A1.8,1.8,0,0,1,744.87,164.776Z" transform="translate(-723.26 -162.97)"/><path class="a" d="M746.05,236.908V225.356a.951.951,0,0,1,.956-.956h1.461a.951.951,0,0,1,.956.956v11.553a.952.952,0,0,1-.956.956h-1.461A.952.952,0,0,1,746.05,236.908Z" transform="translate(-724.333 -218.824)"/><path class="a" d="M830.505,226.5v7.224a.953.953,0,0,1-.956.956h-1.46a.953.953,0,0,1-.957-.956v-6.532c0-1.726-.717-3.028-2.628-3.028a2.769,2.769,0,0,0-2.869,3.028v6.532a.946.946,0,0,1-.929.956h-1.488a.947.947,0,0,1-.929-.956V222.173a.946.946,0,0,1,.929-.956h1.488a.946.946,0,0,1,.929.956v.692a4.477,4.477,0,0,1,3.93-1.965C828.964,220.9,830.505,223.635,830.505,226.5Z" transform="translate(-790.016 -215.642)"/><path class="a" d="M990.938,221.219H992.4a.951.951,0,0,1,.956.956v11.553a.952.952,0,0,1-.956.956h-1.461a.952.952,0,0,1-.956-.956v-.638a5.078,5.078,0,0,1-4.3,1.912c-4.169,0-6.559-3.532-6.559-7.037,0-3.532,2.389-7.064,6.559-7.064a5.078,5.078,0,0,1,4.3,1.912v-.638A.952.952,0,0,1,990.938,221.219Zm-1.088,6.745a3.643,3.643,0,1,0-3.639,3.823A3.562,3.562,0,0,0,989.849,227.963Z" transform="translate(-936.248 -215.642)"/></g><g transform="translate(17.377 16.551)"><path class="a" d="M148.53,157.373v9.747a3.591,3.591,0,0,0,1.8,3.111l8.442,4.874a3.591,3.591,0,0,0,3.592,0l8.442-4.874a3.593,3.593,0,0,0,1.8-3.111v-9.747a3.591,3.591,0,0,0-1.8-3.111l-8.442-4.874a3.591,3.591,0,0,0-3.592,0l-8.442,4.874A3.59,3.59,0,0,0,148.53,157.373Z" transform="translate(-148.53 -148.907)"/><g transform="translate(5.046 6.415)"><path class="b" d="M213.82,229.056a.691.691,0,0,1,.887-.156l1.669.965a.681.681,0,0,1,.209,1.017,6.929,6.929,0,0,1-5.477,2.555,6.923,6.923,0,1,1,0-13.846,6.929,6.929,0,0,1,5.477,2.555.715.715,0,0,1-.209,1.044l-1.669.939a.689.689,0,0,1-.887-.156,3.456,3.456,0,0,0-2.712-1.2,3.758,3.758,0,0,0,0,7.51A3.387,3.387,0,0,0,213.82,229.056Z" transform="translate(-204.12 -219.59)"/><path class="b" d="M261.72,278.1a1.76,1.76,0,1,1,1.747,1.773A1.771,1.771,0,0,1,261.72,278.1Z" transform="translate(-256.492 -271.18)"/></g></g></g></svg>
