<svg xmlns="http://www.w3.org/2000/svg" width="12.776" height="16.478" viewBox="0 0 12.776 16.478"><defs><style>.a{fill:#fff;}</style></defs><g transform="translate(2496.313 333.483)"><path class="a" d="M-2496.31-326.861q0-1.833,0-3.666c0-.565.157-.714.729-.73a8.179,8.179,0,0,0,5.116-1.917c.5-.411.567-.412,1.062-.007a8.242,8.242,0,0,0,5.175,1.925c.52.011.689.183.689.713,0,1.748.009,3.5-.014,5.245-.008.605-.048,1.212-.023,1.816a3.955,3.955,0,0,1-1.086,2.817,13.91,13.91,0,0,1-3.376,2.666c-.5.307-1.018.581-1.521.881a.665.665,0,0,1-.728,0,23.161,23.161,0,0,1-4.237-2.811,4.715,4.715,0,0,1-1.762-2.916,3.764,3.764,0,0,1-.027-.475q0-1.773,0-3.547Zm11.8.251h0c0-1.1-.011-2.206.007-3.308.005-.3-.114-.4-.389-.42a9.179,9.179,0,0,1-4.845-1.89.26.26,0,0,0-.382,0,9.141,9.141,0,0,1-4.874,1.895c-.252.021-.359.116-.358.39q.013,3.368,0,6.736a2.543,2.543,0,0,0,.409,1.38,5.089,5.089,0,0,0,.92,1.09,20.619,20.619,0,0,0,3.867,2.615.421.421,0,0,0,.47-.009c.468-.281.947-.545,1.411-.833a12.637,12.637,0,0,0,2.877-2.3,3.236,3.236,0,0,0,.886-2.273C-2484.525-324.563-2484.511-325.587-2484.511-326.61Z"/><path class="a" d="M-2442.969-255.69a.589.589,0,0,1-.218.377l-4.017,4.2c-.35.366-.695.738-1.05,1.1a.5.5,0,0,1-.822.005q-.686-.7-1.359-1.422a.483.483,0,0,1-.025-.694.452.452,0,0,1,.687.029c.3.3.6.608.882.929.165.188.271.186.445,0q2.253-2.382,4.523-4.747a1.232,1.232,0,0,1,.269-.232A.464.464,0,0,1-2442.969-255.69Z" transform="translate(-42.986 -72.66)"/></g></svg>